<?xml version="1.0" standalone="no"?>
<!DOCTYPE svg PUBLIC "-//W3C//DTD SVG 1.1//EN" "http://www.w3.org/Graphics/SVG/1.1/DTD/svg11.dtd" >
<svg xmlns="http://www.w3.org/2000/svg" xmlns:xlink="http://www.w3.org/1999/xlink" version="1.1">
<metadata>
Created by FontForge 20161003 at Wed Dec 28 05:02:50 2016
 By www-data
Copyright 2011 by Timo Gaessner, 123buero. All rights reserved.
</metadata>
<defs>
<font id="MaisonNeueBold" horiz-adv-x="650" >
  <font-face 
    font-family="MaisonNeueBold"
    font-weight="700"
    font-stretch="normal"
    units-per-em="1000"
    panose-1="2 0 0 0 0 0 0 0 0 0"
    ascent="775"
    descent="-225"
    x-height="530"
    cap-height="700"
    bbox="-120 -300 1261 982"
    underline-thickness="50"
    underline-position="-150"
    unicode-range="U+000D-FB02"
  />
<missing-glyph horiz-adv-x="686" 
d="M50 0v423q0 117 86 204.5t206 87.5q121 0 207.5 -87.5t86.5 -204.5v-423h-28l-65 65l-68 -65l-63 65l-71 -65l-69 65l-63 -65l-67 65l-66 -65h-26zM410 305l63 63l64 -63l14 14l-64 63l64 64l-14 14l-64 -64l-63 64l-14 -14l63 -64l-63 -63zM150 305l63 63l64 -63l14 14
l-64 63l64 64l-14 14l-64 -64l-63 64l-14 -14l63 -64l-63 -63z" />
    <glyph glyph-name="fi" unicode="fi" horiz-adv-x="618" 
d="M98 0v420h-83v110h86v75q0 68 35.5 96.5t103.5 28.5h84v-115h-57q-24 0 -33.5 -9.5t-9.5 -32.5v-43h324v-530h-130v420h-190v-420h-130zM418 607v123h130v-123h-130z" />
    <glyph glyph-name="fl" unicode="fl" horiz-adv-x="622" 
d="M97 0v420h-82v110h85v75q0 68 35.5 96.5t103.5 28.5h84v-115h-57q-24 0 -33.5 -9.5t-9.5 -32.5v-43h194v200h135v-730h-135v420h-190v-420h-130z" />
    <glyph glyph-name=".notdef" horiz-adv-x="686" 
d="M50 0v423q0 117 86 204.5t206 87.5q121 0 207.5 -87.5t86.5 -204.5v-423h-28l-65 65l-68 -65l-63 65l-71 -65l-69 65l-63 -65l-67 65l-66 -65h-26zM410 305l63 63l64 -63l14 14l-64 63l64 64l-14 14l-64 -64l-63 64l-14 -14l63 -64l-63 -63zM150 305l63 63l64 -63l14 14
l-64 63l64 64l-14 14l-64 -64l-63 64l-14 -14l63 -64l-63 -63z" />
    <glyph glyph-name=".null" horiz-adv-x="0" 
 />
    <glyph glyph-name=".null" horiz-adv-x="0" 
 />
    <glyph glyph-name="nonmarkingreturn" horiz-adv-x="333" 
 />
    <glyph glyph-name="CR" unicode="&#xd;" horiz-adv-x="250" 
 />
    <glyph glyph-name="space" unicode=" " horiz-adv-x="250" 
 />
    <glyph glyph-name="exclam" unicode="!" horiz-adv-x="329" 
d="M96 231v469h135v-469h-135zM90 0v142h149v-142h-149z" />
    <glyph glyph-name="quotedbl" unicode="&#x22;" horiz-adv-x="391" 
d="M80 454v246h85v-246h-85zM226 454v246h85v-246h-85z" />
    <glyph glyph-name="numbersign" unicode="#" horiz-adv-x="678" 
d="M178 127l7 129h-125v88h132l8 139h-105v88h111l8 129h93l-8 -129h95l8 129h94l-8 -129h130v-88h-136l-8 -139h108v-88h-114l-7 -129h-94l7 129h-95l-7 -129h-94zM285 344h95l8 139h-95z" />
    <glyph glyph-name="dollar" unicode="$" horiz-adv-x="657" 
d="M45 234l142 31q12 -69 38 -105.5t78 -45.5v196q-125 37 -177 87t-52 119q0 78 61.5 135t167.5 63v61h55v-62q90 -7 152.5 -53.5t83.5 -132.5l-126 -37q-32 87 -110 97v-166q145 -44 199.5 -94.5t54.5 -126.5q0 -95 -68 -153t-186 -62v-83h-55v85q-108 10 -175.5 72.5
t-82.5 174.5zM358 294v-184q58 0 90 21.5t32 63.5q0 36 -25 56.5t-97 42.5zM207 518q0 -28 21 -45t75 -34v150q-50 -2 -73 -22t-23 -49z" />
    <glyph glyph-name="percent" unicode="%" horiz-adv-x="927" 
d="M701 78q34 0 52.5 31.5t18.5 85.5q0 106 -71 106q-70 0 -70 -106q0 -54 18 -85.5t52 -31.5zM701 -12q-71 0 -118 51.5t-47 157.5q0 94 49 145t116 51t116.5 -51.5t49.5 -144.5q0 -95 -48.5 -152t-117.5 -57zM225 397q34 0 52.5 31.5t18.5 85.5q0 106 -71 106
q-70 0 -70 -106q0 -54 18 -85.5t52 -31.5zM225 307q-71 0 -118 51.5t-47 157.5q0 94 49 145t116 51t116.5 -51.5t49.5 -144.5q0 -95 -48.5 -152t-117.5 -57zM186 -34l489 815l72 -45l-488 -814z" />
    <glyph glyph-name="ampersand" unicode="&#x26;" horiz-adv-x="702" 
d="M612 33l-87 76q-62 -124 -235 -124q-111 0 -175.5 57t-64.5 148q0 78 41 132t91 83q-67 60 -67 139q0 78 57.5 124.5t136.5 46.5q85 0 143 -45t70 -131l-118 -26q-20 86 -90 86q-32 0 -50 -16t-18 -40q0 -20 10.5 -35t32.5 -34l165 -141h2v83h108v-178l128 -110zM434 189
l-173 150q-34 -17 -60 -52t-26 -79q0 -101 127 -101q114 0 132 82z" />
    <glyph glyph-name="quotesingle" unicode="'" horiz-adv-x="245" 
d="M80 454v246h85v-246h-85z" />
    <glyph glyph-name="parenleft" unicode="(" horiz-adv-x="374" 
d="M334 -143l-65 -54q-17 16 -44 54t-65 104t-64 161t-26 192q0 77 18.5 151.5t42.5 124.5t56.5 97t49.5 65.5t32 33.5l65 -54q-81 -99 -120 -189.5t-39 -228.5q0 -133 44.5 -251.5t114.5 -205.5z" />
    <glyph glyph-name="parenright" unicode=")" horiz-adv-x="374" 
d="M105 -197l-65 54q70 87 114.5 205.5t44.5 251.5q0 138 -39 228.5t-120 189.5l65 54q15 -15 32 -33.5t49.5 -65.5t56.5 -97t42.5 -124.5t18.5 -151.5q0 -97 -26 -192t-64 -161t-65 -104t-44 -54z" />
    <glyph glyph-name="asterisk" unicode="*" horiz-adv-x="499" 
d="M77 380l86 104l-113 65l50 85l100 -59v125h98v-126l103 61l48 -87l-114 -65l89 -103l-74 -62l-102 117l-98 -118z" />
    <glyph glyph-name="plus" unicode="+" horiz-adv-x="583" 
d="M239 90v223h-199v100h199v202h105v-202h199v-100h-199v-223h-105z" />
    <glyph glyph-name="comma" unicode="," horiz-adv-x="309" 
d="M80 -134v68q33 6 41 19t8 47h-49v142h149v-126q0 -139 -149 -150z" />
    <glyph glyph-name="hyphen" unicode="-" horiz-adv-x="409" 
d="M40 278v100h329v-100h-329z" />
    <glyph glyph-name="period" unicode="." horiz-adv-x="309" 
d="M80 0v142h149v-142h-149z" />
    <glyph glyph-name="slash" unicode="/" horiz-adv-x="451" 
d="M5 -12l360 760l81 -37l-360 -758z" />
    <glyph glyph-name="zero" unicode="0" horiz-adv-x="608" 
d="M304 -15q-123 0 -196 92t-73 284q0 174 73.5 264t195.5 90t195.5 -90t73.5 -264q0 -192 -73 -284t-196 -92zM304 110q69 0 101.5 56t32.5 195q0 121 -33.5 175t-100.5 54t-100.5 -54t-33.5 -175q0 -139 32.5 -195t101.5 -56z" />
    <glyph glyph-name="one" unicode="1" horiz-adv-x="475" 
d="M206 0v550l-151 -95v145l161 100h119v-700h-129z" />
    <glyph glyph-name="two" unicode="2" horiz-adv-x="588" 
d="M51 0v101q0 96 46 150q38 45 158 105q7 3 20 10q40 19 57.5 29.5t39.5 27.5t30 36.5t8 45.5q0 39 -31 64.5t-83 25.5q-109 0 -123 -136l-128 17q7 115 74.5 177t183.5 62q102 0 168.5 -58.5t66.5 -160.5q0 -43 -15 -78.5t-43.5 -63t-57 -46t-68.5 -38.5
q-77 -39 -102.5 -54t-37.5 -32q-14 -21 -14 -52h343v-132h-492z" />
    <glyph glyph-name="three" unicode="3" horiz-adv-x="593" 
d="M30 229l131 28q20 -152 141 -152q59 0 92 27t33 76q0 103 -131 103h-46v106h41q47 0 75.5 22t28.5 64q0 43 -26.5 67.5t-73.5 24.5q-91 0 -107 -106l-123 23q9 94 72.5 148.5t162.5 54.5q95 0 157.5 -52.5t62.5 -140.5q0 -63 -29 -97t-61 -44v-3q42 -9 82.5 -53.5
t40.5 -125.5q0 -92 -66 -153t-184 -61q-114 0 -186.5 61.5t-86.5 182.5z" />
    <glyph glyph-name="four" unicode="4" horiz-adv-x="593" 
d="M20 134v126l266 440h205v-441h82v-125h-82v-134h-127v134h-344zM156 259h208v342h-2z" />
    <glyph glyph-name="five" unicode="5" horiz-adv-x="599" 
d="M40 174l127 54q16 -55 52.5 -87.5t88.5 -32.5q57 0 94.5 33t37.5 96t-37 96t-92 33q-90 0 -140 -75l-105 53l61 356h374v-125h-272l-27 -158l1 -1q5 8 19 18.5t48 22t75 11.5q94 0 159 -66t65 -169q0 -116 -75 -182t-186 -66q-104 0 -171 52t-97 137z" />
    <glyph glyph-name="six" unicode="6" horiz-adv-x="624" 
d="M204 237q0 -61 35.5 -95t97.5 -34q58 0 90 36t32 92q0 55 -33.5 90t-93.5 35q-59 0 -93.5 -37t-34.5 -87zM182 385l1 -1q18 29 62 55t109 26q92 0 161 -62t69 -172q0 -113 -71.5 -179.5t-175.5 -66.5q-129 0 -210.5 91.5t-81.5 266.5q0 156 78.5 264t211.5 108
q97 0 153 -51.5t72 -129.5l-122 -32q-25 93 -112 93q-63 0 -102 -57.5t-42 -152.5z" />
    <glyph glyph-name="seven" unicode="7" horiz-adv-x="500" 
d="M13 0l333 573v2h-341v125h475v-140l-307 -560h-160z" />
    <glyph glyph-name="eight" unicode="8" horiz-adv-x="576" 
d="M26 202q0 59 33 108.5t93 70.5v2q-44 18 -68.5 56.5t-24.5 88.5q0 80 63 133.5t166 53.5t166 -53.5t63 -133.5q0 -50 -24.5 -88.5t-68.5 -56.5v-2q61 -22 93.5 -71t32.5 -110q0 -102 -71.5 -158.5t-190.5 -56.5t-190.5 57t-71.5 160zM186 517q0 -35 28 -60t74 -25
t73.5 25t27.5 60q0 36 -26.5 61t-74.5 25q-49 0 -75.5 -25t-26.5 -61zM158 214q0 -47 33.5 -76.5t96.5 -29.5t96 29.5t33 76.5q0 50 -34 82t-95 32t-95.5 -32t-34.5 -82z" />
    <glyph glyph-name="nine" unicode="9" horiz-adv-x="612" 
d="M60 158l119 44q26 -97 128 -97q61 0 96.5 50.5t31.5 154.5h-2q-7 -23 -49.5 -50t-115.5 -27q-90 0 -161.5 65t-71.5 173q0 111 72 177.5t177 66.5q55 0 103 -20.5t88.5 -63t63.5 -116t23 -169.5q0 -180 -68 -270.5t-192 -90.5q-57 0 -102 15.5t-72.5 42.5t-43.5 55
t-24 60zM289 349q57 0 90.5 29t33.5 84q0 59 -34 96t-94 37q-54 0 -88 -35t-34 -89t34 -88t92 -34z" />
    <glyph glyph-name="colon" unicode=":" horiz-adv-x="309" 
d="M80 0v142h149v-142h-149zM80 388v142h149v-142h-149z" />
    <glyph glyph-name="semicolon" unicode=";" horiz-adv-x="309" 
d="M80 388v142h149v-142h-149zM80 -134v68q33 6 41 19t8 47h-49v142h149v-126q0 -139 -149 -150z" />
    <glyph glyph-name="less" unicode="&#x3c;" horiz-adv-x="526" 
d="M40 317l1 70l390 233l55 -88l-300 -180l300 -180l-56 -90z" />
    <glyph glyph-name="equal" unicode="=" horiz-adv-x="563" 
d="M50 227v100h463v-100h-463zM50 410v100h463v-100h-463z" />
    <glyph glyph-name="greater" unicode="&#x3e;" horiz-adv-x="526" 
d="M485 387l1 -70l-390 -235l-56 90l300 180l-300 180l55 88z" />
    <glyph glyph-name="question" unicode="?" horiz-adv-x="549" 
d="M202 227v31q0 30 8 53t25 41t30.5 28t36.5 24q30 19 42 27.5t26 29.5t14 48q0 34 -27.5 57.5t-80.5 23.5q-116 0 -124 -133l-132 11q3 112 68.5 179.5t191.5 67.5q104 0 171.5 -56t67.5 -140q0 -35 -8.5 -62.5t-25.5 -47.5t-32.5 -32t-38.5 -26q-3 -2 -15 -9t-15.5 -9
t-13.5 -8.5t-13.5 -10t-11 -10t-10 -11.5l-6 -12t-5 -14.5t-1.5 -15.5v-24h-121zM194 0v142h149v-142h-149z" />
    <glyph glyph-name="at" unicode="@" horiz-adv-x="730" 
d="M425 268v81h-2q-4 -11 -34 -18l-41 -10q-27 -7 -38 -18.5t-11 -33.5q0 -46 63 -46q20 0 41.5 12t21.5 33zM495 103l39 -65q-8 -6 -22 -15t-58.5 -23.5t-91.5 -14.5q-157 0 -239.5 101t-82.5 262q0 159 90 261.5t243 102.5q148 0 232.5 -98t84.5 -256q0 -118 -36.5 -166
t-115.5 -48q-57 0 -88 45q-42 -45 -101 -45q-58 0 -96 33.5t-38 84.5q0 93 107 118l49 11q29 6 41 15.5t12 27.5q0 42 -56 42q-53 0 -66 -56l-76 22q8 48 44.5 79.5t95.5 31.5q64 0 102.5 -33.5t38.5 -100.5v-164q0 -35 37 -35q72 0 72 136q0 123 -62 204t-181 81
q-123 0 -190.5 -82t-67.5 -211t62.5 -209t184.5 -80q36 0 69.5 11t48.5 22z" />
    <glyph glyph-name="A" unicode="A" horiz-adv-x="630" 
d="M486 0l-40 115h-267l-40 -115h-134l253 700h115l252 -700h-139zM312 500l-95 -273h191l-94 273h-2z" />
    <glyph glyph-name="B" unicode="B" horiz-adv-x="649" 
d="M80 0v700h297q93 0 149.5 -54.5t56.5 -133.5q0 -88 -76 -133v-1q45 -19 73.5 -60.5t28.5 -99.5q0 -100 -61 -160q-61 -58 -201 -58h-267zM215 125h163q96 0 96 93q0 43 -25.5 66.5t-69.5 23.5h-164v-183zM215 418h145q41 0 64.5 19.5t23.5 57.5q0 40 -23 60t-65 20h-145
v-157z" />
    <glyph glyph-name="C" unicode="C" horiz-adv-x="656" 
d="M481 278l140 -31q-17 -122 -89 -192t-188 -70q-135 0 -219.5 93.5t-84.5 282.5q0 166 89.5 260t213.5 94q108 0 183.5 -67.5t87.5 -181.5l-134 -21q-9 64 -42 104.5t-94 40.5q-69 0 -117 -60t-48 -169q0 -128 46.5 -189.5t118.5 -61.5q118 0 137 168z" />
    <glyph glyph-name="D" unicode="D" horiz-adv-x="652" 
d="M215 125h93q36 0 63 8.5t51 31.5t37 69.5t13 116.5q0 117 -43.5 170.5t-114.5 53.5h-99v-450zM80 0v700h234q60 0 113 -21t96 -62t68.5 -109.5t25.5 -156.5q0 -96 -26 -167t-71 -109.5t-97.5 -56.5t-114.5 -18h-228z" />
    <glyph glyph-name="E" unicode="E" horiz-adv-x="578" 
d="M80 0v700h443v-125h-308v-157h280v-120h-280v-173h308v-125h-443z" />
    <glyph glyph-name="F" unicode="F" horiz-adv-x="559" 
d="M80 0v700h444v-125h-309v-185h281v-119h-281v-271h-135z" />
    <glyph glyph-name="G" unicode="G" horiz-adv-x="653" 
d="M344 -15q-135 0 -219.5 93.5t-84.5 282.5q0 166 89.5 260t213.5 94q106 0 180.5 -64t89.5 -174l-135 -22q-25 135 -134 135q-69 0 -117 -60t-48 -169q0 -128 46.5 -189.5t118.5 -61.5q65 0 102.5 37t37.5 104h-130v115h259v-93q0 -133 -75 -210.5t-194 -77.5z" />
    <glyph glyph-name="H" unicode="H" horiz-adv-x="670" 
d="M80 0v700h135v-282h240v282h135v-700h-135v303h-240v-303h-135z" />
    <glyph glyph-name="I" unicode="I" horiz-adv-x="305" 
d="M85 0v700h135v-700h-135z" />
    <glyph glyph-name="J" unicode="J" horiz-adv-x="459" 
d="M10 149l121 35q14 -74 63 -74q28 0 41.5 15t13.5 51v524h135v-514q0 -102 -50 -151.5t-140 -49.5q-81 0 -128 48.5t-56 115.5z" />
    <glyph glyph-name="K" unicode="K" horiz-adv-x="623" 
d="M70 0v700h135v-294h2l248 294h157l-262 -309l283 -391h-163l-211 288h-2l-52 -69v-219h-135z" />
    <glyph glyph-name="L" unicode="L" horiz-adv-x="519" 
d="M80 0v700h135v-575h289v-125h-424z" />
    <glyph glyph-name="M" unicode="M" horiz-adv-x="847" 
d="M80 0v700h139l203 -454h2l203 454h140v-700h-132v430h-2l-199 -430h-22l-199 430h-2v-430h-131z" />
    <glyph glyph-name="N" unicode="N" horiz-adv-x="689" 
d="M80 0v700h135l256 -459h2v459h136v-700h-133l-259 459h-2v-459h-135z" />
    <glyph glyph-name="O" unicode="O" horiz-adv-x="688" 
d="M344 109q72 0 118 58.5t46 188.5q0 114 -47.5 174t-116.5 60q-70 0 -117 -60t-47 -174q0 -128 46 -187.5t118 -59.5zM344 -15q-60 0 -113 21t-96.5 63.5t-69 116t-25.5 170.5q0 87 25.5 157t69 113.5t97 66t112.5 22.5t112.5 -22.5t97 -66t69 -113.5t25.5 -157
q0 -97 -25.5 -170.5t-69 -116t-96.5 -63.5t-113 -21z" />
    <glyph glyph-name="P" unicode="P" horiz-adv-x="610" 
d="M80 0v700h284q107 0 174 -60.5t67 -162.5t-64.5 -162t-176.5 -60h-149v-255h-135zM215 380h147q45 0 74 26.5t29 70.5q0 51 -29.5 74.5t-73.5 23.5h-147v-195z" />
    <glyph glyph-name="Q" unicode="Q" horiz-adv-x="691" 
d="M583 -16l-62 62q-77 -61 -177 -61q-60 0 -113 21t-96.5 63.5t-69 116t-25.5 170.5q0 87 25.5 157t69 113.5t97 66t112.5 22.5t112.5 -22.5t97 -66t69 -113.5t25.5 -157q0 -144 -63 -239l66 -65zM290 276l68 68l131 -131q19 55 19 143q0 114 -47.5 174t-116.5 60
q-70 0 -117 -60t-47 -174q0 -128 46 -187.5t118 -59.5q56 0 90 23z" />
    <glyph glyph-name="R" unicode="R" horiz-adv-x="636" 
d="M80 0v700h284q108 0 174.5 -60.5t66.5 -162.5q0 -76 -39.5 -129t-108.5 -75l149 -273h-146l-141 260h-104v-260h-135zM215 377h138q115 0 115 100q0 101 -115 101h-138v-201z" />
    <glyph glyph-name="S" unicode="S" horiz-adv-x="598" 
d="M35 234l142 31q13 -82 42.5 -118.5t96.5 -36.5q57 0 91 20.5t34 60.5q0 42 -32.5 64.5t-148.5 58.5q-109 34 -154.5 82.5t-45.5 119.5q0 82 63.5 140.5t172.5 58.5q99 0 170.5 -48t89.5 -143l-131 -33q-31 99 -129 99q-52 0 -77.5 -20t-25.5 -53q0 -31 29 -47.5
t149 -57.5q116 -40 159 -86.5t43 -125.5q0 -93 -70 -154t-187 -61q-119 0 -192.5 62.5t-88.5 186.5z" />
    <glyph glyph-name="T" unicode="T" horiz-adv-x="565" 
d="M215 0v575h-205v125h545v-125h-205v-575h-135z" />
    <glyph glyph-name="U" unicode="U" horiz-adv-x="657" 
d="M65 228v472h135v-466q0 -57 32.5 -90.5t95.5 -33.5t96 33t33 89v468h135v-472q0 -118 -72 -180.5t-192 -62.5t-191.5 62.5t-71.5 180.5z" />
    <glyph glyph-name="V" unicode="V" horiz-adv-x="636" 
d="M258 0l-253 700h142l173 -497h3l168 497h140l-250 -700h-123z" />
    <glyph glyph-name="W" unicode="W" horiz-adv-x="907" 
d="M166 0l-136 700h137l90 -476h3l161 476h68l161 -476h3l90 476h134l-136 -700h-140l-144 435h-6l-145 -435h-140z" />
    <glyph glyph-name="X" unicode="X" horiz-adv-x="611" 
d="M10 0l219 377l-189 323h154l126 -241h2l128 241h149l-203 -349l205 -351h-154l-141 269h-2l-145 -269h-149z" />
    <glyph glyph-name="Y" unicode="Y" horiz-adv-x="592" 
d="M229 0v295l-229 405h145l150 -287h2l150 287h145l-229 -405v-295h-134z" />
    <glyph glyph-name="Z" unicode="Z" horiz-adv-x="586" 
d="M40 0v127l338 441v2h-324v130h492v-127l-340 -441v-2h340v-130h-506z" />
    <glyph glyph-name="bracketleft" unicode="[" horiz-adv-x="357" 
d="M70 -182v912h257v-85h-167v-742h167v-85h-257z" />
    <glyph glyph-name="backslash" unicode="\" horiz-adv-x="451" 
d="M365 -47l-360 758l81 37l360 -760z" />
    <glyph glyph-name="bracketright" unicode="]" horiz-adv-x="357" 
d="M327 730v-912h-257v85h167v742h-167v85h257z" />
    <glyph glyph-name="asciicircum" unicode="^" horiz-adv-x="560" 
d="M60 325l173 375h94l173 -375h-101l-119 272l-119 -272h-101z" />
    <glyph glyph-name="underscore" unicode="_" horiz-adv-x="602" 
d="M50 -160v90h502v-90h-502z" />
    <glyph glyph-name="grave" unicode="`" horiz-adv-x="299" 
d="M150 595l-110 125h138l81 -125h-109z" />
    <glyph glyph-name="a" unicode="a" horiz-adv-x="541" 
d="M372 0v51h-2l-5 -7.5t-15 -15.5t-27 -20t-41 -16t-56 -7q-96 0 -143.5 45.5t-47.5 111.5q0 69 41 105t139 60q91 22 114 35t23 37t-22.5 40t-67.5 16q-53 0 -76 -23.5t-36 -63.5l-108 45q19 67 74 109.5t144 42.5q97 0 159 -51t62 -158v-336h-109zM241 217
q-50 -12 -65.5 -28.5t-15.5 -37.5q0 -54 78 -54q59 0 88.5 22.5t29.5 55.5v92h-2q-4 -8 -8.5 -12.5t-30.5 -15t-74 -22.5z" />
    <glyph glyph-name="b" unicode="b" horiz-adv-x="599" 
d="M200 314v-97q0 -48 30.5 -81.5t83.5 -33.5q57 0 88.5 41.5t31.5 121.5q0 81 -31.5 122t-88.5 41q-53 0 -83.5 -33t-30.5 -81zM70 0v730h130v-251h2l5 7.5t15.5 15.5t27 20t38 16t49.5 7q98 0 162.5 -77.5t64.5 -202.5q0 -128 -62.5 -204t-167.5 -76q-43 0 -78 16.5
t-48 32.5l-14 17h-2v-51h-122z" />
    <glyph glyph-name="c" unicode="c" horiz-adv-x="541" 
d="M388 214l123 -32q-18 -95 -78 -146t-151 -51q-108 0 -177.5 74t-69.5 206q0 131 71.5 205.5t176.5 74.5q89 0 149 -52t74 -139l-121 -23q-19 97 -102 97q-55 0 -87.5 -41.5t-32.5 -121.5t32 -121.5t88 -41.5q88 0 105 112z" />
    <glyph glyph-name="d" unicode="d" horiz-adv-x="599" 
d="M399 217v97q0 48 -30.5 81t-83.5 33q-57 0 -88.5 -41t-31.5 -122q0 -80 31.5 -121.5t88.5 -41.5q53 0 83.5 33.5t30.5 81.5zM407 0v51h-2q-5 -7 -14.5 -18t-46 -29.5t-79.5 -18.5q-105 0 -167.5 76t-62.5 204q0 129 68 204.5t160 75.5q42 0 75.5 -16.5t45.5 -32.5l13 -17
h2v251h130v-730h-122z" />
    <glyph glyph-name="e" unicode="e" horiz-adv-x="558" 
d="M414 183l91 -80q-81 -118 -219 -118q-111 0 -181 76.5t-70 203.5t69.5 203.5t175.5 76.5t174.5 -76.5t68.5 -203.5v-39h-356q3 -61 33.5 -93.5t83.5 -32.5q45 0 74.5 22.5t55.5 60.5zM167 323h230q-5 51 -35 79.5t-82 28.5q-48 0 -78.5 -31t-34.5 -77z" />
    <glyph glyph-name="f" unicode="f" horiz-adv-x="357" 
d="M97 0v420h-82v110h85v75q0 68 35.5 96.5t103.5 28.5h104v-115h-77q-24 0 -33.5 -9.5t-9.5 -32.5v-43h134v-110h-130v-420h-130z" />
    <glyph glyph-name="g" unicode="g" horiz-adv-x="604" 
d="M409 211v109q0 45 -31 76.5t-83 31.5q-58 0 -94 -42t-36 -121t36.5 -121t93.5 -42q52 0 83 31.5t31 77.5zM73 -108l97 67q23 -45 52 -65.5t75 -20.5q51 0 81.5 26.5t30.5 84.5v67h-2q-15 -27 -52 -46.5t-80 -19.5q-102 0 -171 74.5t-69 205.5q0 129 71 204.5t167 75.5
q91 0 140 -66h2v51h124v-530q0 -116 -67.5 -178t-174.5 -62q-83 0 -140.5 36t-83.5 96z" />
    <glyph glyph-name="h" unicode="h" horiz-adv-x="581" 
d="M70 0v730h130v-251h2q16 26 53 46t76 20q85 0 135 -52t50 -140v-353h-130v324q0 44 -23.5 72.5t-70.5 28.5q-45 0 -68.5 -25.5t-23.5 -66.5v-333h-130z" />
    <glyph glyph-name="i" unicode="i" horiz-adv-x="270" 
d="M70 0v530h130v-530h-130zM70 607v123h130v-123h-130z" />
    <glyph glyph-name="j" unicode="j" horiz-adv-x="272" 
d="M10 -195v135h24q38 0 38 44v546h130v-582q0 -143 -137 -143h-55zM72 607v123h130v-123h-130z" />
    <glyph glyph-name="k" unicode="k" horiz-adv-x="575" 
d="M70 0v730h130v-419h2l193 219h163l-191 -215l208 -315h-144l-162 242h-2l-67 -76v-166h-130z" />
    <glyph glyph-name="l" unicode="l" horiz-adv-x="275" 
d="M70 0v730h135v-730h-135z" />
    <glyph glyph-name="m" unicode="m" horiz-adv-x="865" 
d="M70 0v530h119v-51h2q18 28 52.5 47t75.5 19q42 0 79 -19.5t56 -50.5h2q20 31 57 50.5t81 19.5q95 0 150.5 -50t55.5 -132v-363h-119v336q0 39 -22.5 64t-69.5 25q-44 0 -67.5 -23t-23.5 -59v-343h-119v336q0 38 -24 63.5t-68 25.5q-45 0 -68 -23t-23 -59v-343h-126z" />
    <glyph glyph-name="n" unicode="n" horiz-adv-x="590" 
d="M70 0v530h125v-51h2q22 28 60 47t80 19q88 0 138 -52.5t50 -145.5v-347h-130v315q0 55 -21 82.5t-72 27.5q-48 0 -75 -27.5t-27 -73.5v-324h-130z" />
    <glyph glyph-name="o" unicode="o" horiz-adv-x="566" 
d="M283 102q56 0 88 42.5t32 120.5t-32.5 120.5t-87.5 42.5t-87.5 -42t-32.5 -121t32 -121t88 -42zM283 -15q-108 0 -178 74t-70 206q0 130 72 205t176 75t176 -75t72 -205q0 -132 -70 -206t-178 -74z" />
    <glyph glyph-name="p" unicode="p" horiz-adv-x="609" 
d="M200 320v-109q0 -46 31 -77.5t83 -31.5q57 0 93.5 42t36.5 121t-36 121t-94 42q-52 0 -83 -31.5t-31 -76.5zM70 -225v755h124v-51h2l5 7.5t15.5 15.5t27.5 20t40.5 16t54.5 7q94 0 164.5 -75.5t70.5 -204.5q0 -130 -68 -205t-165 -75q-29 0 -53.5 7t-39.5 16.5t-26 19
t-16 16.5l-4 7h-2v-276h-130z" />
    <glyph glyph-name="q" unicode="q" horiz-adv-x="609" 
d="M409 211v109q0 45 -31 76.5t-83 31.5q-58 0 -94 -42t-36 -121t36.5 -121t93.5 -42q52 0 83 31.5t31 77.5zM409 -225v276h-2l-5 -7.5t-14.5 -15.5t-26 -20t-39.5 -16t-54 -7q-97 0 -165 75t-68 205q0 129 70.5 204.5t164.5 75.5q29 0 54.5 -7t41 -16.5t27 -19t15.5 -16.5
l5 -7h2v51h124v-755h-130z" />
    <glyph glyph-name="r" unicode="r" horiz-adv-x="367" 
d="M70 0v530h123v-56h2q15 30 44.5 48t64.5 18q25 0 48 -10l-20 -126q-22 8 -41 8q-91 0 -91 -121v-291h-130z" />
    <glyph glyph-name="s" unicode="s" horiz-adv-x="517" 
d="M30 175l117 30q14 -111 119 -111q48 0 76.5 15.5t28.5 43.5q0 23 -22 34.5t-92 31.5q-19 5 -29 8q-92 26 -135 61.5t-43 94.5q0 66 53.5 114t146.5 48q178 0 223 -156l-108 -33q-14 38 -39.5 60t-74.5 22q-38 0 -60.5 -14.5t-22.5 -34.5q0 -22 26.5 -34.5t132.5 -42.5
q93 -25 126.5 -63.5t33.5 -98.5q0 -64 -55.5 -114.5t-160.5 -50.5q-110 0 -169.5 55.5t-71.5 134.5z" />
    <glyph glyph-name="t" unicode="t" horiz-adv-x="387" 
d="M97 189v231h-82v110h85v130h123v-130h134v-110h-132v-219q0 -42 14 -59t57 -17h43v-125h-55q-107 0 -147 45t-40 144z" />
    <glyph glyph-name="u" unicode="u" horiz-adv-x="580" 
d="M65 188v342h130v-328q0 -50 19 -71t61 -21q47 0 76 24.5t29 77.5v318h130v-530h-124v51h-2q-49 -66 -138 -66q-92 0 -136.5 55t-44.5 148z" />
    <glyph glyph-name="v" unicode="v" horiz-adv-x="554" 
d="M222 0l-212 530h135l132 -341h2l132 341h133l-212 -530h-110z" />
    <glyph glyph-name="w" unicode="w" horiz-adv-x="812" 
d="M147 0l-117 530h127l70 -354h3l118 354h118l109 -353h2l80 353h125l-127 -530h-128l-121 381h-2l-131 -381h-126z" />
    <glyph glyph-name="x" unicode="x" horiz-adv-x="552" 
d="M10 0l184 274l-173 256h135l119 -178h2l119 178h135l-173 -256l184 -274h-139l-126 190h-2l-126 -190h-139z" />
    <glyph glyph-name="y" unicode="y" horiz-adv-x="550" 
d="M111 -225l106 251l-212 504h132l137 -359h2l137 359h132l-305 -755h-129z" />
    <glyph glyph-name="z" unicode="z" horiz-adv-x="538" 
d="M40 0v109l282 299v2h-271v120h437v-107l-276 -296v-2h286v-125h-458z" />
    <glyph glyph-name="braceleft" unicode="{" horiz-adv-x="387" 
d="M121 -18v200q0 32 -12 45t-41 13h-28v89h28q29 0 41 14.5t12 46.5v176q0 93 40.5 128.5t124.5 35.5h51v-90h-65q-33 0 -47 -21t-14 -70v-162q0 -28 -9 -49.5t-22.5 -32t-22.5 -15t-16 -5.5q6 -2 14.5 -6.5t22.5 -15t23.5 -31.5t9.5 -48v-185q0 -50 14.5 -70.5t51.5 -20.5
h60v-90h-51q-84 0 -124.5 35.5t-40.5 128.5z" />
    <glyph glyph-name="bar" unicode="|" horiz-adv-x="265" 
d="M90 -300v1075h85v-1075h-85z" />
    <glyph glyph-name="braceright" unicode="}" horiz-adv-x="387" 
d="M256 182v-200q0 -93 -40.5 -128.5t-124.5 -35.5h-51v90h60q37 0 51.5 20.5t14.5 70.5v185q0 27 9 48t23 31.5t22.5 15t14.5 6.5q-6 1 -15 5.5t-22.5 15t-22.5 32t-9 49.5v162q0 49 -14 70t-47 21h-65v90h51q84 0 124.5 -35.5t40.5 -128.5v-176q0 -32 12 -46.5t41 -14.5
h28v-89h-28q-29 0 -41 -13t-12 -45z" />
    <glyph glyph-name="asciitilde" unicode="~" horiz-adv-x="614" 
d="M190 363q-46 0 -69 -89l-81 22q7 42 24 77.5t51 62t80 26.5q42 0 84.5 -22t79.5 -43.5t64 -21.5q47 0 70 89l81 -22q-7 -42 -24 -77.5t-51 -62t-80 -26.5q-42 0 -85 22t-80 43.5t-64 21.5z" />
    <glyph glyph-name="nbspace" unicode="&#xa0;" horiz-adv-x="200" 
 />
    <glyph glyph-name="exclamdown" unicode="&#xa1;" horiz-adv-x="329" 
d="M96 -170v469h135v-469h-135zM90 388v142h149v-142h-149z" />
    <glyph glyph-name="cent" unicode="&#xa2;" horiz-adv-x="556" 
d="M398 214l123 -32q-17 -91 -73.5 -141.5t-141.5 -54.5v-96h-35v96q-100 7 -163 80.5t-63 198.5q0 124 64 197.5t162 81.5v87h35v-86q84 -4 140 -55.5t70 -135.5l-121 -23q-17 89 -89 96v-324q75 9 92 111zM173 265q0 -146 98 -162v323q-46 -8 -72 -48.5t-26 -112.5z" />
    <glyph glyph-name="sterling" unicode="&#xa3;" horiz-adv-x="641" 
d="M80 0v126h31q20 0 33.5 11t13.5 35v130h-78v90h78v102q0 114 56 167.5t151 53.5q189 0 216 -201l-124 -25q-10 55 -28.5 80.5t-57.5 25.5q-78 0 -78 -94v-109h172v-90h-172v-176h286v-126h-499z" />
    <glyph glyph-name="currency" unicode="&#xa4;" horiz-adv-x="649" 
d="M70 114l65 65q-47 64 -47 150q0 83 47 149l-65 65l40 40l63 -64q67 57 151 57q88 0 153 -55l62 62l40 -40l-64 -64q46 -67 46 -150q0 -87 -47 -151l65 -64l-40 -40l-64 63q-64 -51 -151 -51q-89 0 -150 52l-64 -64zM325 204q46 0 76 28.5t30 95.5q0 128 -106 128
q-108 0 -108 -128q0 -124 108 -124z" />
    <glyph glyph-name="yen" unicode="&#xa5;" horiz-adv-x="674" 
d="M68 117v105h200v77h-200v105h138l-166 296h148l146 -277h2l149 277h149l-169 -296h138v-105h-200v-77h200v-105h-200v-117h-135v117h-200z" />
    <glyph glyph-name="brokenbar" unicode="&#xa6;" horiz-adv-x="285" 
d="M90 321v327h105v-327h-105zM90 -131v327h105v-327h-105z" />
    <glyph glyph-name="section" unicode="&#xa7;" horiz-adv-x="651" 
d="M120 21l115 21q13 -93 88 -93q39 0 59.5 20t20.5 45q0 28 -17 46t-55 34l-176 71q-105 42 -105 146q0 39 25 76.5t64 56.5q-23 33 -23 86q0 83 57 134t146 51t144 -49.5t68 -142.5l-115 -21q-13 93 -88 93q-39 0 -59.5 -20t-20.5 -45q0 -28 17 -46t55 -34l176 -71
q105 -42 105 -146q0 -39 -25 -76.5t-64 -56.5q23 -33 23 -86q0 -83 -57 -134t-146 -51t-144 49.5t-68 142.5zM248 249l134 -51q38 -15 50 -27q34 25 34 61q0 39 -63 63l-134 51q-38 15 -50 27q-34 -25 -34 -61q0 -39 63 -63z" />
    <glyph glyph-name="dieresis" unicode="&#xa8;" horiz-adv-x="421" 
d="M50 595v115h122v-115h-122zM249 595v115h122v-115h-122z" />
    <glyph glyph-name="copyright" unicode="&#xa9;" horiz-adv-x="697" 
d="M348 45q-131 0 -219.5 89t-88.5 220t88.5 219.5t219.5 88.5t220 -88.5t89 -219.5t-89 -220t-220 -89zM348 112q99 0 167.5 70.5t68.5 171.5q0 99 -68.5 169t-167.5 70t-167 -69.5t-68 -169.5q0 -101 68 -171.5t167 -70.5zM411 314l83 -19q-10 -64 -47.5 -99t-93.5 -35
q-69 0 -114 50.5t-45 140.5q0 89 45.5 140t113.5 51q55 0 92 -35.5t46 -95.5l-82 -15q-12 66 -56 66q-32 0 -50 -29t-18 -82q0 -55 19 -83t49 -28q46 0 58 73z" />
    <glyph glyph-name="ordfeminine" unicode="&#xaa;" horiz-adv-x="342" 
d="M233 384v30h-1q-2 -4 -7.5 -10.5t-27.5 -17.5t-50 -11q-56 0 -84 27t-28 66q0 41 23.5 61.5t81.5 35.5q52 13 64.5 20.5t12.5 21.5q0 31 -47 31q-48 0 -64 -49l-67 27q11 38 43.5 63.5t84.5 25.5q59 0 94.5 -30t35.5 -93v-198h-64zM153 511q-46 -12 -46 -35q0 -30 45 -30
q34 0 50 13t16 32v48q-8 -13 -65 -28z" />
    <glyph glyph-name="guillemotleft" unicode="&#xab;" horiz-adv-x="581" 
d="M191 93l-111 188l108 186h116l-109 -186l112 -188h-116zM395 93l-111 188l108 186h116l-109 -186l112 -188h-116z" />
    <glyph glyph-name="logicalnot" unicode="&#xac;" horiz-adv-x="597" 
d="M50 331v120h477v-278h-125v158h-352z" />
    <glyph glyph-name="registered" unicode="&#xae;" horiz-adv-x="432" 
d="M215 354q-74 0 -124.5 50.5t-50.5 124.5q0 76 50.5 126.5t124.5 50.5q76 0 126.5 -50.5t50.5 -126.5q0 -74 -50.5 -124.5t-126.5 -50.5zM215 386q61 0 102 41.5t41 101.5q0 61 -41 102.5t-102 41.5q-60 0 -100.5 -41.5t-40.5 -102.5q0 -60 40.5 -101.5t100.5 -41.5z
M152 425v209h73q35 0 54 -17.5t19 -48.5q0 -46 -45 -63l45 -80h-45l-42 76h-17v-76h-42zM194 540h27q34 0 34 28q0 29 -34 29h-27v-57z" />
    <glyph glyph-name="macron" unicode="&#xaf;" horiz-adv-x="388" 
d="M50 620v80h288v-80h-288z" />
    <glyph glyph-name="degree" unicode="&#xb0;" horiz-adv-x="385" 
d="M192 476q-64 0 -105.5 43.5t-41.5 108.5q0 64 42.5 109t104.5 45q64 0 106 -44.5t42 -109.5q0 -66 -41.5 -109t-106.5 -43zM192 557q61 0 61 71q0 73 -61 73t-61 -73q0 -71 61 -71z" />
    <glyph glyph-name="plusminus" unicode="&#xb1;" horiz-adv-x="583" 
d="M40 418v100h199v152h105v-152h199v-100h-199v-173h-105v173h-199zM60 81v100h464v-100h-464z" />
    <glyph glyph-name="twosuperior" unicode="&#xb2;" horiz-adv-x="346" 
d="M26 473v67q0 55 29 87q26 30 94 62q59 29 72 43q16 17 16 42q0 51 -61 51q-60 0 -71 -79l-85 11q5 70 46.5 109t112.5 39q60 0 101.5 -36t41.5 -101q0 -48 -29.5 -78.5t-80.5 -54.5q-73 -36 -82 -51q-6 -9 -6 -19h202v-92h-300z" />
    <glyph glyph-name="threesuperior" unicode="&#xb3;" horiz-adv-x="339" 
d="M5 613l86 20q12 -85 80 -85q70 0 70 56q0 55 -73 55h-28v69h27q52 0 52 46q0 51 -54 51q-48 0 -57 -59l-83 16q6 58 44.5 90.5t99.5 32.5q58 0 95.5 -31.5t37.5 -84.5q0 -34 -16 -55t-33 -29v-2q24 -7 47.5 -33t23.5 -74q0 -55 -39.5 -91.5t-113.5 -36.5q-69 0 -113 37
t-53 108z" />
    <glyph glyph-name="acute" unicode="&#xb4;" horiz-adv-x="299" 
d="M40 595l81 125h138l-110 -125h-109z" />
    <glyph glyph-name="mu" unicode="&#xb5;" horiz-adv-x="585" 
d="M75 -225v755h130v-313q0 -107 94 -107q91 0 91 94v326h130v-530h-126v51h-2q-32 -66 -107 -66q-55 0 -82 29h-2v-239h-126z" />
    <glyph glyph-name="paragraph" unicode="&#xb6;" horiz-adv-x="548" 
d="M161 -136v444q-68 2 -114.5 48t-46.5 118q0 77 47 121.5t118 44.5h313v-776h-95v666h-127v-666h-95z" />
    <glyph glyph-name="periodcentered" unicode="&#xb7;" horiz-adv-x="309" 
d="M80 293v142h149v-142h-149z" />
    <glyph glyph-name="cedilla" unicode="&#xb8;" horiz-adv-x="263" 
d="M11 -176l43 52q33 -32 73 -32q22 0 34.5 9t12.5 24q0 14 -12.5 22t-29.5 8q-14 0 -25.5 -4t-16.5 -8l-4 -4l-53 30l47 79h59l-37 -58l1 -1q22 15 55 15q34 0 61 -21.5t27 -59.5q0 -45 -32 -71.5t-81 -26.5q-77 0 -122 47z" />
    <glyph glyph-name="onesuperior" unicode="&#xb9;" horiz-adv-x="260" 
d="M102 473v325l-92 -57v98l98 61h82v-427h-88z" />
    <glyph glyph-name="ordmasculine" unicode="&#xba;" horiz-adv-x="343" 
d="M171 452q31 0 48 23t17 66q0 41 -18 64.5t-47 23.5t-47 -23t-18 -65q0 -89 65 -89zM171 375q-64 0 -105 44t-41 122q0 77 42 121t104 44t104.5 -44t42.5 -121q0 -78 -41.5 -122t-105.5 -44z" />
    <glyph glyph-name="guillemotright" unicode="&#xbb;" horiz-adv-x="581" 
d="M501 281l-111 -188h-116l112 188l-109 186h116zM297 281l-111 -188h-116l112 188l-109 186h116z" />
    <glyph glyph-name="onequarter" unicode="&#xbc;" horiz-adv-x="818" 
d="M116 -34l489 815l72 -45l-488 -814zM107 273v325l-92 -57v98l98 61h82v-427h-88zM460 78v82l162 267h125v-267h46v-82h-46v-78h-90v78h-197zM544 160h114v186h-2z" />
    <glyph glyph-name="onehalf" unicode="&#xbd;" horiz-adv-x="869" 
d="M116 -35l489 815l72 -45l-488 -814zM107 273v325l-92 -57v98l98 61h82v-427h-88zM514 0v67q0 55 29 87q26 30 94 62q59 29 72 43q16 17 16 42q0 51 -61 51q-60 0 -71 -79l-85 11q5 70 46.5 109t112.5 39q60 0 101.5 -36t41.5 -101q0 -48 -29.5 -78.5t-80.5 -54.5
q-73 -36 -82 -51q-6 -9 -6 -19h202v-92h-300z" />
    <glyph glyph-name="threequarters" unicode="&#xbe;" horiz-adv-x="887" 
d="M198 -34l489 815l72 -45l-488 -814zM25 413l86 20q12 -85 80 -85q70 0 70 56q0 55 -73 55h-28v69h27q52 0 52 46q0 51 -54 51q-48 0 -57 -59l-83 16q6 58 44.5 90.5t99.5 32.5q58 0 95.5 -31.5t37.5 -84.5q0 -34 -16 -55t-33 -29v-2q24 -7 47.5 -33t23.5 -74
q0 -55 -39.5 -91.5t-113.5 -36.5q-69 0 -113 37t-53 108zM529 78v82l162 267h125v-267h46v-82h-46v-78h-90v78h-197zM613 160h114v186h-2z" />
    <glyph glyph-name="questiondown" unicode="&#xbf;" horiz-adv-x="549" 
d="M347 303v-31q0 -30 -8 -53t-25 -41t-30.5 -28t-36.5 -24q-30 -19 -42 -27.5t-26 -29.5t-14 -48q0 -34 27.5 -57.5t80.5 -23.5q116 0 124 133l132 -11q-3 -112 -68.5 -179.5t-191.5 -67.5q-104 0 -171.5 56t-67.5 140q0 35 8.5 62.5t25.5 47.5t32.5 32t38.5 26q3 2 15 9
t15.5 9t13.5 8.5t13.5 10t11 10t10 11.5l6 12t5 14.5t1.5 15.5v24h121zM355 530v-142h-149v142h149z" />
    <glyph glyph-name="Agrave" unicode="&#xc0;" horiz-adv-x="630" 
d="M486 0l-40 115h-267l-40 -115h-134l253 700h115l252 -700h-139zM312 500l-95 -273h191l-94 273h-2zM258 765l-110 125h138l81 -125h-109z" />
    <glyph glyph-name="Aacute" unicode="&#xc1;" horiz-adv-x="630" 
d="M486 0l-40 115h-267l-40 -115h-134l253 700h115l252 -700h-139zM312 500l-95 -273h191l-94 273h-2zM264 765l81 125h138l-110 -125h-109z" />
    <glyph glyph-name="Acircumflex" unicode="&#xc2;" horiz-adv-x="630" 
d="M486 0l-40 115h-267l-40 -115h-134l253 700h115l252 -700h-139zM312 500l-95 -273h191l-94 273h-2zM180 800l67 86h135l68 -86l-68 -53l-67 86l-69 -86z" />
    <glyph glyph-name="Atilde" unicode="&#xc3;" horiz-adv-x="630" 
d="M486 0l-40 115h-267l-40 -115h-134l253 700h115l252 -700h-139zM312 500l-95 -273h191l-94 273h-2zM218 765h-66q17 110 101 110q33 0 77 -20q36 -19 47 -19q29 0 37 34h66q-17 -110 -101 -110q-33 0 -77 20q-36 19 -47 19q-29 0 -37 -34z" />
    <glyph glyph-name="Adieresis" unicode="&#xc4;" horiz-adv-x="630" 
d="M486 0l-40 115h-267l-40 -115h-134l253 700h115l252 -700h-139zM312 500l-95 -273h191l-94 273h-2zM155 765v115h122v-115h-122zM354 765v115h122v-115h-122z" />
    <glyph glyph-name="Aring" unicode="&#xc5;" horiz-adv-x="630" 
d="M486 0l-40 115h-267l-40 -115h-134l251 694q-46 30 -46 91q0 45 30 76.5t74 31.5q46 0 75.5 -31t29.5 -77q0 -59 -44 -90l250 -695h-139zM312 500l-95 -273h191l-94 273h-2zM314 735q16 0 29 13.5t13 37.5t-12.5 36.5t-29.5 12.5q-16 0 -28 -12.5t-12 -36.5t12 -37.5
t28 -13.5z" />
    <glyph glyph-name="AE" unicode="&#xc6;" horiz-adv-x="871" 
d="M484 0h-71v122h-222l-47 -122h-139l263 700h548v-125h-268v-157h240v-117h-240v-176h268v-125h-331l-1 3v-3zM234 242h179v333h-59z" />
    <glyph glyph-name="Ccedilla" unicode="&#xc7;" horiz-adv-x="656" 
d="M251 -176l43 52q33 -32 73 -32q22 0 34.5 9t12.5 24q0 14 -12.5 22t-29.5 8q-14 0 -25.5 -4t-16.5 -8l-4 -4l-53 30l39 66q-123 10 -197.5 103t-74.5 271q0 166 89.5 260t213.5 94q108 0 183.5 -67.5t87.5 -181.5l-134 -21q-9 64 -42 104.5t-94 40.5q-69 0 -117 -60
t-48 -169q0 -128 46.5 -189.5t118.5 -61.5q118 0 137 168l140 -31q-16 -115 -81 -184t-170 -77l-28 -44l1 -1q22 15 55 15q34 0 61 -21.5t27 -59.5q0 -45 -32 -71.5t-81 -26.5q-77 0 -122 47z" />
    <glyph glyph-name="Egrave" unicode="&#xc8;" horiz-adv-x="578" 
d="M80 0v700h443v-125h-308v-157h280v-120h-280v-173h308v-125h-443zM262 765l-110 125h138l81 -125h-109z" />
    <glyph glyph-name="Eacute" unicode="&#xc9;" horiz-adv-x="578" 
d="M80 0v700h443v-125h-308v-157h280v-120h-280v-173h308v-125h-443zM232 765l81 125h138l-110 -125h-109z" />
    <glyph glyph-name="Ecircumflex" unicode="&#xca;" horiz-adv-x="578" 
d="M80 0v700h443v-125h-308v-157h280v-120h-280v-173h308v-125h-443zM172 800l67 86h135l68 -86l-68 -53l-67 86l-69 -86z" />
    <glyph glyph-name="Edieresis" unicode="&#xcb;" horiz-adv-x="578" 
d="M80 0v700h443v-125h-308v-157h280v-120h-280v-173h308v-125h-443zM141 765v115h122v-115h-122zM340 765v115h122v-115h-122z" />
    <glyph glyph-name="Igrave" unicode="&#xcc;" horiz-adv-x="305" 
d="M85 0v700h135v-700h-135zM103 765l-110 125h138l81 -125h-109z" />
    <glyph glyph-name="Iacute" unicode="&#xcd;" horiz-adv-x="305" 
d="M85 0v700h135v-700h-135zM90 765l81 125h138l-110 -125h-109z" />
    <glyph glyph-name="Icircumflex" unicode="&#xce;" horiz-adv-x="305" 
d="M85 0v700h135v-700h-135zM17 800l67 86h135l68 -86l-68 -53l-67 86l-69 -86z" />
    <glyph glyph-name="Idieresis" unicode="&#xcf;" horiz-adv-x="305" 
d="M85 0v700h135v-700h-135zM-8 765v115h122v-115h-122zM191 765v115h122v-115h-122z" />
    <glyph glyph-name="Eth" unicode="&#xd0;" horiz-adv-x="661" 
d="M89 0v298h-69v110h69v292h234q60 0 113 -21t96 -62t68.5 -109.5t25.5 -156.5q0 -96 -26 -167t-71 -109.5t-97.5 -56.5t-114.5 -18h-228zM224 125h93q36 0 63 8.5t51 31.5t37 69.5t13 116.5q0 117 -43.5 170.5t-114.5 53.5h-99v-167h134v-110h-134v-173z" />
    <glyph glyph-name="Ntilde" unicode="&#xd1;" horiz-adv-x="689" 
d="M80 0v700h135l256 -459h2v459h136v-700h-133l-259 459h-2v-459h-135zM264 765h-66q17 110 101 110q33 0 77 -20q36 -19 47 -19q29 0 37 34h66q-17 -110 -101 -110q-33 0 -77 20q-36 19 -47 19q-29 0 -37 -34z" />
    <glyph glyph-name="Ograve" unicode="&#xd2;" horiz-adv-x="688" 
d="M344 109q72 0 118 58.5t46 188.5q0 114 -47.5 174t-116.5 60q-70 0 -117 -60t-47 -174q0 -128 46 -187.5t118 -59.5zM344 -15q-60 0 -113 21t-96.5 63.5t-69 116t-25.5 170.5q0 87 25.5 157t69 113.5t97 66t112.5 22.5t112.5 -22.5t97 -66t69 -113.5t25.5 -157
q0 -97 -25.5 -170.5t-69 -116t-96.5 -63.5t-113 -21zM295 765l-110 125h138l81 -125h-109z" />
    <glyph glyph-name="Oacute" unicode="&#xd3;" horiz-adv-x="688" 
d="M344 109q72 0 118 58.5t46 188.5q0 114 -47.5 174t-116.5 60q-70 0 -117 -60t-47 -174q0 -128 46 -187.5t118 -59.5zM344 -15q-60 0 -113 21t-96.5 63.5t-69 116t-25.5 170.5q0 87 25.5 157t69 113.5t97 66t112.5 22.5t112.5 -22.5t97 -66t69 -113.5t25.5 -157
q0 -97 -25.5 -170.5t-69 -116t-96.5 -63.5t-113 -21zM285 765l81 125h138l-110 -125h-109z" />
    <glyph glyph-name="Ocircumflex" unicode="&#xd4;" horiz-adv-x="688" 
d="M344 109q72 0 118 58.5t46 188.5q0 114 -47.5 174t-116.5 60q-70 0 -117 -60t-47 -174q0 -128 46 -187.5t118 -59.5zM344 -15q-60 0 -113 21t-96.5 63.5t-69 116t-25.5 170.5q0 87 25.5 157t69 113.5t97 66t112.5 22.5t112.5 -22.5t97 -66t69 -113.5t25.5 -157
q0 -97 -25.5 -170.5t-69 -116t-96.5 -63.5t-113 -21zM215 800l67 86h135l68 -86l-68 -53l-67 86l-69 -86z" />
    <glyph glyph-name="Otilde" unicode="&#xd5;" horiz-adv-x="688" 
d="M344 109q72 0 118 58.5t46 188.5q0 114 -47.5 174t-116.5 60q-70 0 -117 -60t-47 -174q0 -128 46 -187.5t118 -59.5zM344 -15q-60 0 -113 21t-96.5 63.5t-69 116t-25.5 170.5q0 87 25.5 157t69 113.5t97 66t112.5 22.5t112.5 -22.5t97 -66t69 -113.5t25.5 -157
q0 -97 -25.5 -170.5t-69 -116t-96.5 -63.5t-113 -21zM256 765h-66q17 110 101 110q33 0 77 -20q36 -19 47 -19q29 0 37 34h66q-17 -110 -101 -110q-33 0 -77 20q-36 19 -47 19q-29 0 -37 -34z" />
    <glyph glyph-name="Odieresis" unicode="&#xd6;" horiz-adv-x="688" 
d="M344 109q72 0 118 58.5t46 188.5q0 114 -47.5 174t-116.5 60q-70 0 -117 -60t-47 -174q0 -128 46 -187.5t118 -59.5zM344 -15q-60 0 -113 21t-96.5 63.5t-69 116t-25.5 170.5q0 87 25.5 157t69 113.5t97 66t112.5 22.5t112.5 -22.5t97 -66t69 -113.5t25.5 -157
q0 -97 -25.5 -170.5t-69 -116t-96.5 -63.5t-113 -21zM184 765v115h122v-115h-122zM383 765v115h122v-115h-122z" />
    <glyph glyph-name="multiply" unicode="&#xd7;" horiz-adv-x="539" 
d="M40 180l158 158l-148 148l72 72l148 -148l147 147l72 -72l-147 -147l157 -157l-72 -72l-157 157l-158 -158z" />
    <glyph glyph-name="Oslash" unicode="&#xd8;" horiz-adv-x="688" 
d="M118 18l24 43q-102 99 -102 295q0 87 25.5 157t69 113.5t97 66t112.5 22.5q80 0 147 -40l23 40l55 -34l-26 -45q105 -100 105 -280q0 -97 -25.5 -170.5t-69 -116t-96.5 -63.5t-113 -21q-82 0 -149 37l-21 -37zM472 511l-213 -376q36 -26 85 -26q72 0 118 58.5t46 188.5
q0 94 -36 155zM214 187l213 376q-37 27 -83 27q-70 0 -117 -60t-47 -174q0 -106 34 -169z" />
    <glyph glyph-name="Ugrave" unicode="&#xd9;" horiz-adv-x="657" 
d="M65 228v472h135v-466q0 -57 32.5 -90.5t95.5 -33.5t96 33t33 89v468h135v-472q0 -118 -72 -180.5t-192 -62.5t-191.5 62.5t-71.5 180.5zM286 765l-110 125h138l81 -125h-109z" />
    <glyph glyph-name="Uacute" unicode="&#xda;" horiz-adv-x="657" 
d="M65 228v472h135v-466q0 -57 32.5 -90.5t95.5 -33.5t96 33t33 89v468h135v-472q0 -118 -72 -180.5t-192 -62.5t-191.5 62.5t-71.5 180.5zM282 765l81 125h138l-110 -125h-109z" />
    <glyph glyph-name="Ucircumflex" unicode="&#xdb;" horiz-adv-x="657" 
d="M65 228v472h135v-466q0 -57 32.5 -90.5t95.5 -33.5t96 33t33 89v468h135v-472q0 -118 -72 -180.5t-192 -62.5t-191.5 62.5t-71.5 180.5zM197 800l67 86h135l68 -86l-68 -53l-67 86l-69 -86z" />
    <glyph glyph-name="Udieresis" unicode="&#xdc;" horiz-adv-x="657" 
d="M65 228v472h135v-466q0 -57 32.5 -90.5t95.5 -33.5t96 33t33 89v468h135v-472q0 -118 -72 -180.5t-192 -62.5t-191.5 62.5t-71.5 180.5zM168 765v115h122v-115h-122zM367 765v115h122v-115h-122z" />
    <glyph glyph-name="Yacute" unicode="&#xdd;" horiz-adv-x="592" 
d="M229 0v295l-229 405h145l150 -287h2l150 287h145l-229 -405v-295h-134zM252 765l81 125h138l-110 -125h-109z" />
    <glyph glyph-name="Thorn" unicode="&#xde;" horiz-adv-x="625" 
d="M80 0v700h135v-116h132q122 0 190 -56t68 -167q0 -222 -258 -222h-132v-139h-135zM215 264h147q48 0 78 25.5t30 71.5t-30 72t-78 26h-147v-195z" />
    <glyph glyph-name="germandbls" unicode="&#xdf;" horiz-adv-x="562" 
d="M60 0v495q0 103 62 161.5t157 58.5q92 0 152 -52t60 -133q0 -100 -85 -137v-2q50 -17 83 -64t33 -113q0 -104 -60.5 -159t-172.5 -55h-32v110h19q127 0 127 111q0 56 -29.5 81t-74.5 25h-42v94h20q44 0 71.5 23.5t27.5 65.5q0 41 -26 65.5t-69 24.5q-45 0 -70.5 -26.5
t-25.5 -80.5v-493h-125z" />
    <glyph glyph-name="agrave" unicode="&#xe0;" horiz-adv-x="541" 
d="M372 0v51h-2l-5 -7.5t-15 -15.5t-27 -20t-41 -16t-56 -7q-96 0 -143.5 45.5t-47.5 111.5q0 69 41 105t139 60q91 22 114 35t23 37t-22.5 40t-67.5 16q-53 0 -76 -23.5t-36 -63.5l-108 45q19 67 74 109.5t144 42.5q97 0 159 -51t62 -158v-336h-109zM241 217
q-50 -12 -65.5 -28.5t-15.5 -37.5q0 -54 78 -54q59 0 88.5 22.5t29.5 55.5v92h-2q-4 -8 -8.5 -12.5t-30.5 -15t-74 -22.5zM224 595l-110 125h138l81 -125h-109z" />
    <glyph glyph-name="aacute" unicode="&#xe1;" horiz-adv-x="541" 
d="M372 0v51h-2l-5 -7.5t-15 -15.5t-27 -20t-41 -16t-56 -7q-96 0 -143.5 45.5t-47.5 111.5q0 69 41 105t139 60q91 22 114 35t23 37t-22.5 40t-67.5 16q-53 0 -76 -23.5t-36 -63.5l-108 45q19 67 74 109.5t144 42.5q97 0 159 -51t62 -158v-336h-109zM241 217
q-50 -12 -65.5 -28.5t-15.5 -37.5q0 -54 78 -54q59 0 88.5 22.5t29.5 55.5v92h-2q-4 -8 -8.5 -12.5t-30.5 -15t-74 -22.5zM194 595l81 125h138l-110 -125h-109z" />
    <glyph glyph-name="acircumflex" unicode="&#xe2;" horiz-adv-x="541" 
d="M372 0v51h-2l-5 -7.5t-15 -15.5t-27 -20t-41 -16t-56 -7q-96 0 -143.5 45.5t-47.5 111.5q0 69 41 105t139 60q91 22 114 35t23 37t-22.5 40t-67.5 16q-53 0 -76 -23.5t-36 -63.5l-108 45q19 67 74 109.5t144 42.5q97 0 159 -51t62 -158v-336h-109zM241 217
q-50 -12 -65.5 -28.5t-15.5 -37.5q0 -54 78 -54q59 0 88.5 22.5t29.5 55.5v92h-2q-4 -8 -8.5 -12.5t-30.5 -15t-74 -22.5zM132 634l67 86h135l68 -86l-68 -53l-67 86l-69 -86z" />
    <glyph glyph-name="atilde" unicode="&#xe3;" horiz-adv-x="541" 
d="M372 0v51h-2l-5 -7.5t-15 -15.5t-27 -20t-41 -16t-56 -7q-96 0 -143.5 45.5t-47.5 111.5q0 69 41 105t139 60q91 22 114 35t23 37t-22.5 40t-67.5 16q-53 0 -76 -23.5t-36 -63.5l-108 45q19 67 74 109.5t144 42.5q97 0 159 -51t62 -158v-336h-109zM241 217
q-50 -12 -65.5 -28.5t-15.5 -37.5q0 -54 78 -54q59 0 88.5 22.5t29.5 55.5v92h-2q-4 -8 -8.5 -12.5t-30.5 -15t-74 -22.5zM170 595h-66q17 110 101 110q33 0 77 -20q36 -19 47 -19q29 0 37 34h66q-17 -110 -101 -110q-33 0 -77 20q-36 19 -47 19q-29 0 -37 -34z" />
    <glyph glyph-name="adieresis" unicode="&#xe4;" horiz-adv-x="541" 
d="M372 0v51h-2l-5 -7.5t-15 -15.5t-27 -20t-41 -16t-56 -7q-96 0 -143.5 45.5t-47.5 111.5q0 69 41 105t139 60q91 22 114 35t23 37t-22.5 40t-67.5 16q-53 0 -76 -23.5t-36 -63.5l-108 45q19 67 74 109.5t144 42.5q97 0 159 -51t62 -158v-336h-109zM241 217
q-50 -12 -65.5 -28.5t-15.5 -37.5q0 -54 78 -54q59 0 88.5 22.5t29.5 55.5v92h-2q-4 -8 -8.5 -12.5t-30.5 -15t-74 -22.5zM108 595v115h122v-115h-122zM307 595v115h122v-115h-122z" />
    <glyph glyph-name="aring" unicode="&#xe5;" horiz-adv-x="541" 
d="M372 0v51h-2l-5 -7.5t-15 -15.5t-27 -20t-41 -16t-56 -7q-96 0 -143.5 45.5t-47.5 111.5q0 69 41 105t139 60q91 22 114 35t23 37t-22.5 40t-67.5 16q-53 0 -76 -23.5t-36 -63.5l-108 45q15 56 56.5 95.5t108.5 51.5q-43 30 -43 90q0 45 30 76.5t74 31.5q46 0 75.5 -31
t29.5 -77q0 -61 -47 -92q71 -15 113 -65t42 -137v-336h-109zM241 217q-50 -12 -65.5 -28.5t-15.5 -37.5q0 -54 78 -54q59 0 88.5 22.5t29.5 55.5v92h-2q-4 -8 -8.5 -12.5t-30.5 -15t-74 -22.5zM268 580q16 0 29 13.5t13 37.5t-12.5 36.5t-29.5 12.5q-16 0 -28 -12.5
t-12 -36.5t12 -37.5t28 -13.5z" />
    <glyph glyph-name="ae" unicode="&#xe6;" horiz-adv-x="879" 
d="M734 193l100 -69q-72 -139 -227 -139q-116 0 -186 82h-2q-2 -3 -6.5 -8.5t-21 -20t-36.5 -25t-54.5 -19.5t-74.5 -9q-96 0 -143.5 45.5t-47.5 111.5t39.5 103.5t140.5 61.5q89 22 113 35t24 37t-22.5 40t-66.5 16q-37 0 -61.5 -14.5t-34 -30.5t-17.5 -42l-108 45
q19 66 74 109t145 43q113 0 173 -69h2q71 69 165 69q106 0 174.5 -76.5t68.5 -203.5v-39h-356q3 -61 33.5 -93.5t83.5 -32.5q27 0 47.5 7.5t36.5 24t24 28t21 33.5zM241 217q-50 -12 -65.5 -28.5t-15.5 -37.5q0 -54 78 -54q59 0 88.5 22.5t29.5 55.5v92h-2q-4 -8 -8.5 -12.5
t-30.5 -15t-74 -22.5zM488 323h230q-5 51 -35 79.5t-82 28.5q-48 0 -78.5 -31t-34.5 -77z" />
    <glyph glyph-name="ccedilla" unicode="&#xe7;" horiz-adv-x="541" 
d="M188 -176l43 52q33 -32 73 -32q22 0 34.5 9t12.5 24q0 14 -12.5 22t-29.5 8q-14 0 -25.5 -4t-15.5 -8l-5 -4l-53 30l39 66q-96 11 -155 83.5t-59 194.5q0 131 71.5 205.5t176.5 74.5q89 0 149 -52t74 -139l-121 -23q-19 97 -102 97q-55 0 -87.5 -41.5t-32.5 -121.5
t32 -121.5t88 -41.5q88 0 105 112l123 -32q-17 -88 -70 -138.5t-134 -57.5l-28 -44l1 -1q22 15 55 15q34 0 61 -21.5t27 -59.5q0 -45 -32 -71.5t-81 -26.5q-77 0 -122 47z" />
    <glyph glyph-name="egrave" unicode="&#xe8;" horiz-adv-x="558" 
d="M414 183l91 -80q-81 -118 -219 -118q-111 0 -181 76.5t-70 203.5t69.5 203.5t175.5 76.5t174.5 -76.5t68.5 -203.5v-39h-356q3 -61 33.5 -93.5t83.5 -32.5q45 0 74.5 22.5t55.5 60.5zM167 323h230q-5 51 -35 79.5t-82 28.5q-48 0 -78.5 -31t-34.5 -77zM242 595l-110 125
h138l81 -125h-109z" />
    <glyph glyph-name="eacute" unicode="&#xe9;" horiz-adv-x="558" 
d="M414 183l91 -80q-81 -118 -219 -118q-111 0 -181 76.5t-70 203.5t69.5 203.5t175.5 76.5t174.5 -76.5t68.5 -203.5v-39h-356q3 -61 33.5 -93.5t83.5 -32.5q45 0 74.5 22.5t55.5 60.5zM167 323h230q-5 51 -35 79.5t-82 28.5q-48 0 -78.5 -31t-34.5 -77zM232 595l81 125
h138l-110 -125h-109z" />
    <glyph glyph-name="ecircumflex" unicode="&#xea;" horiz-adv-x="558" 
d="M414 183l91 -80q-81 -118 -219 -118q-111 0 -181 76.5t-70 203.5t69.5 203.5t175.5 76.5t174.5 -76.5t68.5 -203.5v-39h-356q3 -61 33.5 -93.5t83.5 -32.5q45 0 74.5 22.5t55.5 60.5zM167 323h230q-5 51 -35 79.5t-82 28.5q-48 0 -78.5 -31t-34.5 -77zM152 634l67 86h135
l68 -86l-68 -53l-67 86l-69 -86z" />
    <glyph glyph-name="edieresis" unicode="&#xeb;" horiz-adv-x="558" 
d="M414 183l91 -80q-81 -118 -219 -118q-111 0 -181 76.5t-70 203.5t69.5 203.5t175.5 76.5t174.5 -76.5t68.5 -203.5v-39h-356q3 -61 33.5 -93.5t83.5 -32.5q45 0 74.5 22.5t55.5 60.5zM167 323h230q-5 51 -35 79.5t-82 28.5q-48 0 -78.5 -31t-34.5 -77zM126 595v115h122
v-115h-122zM325 595v115h122v-115h-122z" />
    <glyph glyph-name="igrave" unicode="&#xec;" horiz-adv-x="270" 
d="M70 0v530h130v-530h-130zM82 595l-110 125h138l81 -125h-109z" />
    <glyph glyph-name="iacute" unicode="&#xed;" horiz-adv-x="270" 
d="M70 0v530h130v-530h-130zM73 595l81 125h138l-110 -125h-109z" />
    <glyph glyph-name="icircumflex" unicode="&#xee;" horiz-adv-x="270" 
d="M70 0v530h130v-530h-130zM1 634l67 86h135l68 -86l-68 -53l-67 86l-69 -86z" />
    <glyph glyph-name="idieresis" unicode="&#xef;" horiz-adv-x="270" 
d="M70 0v530h130v-530h-130zM-25 595v115h122v-115h-122zM174 595v115h122v-115h-122z" />
    <glyph glyph-name="eth" unicode="&#xf0;" horiz-adv-x="566" 
d="M163 644l115 32q-48 58 -93 97v2h138q36 -40 59 -71l125 35l15 -55l-106 -29q115 -183 115 -381q0 -136 -72 -212.5t-176 -76.5q-115 0 -181.5 73t-66.5 207q0 133 61 206.5t161 73.5q77 0 120 -38h2q-20 53 -65 119l-136 -37zM283 108q118 0 118 157q0 83 -28.5 121.5
t-89.5 38.5t-89.5 -38.5t-28.5 -121.5q0 -157 118 -157z" />
    <glyph glyph-name="ntilde" unicode="&#xf1;" horiz-adv-x="590" 
d="M70 0v530h125v-51h2q22 28 60 47t80 19q88 0 138 -52.5t50 -145.5v-347h-130v315q0 55 -21 82.5t-72 27.5q-48 0 -75 -27.5t-27 -73.5v-324h-130zM204 595h-66q17 110 101 110q33 0 77 -20q36 -19 47 -19q29 0 37 34h66q-17 -110 -101 -110q-33 0 -77 20q-36 19 -47 19
q-29 0 -37 -34z" />
    <glyph glyph-name="ograve" unicode="&#xf2;" horiz-adv-x="566" 
d="M283 102q56 0 88 42.5t32 120.5t-32.5 120.5t-87.5 42.5t-87.5 -42t-32.5 -121t32 -121t88 -42zM283 -15q-108 0 -178 74t-70 206q0 130 72 205t176 75t176 -75t72 -205q0 -132 -70 -206t-178 -74zM229 595l-110 125h138l81 -125h-109z" />
    <glyph glyph-name="oacute" unicode="&#xf3;" horiz-adv-x="566" 
d="M283 102q56 0 88 42.5t32 120.5t-32.5 120.5t-87.5 42.5t-87.5 -42t-32.5 -121t32 -121t88 -42zM283 -15q-108 0 -178 74t-70 206q0 130 72 205t176 75t176 -75t72 -205q0 -132 -70 -206t-178 -74zM239 595l81 125h138l-110 -125h-109z" />
    <glyph glyph-name="ocircumflex" unicode="&#xf4;" horiz-adv-x="566" 
d="M283 102q56 0 88 42.5t32 120.5t-32.5 120.5t-87.5 42.5t-87.5 -42t-32.5 -121t32 -121t88 -42zM283 -15q-108 0 -178 74t-70 206q0 130 72 205t176 75t176 -75t72 -205q0 -132 -70 -206t-178 -74zM149 634l67 86h135l68 -86l-68 -53l-67 86l-69 -86z" />
    <glyph glyph-name="otilde" unicode="&#xf5;" horiz-adv-x="566" 
d="M283 102q56 0 88 42.5t32 120.5t-32.5 120.5t-87.5 42.5t-87.5 -42t-32.5 -121t32 -121t88 -42zM283 -15q-108 0 -178 74t-70 206q0 130 72 205t176 75t176 -75t72 -205q0 -132 -70 -206t-178 -74zM193 595h-66q17 110 101 110q33 0 77 -20q36 -19 47 -19q29 0 37 34h66
q-17 -110 -101 -110q-33 0 -77 20q-36 19 -47 19q-29 0 -37 -34z" />
    <glyph glyph-name="odieresis" unicode="&#xf6;" horiz-adv-x="566" 
d="M283 102q56 0 88 42.5t32 120.5t-32.5 120.5t-87.5 42.5t-87.5 -42t-32.5 -121t32 -121t88 -42zM283 -15q-108 0 -178 74t-70 206q0 130 72 205t176 75t176 -75t72 -205q0 -132 -70 -206t-178 -74zM133 595v115h122v-115h-122zM332 595v115h122v-115h-122z" />
    <glyph glyph-name="divide" unicode="&#xf7;" horiz-adv-x="464" 
d="M138 567q0 40 27 67t66 27q40 0 67 -27t27 -67q0 -39 -27 -66t-67 -27q-39 0 -66 27t-27 66zM138 134q0 40 27 67t66 27q40 0 67 -27t27 -67q0 -39 -27 -66t-67 -27q-39 0 -66 27t-27 66zM40 304v100h384v-100h-384z" />
    <glyph glyph-name="oslash" unicode="&#xf8;" horiz-adv-x="566" 
d="M58 18l39 50q-62 75 -62 197q0 130 72 205t176 75q83 0 147 -49l38 49l40 -34l-40 -51q63 -76 63 -195q0 -132 -70 -206t-178 -74q-87 0 -149 47l-36 -47zM386 355l-177 -227q29 -26 74 -26q56 0 88 42.5t32 120.5q0 53 -17 90zM178 173l177 227q-31 28 -72 28
q-53 0 -86.5 -42.5t-33.5 -120.5q0 -56 15 -92z" />
    <glyph glyph-name="ugrave" unicode="&#xf9;" horiz-adv-x="580" 
d="M65 188v342h130v-328q0 -50 19 -71t61 -21q47 0 76 24.5t29 77.5v318h130v-530h-124v51h-2q-49 -66 -138 -66q-92 0 -136.5 55t-44.5 148zM238 595l-110 125h138l81 -125h-109z" />
    <glyph glyph-name="uacute" unicode="&#xfa;" horiz-adv-x="580" 
d="M65 188v342h130v-328q0 -50 19 -71t61 -21q47 0 76 24.5t29 77.5v318h130v-530h-124v51h-2q-49 -66 -138 -66q-92 0 -136.5 55t-44.5 148zM239 595l81 125h138l-110 -125h-109z" />
    <glyph glyph-name="ucircumflex" unicode="&#xfb;" horiz-adv-x="580" 
d="M65 188v342h130v-328q0 -50 19 -71t61 -21q47 0 76 24.5t29 77.5v318h130v-530h-124v51h-2q-49 -66 -138 -66q-92 0 -136.5 55t-44.5 148zM158 634l67 86h135l68 -86l-68 -53l-67 86l-69 -86z" />
    <glyph glyph-name="udieresis" unicode="&#xfc;" horiz-adv-x="580" 
d="M65 188v342h130v-328q0 -50 19 -71t61 -21q47 0 76 24.5t29 77.5v318h130v-530h-124v51h-2q-49 -66 -138 -66q-92 0 -136.5 55t-44.5 148zM142 595v115h122v-115h-122zM341 595v115h122v-115h-122z" />
    <glyph glyph-name="yacute" unicode="&#xfd;" horiz-adv-x="550" 
d="M111 -225l106 251l-212 504h132l137 -359h2l137 359h132l-305 -755h-129zM225 595l81 125h138l-110 -125h-109z" />
    <glyph glyph-name="thorn" unicode="&#xfe;" horiz-adv-x="609" 
d="M70 -225v955h126v-246h2q51 61 145 61q92 0 161.5 -77t69.5 -203t-69.5 -203t-161.5 -77q-51 0 -87 16.5t-54 39.5h-2v-266h-130zM200 320v-109q0 -46 31 -76t83 -30q58 0 94 41t36 119q0 79 -36 119.5t-94 40.5q-52 0 -83 -30t-31 -75z" />
    <glyph glyph-name="ydieresis" unicode="&#xff;" horiz-adv-x="550" 
d="M111 -225l106 251l-212 504h132l137 -359h2l137 359h132l-305 -755h-129zM112 595v115h122v-115h-122zM311 595v115h122v-115h-122z" />
    <glyph glyph-name="Amacron" unicode="&#x100;" horiz-adv-x="630" 
d="M486 0l-40 115h-267l-40 -115h-134l253 700h115l252 -700h-139zM312 500l-95 -273h191l-94 273h-2zM171 765v80h288v-80h-288z" />
    <glyph glyph-name="amacron" unicode="&#x101;" horiz-adv-x="541" 
d="M372 0v51h-2l-5 -7.5t-15 -15.5t-27 -20t-41 -16t-56 -7q-96 0 -143.5 45.5t-47.5 111.5q0 69 41 105t139 60q91 22 114 35t23 37t-22.5 40t-67.5 16q-53 0 -76 -23.5t-36 -63.5l-108 45q19 67 74 109.5t144 42.5q97 0 159 -51t62 -158v-336h-109zM241 217
q-50 -12 -65.5 -28.5t-15.5 -37.5q0 -54 78 -54q59 0 88.5 22.5t29.5 55.5v92h-2q-4 -8 -8.5 -12.5t-30.5 -15t-74 -22.5zM124 620v80h288v-80h-288z" />
    <glyph glyph-name="Abreve" unicode="&#x102;" horiz-adv-x="630" 
d="M486 0l-40 115h-267l-40 -115h-134l253 700h115l252 -700h-139zM312 500l-95 -273h191l-94 273h-2zM182 885h64q3 -20 21 -36t50 -16t48 15.5t19 36.5h67q0 -56 -38 -93t-96 -37q-61 0 -98 37t-37 93z" />
    <glyph glyph-name="abreve" unicode="&#x103;" horiz-adv-x="541" 
d="M372 0v51h-2l-5 -7.5t-15 -15.5t-27 -20t-41 -16t-56 -7q-96 0 -143.5 45.5t-47.5 111.5q0 69 41 105t139 60q91 22 114 35t23 37t-22.5 40t-67.5 16q-53 0 -76 -23.5t-36 -63.5l-108 45q19 67 74 109.5t144 42.5q97 0 159 -51t62 -158v-336h-109zM241 217
q-50 -12 -65.5 -28.5t-15.5 -37.5q0 -54 78 -54q59 0 88.5 22.5t29.5 55.5v92h-2q-4 -8 -8.5 -12.5t-30.5 -15t-74 -22.5zM132 715h64q3 -20 21 -36t50 -16t48 15.5t19 36.5h67q0 -56 -38 -93t-96 -37q-61 0 -98 37t-37 93z" />
    <glyph glyph-name="Aogonek" unicode="&#x104;" horiz-adv-x="630" 
d="M486 0l-40 115h-267l-40 -115h-134l253 700h115l252 -700q-80 -68 -80 -120q0 -28 33 -28q36 0 74 40l38 -42q-64 -68 -143 -68q-92 0 -92 74q0 40 29 79t70 65h-68zM312 500l-95 -273h191l-94 273h-2z" />
    <glyph glyph-name="aogonek" unicode="&#x105;" horiz-adv-x="541" 
d="M372 0v51h-2l-5 -7.5t-15 -15.5t-27 -20t-41 -16t-56 -7q-96 0 -143.5 45.5t-47.5 111.5q0 69 41 105t139 60q91 22 114 35t23 37t-22.5 40t-67.5 16q-53 0 -76 -23.5t-36 -63.5l-108 45q19 67 74 109.5t144 42.5q97 0 159 -51t62 -158v-336q-80 -68 -80 -120
q0 -28 33 -28q36 0 74 40l38 -42q-64 -68 -143 -68q-92 0 -92 74q0 40 29 79t70 65h-38zM241 217q-50 -12 -65.5 -28.5t-15.5 -37.5q0 -54 78 -54q59 0 88.5 22.5t29.5 55.5v92h-2q-4 -8 -8.5 -12.5t-30.5 -15t-74 -22.5z" />
    <glyph glyph-name="Cacute" unicode="&#x106;" horiz-adv-x="656" 
d="M481 278l140 -31q-17 -122 -89 -192t-188 -70q-135 0 -219.5 93.5t-84.5 282.5q0 166 89.5 260t213.5 94q108 0 183.5 -67.5t87.5 -181.5l-134 -21q-9 64 -42 104.5t-94 40.5q-69 0 -117 -60t-48 -169q0 -128 46.5 -189.5t118.5 -61.5q118 0 137 168zM289 765l81 125h138
l-110 -125h-109z" />
    <glyph glyph-name="cacute" unicode="&#x107;" horiz-adv-x="541" 
d="M388 214l123 -32q-18 -95 -78 -146t-151 -51q-108 0 -177.5 74t-69.5 206q0 131 71.5 205.5t176.5 74.5q89 0 149 -52t74 -139l-121 -23q-19 97 -102 97q-55 0 -87.5 -41.5t-32.5 -121.5t32 -121.5t88 -41.5q88 0 105 112zM201 595l81 125h138l-110 -125h-109z" />
    <glyph glyph-name="Ccircumflex" unicode="&#x108;" horiz-adv-x="656" 
d="M481 278l140 -31q-17 -122 -89 -192t-188 -70q-135 0 -219.5 93.5t-84.5 282.5q0 166 89.5 260t213.5 94q108 0 183.5 -67.5t87.5 -181.5l-134 -21q-9 64 -42 104.5t-94 40.5q-69 0 -117 -60t-48 -169q0 -128 46.5 -189.5t118.5 -61.5q118 0 137 168zM204 800l67 86h135
l68 -86l-68 -53l-67 86l-69 -86z" />
    <glyph glyph-name="ccircumflex" unicode="&#x109;" horiz-adv-x="541" 
d="M388 214l123 -32q-18 -95 -78 -146t-151 -51q-108 0 -177.5 74t-69.5 206q0 131 71.5 205.5t176.5 74.5q89 0 149 -52t74 -139l-121 -23q-19 97 -102 97q-55 0 -87.5 -41.5t-32.5 -121.5t32 -121.5t88 -41.5q88 0 105 112zM133 634l67 86h135l68 -86l-68 -53l-67 86
l-69 -86z" />
    <glyph glyph-name="Cdotaccent" unicode="&#x10a;" horiz-adv-x="656" 
d="M481 278l140 -31q-17 -122 -89 -192t-188 -70q-135 0 -219.5 93.5t-84.5 282.5q0 166 89.5 260t213.5 94q108 0 183.5 -67.5t87.5 -181.5l-134 -21q-9 64 -42 104.5t-94 40.5q-69 0 -117 -60t-48 -169q0 -128 46.5 -189.5t118.5 -61.5q118 0 137 168zM268 765v123h130
v-123h-130z" />
    <glyph glyph-name="cdotaccent" unicode="&#x10b;" horiz-adv-x="541" 
d="M388 214l123 -32q-18 -95 -78 -146t-151 -51q-108 0 -177.5 74t-69.5 206q0 131 71.5 205.5t176.5 74.5q89 0 149 -52t74 -139l-121 -23q-19 97 -102 97q-55 0 -87.5 -41.5t-32.5 -121.5t32 -121.5t88 -41.5q88 0 105 112zM208 595v123h130v-123h-130z" />
    <glyph glyph-name="Ccaron" unicode="&#x10c;" horiz-adv-x="656" 
d="M481 278l140 -31q-17 -122 -89 -192t-188 -70q-135 0 -219.5 93.5t-84.5 282.5q0 166 89.5 260t213.5 94q108 0 183.5 -67.5t87.5 -181.5l-134 -21q-9 64 -42 104.5t-94 40.5q-69 0 -117 -60t-48 -169q0 -128 46.5 -189.5t118.5 -61.5q118 0 137 168zM268 765l-67 86
l66 53l69 -86l67 86l68 -53l-68 -86h-135z" />
    <glyph glyph-name="ccaron" unicode="&#x10d;" horiz-adv-x="541" 
d="M388 214l123 -32q-18 -95 -78 -146t-151 -51q-108 0 -177.5 74t-69.5 206q0 131 71.5 205.5t176.5 74.5q89 0 149 -52t74 -139l-121 -23q-19 97 -102 97q-55 0 -87.5 -41.5t-32.5 -121.5t32 -121.5t88 -41.5q88 0 105 112zM205 594l-67 86l66 53l69 -86l67 86l68 -53
l-68 -86h-135z" />
    <glyph glyph-name="Dcaron" unicode="&#x10e;" horiz-adv-x="652" 
d="M215 125h93q36 0 63 8.5t51 31.5t37 69.5t13 116.5q0 117 -43.5 170.5t-114.5 53.5h-99v-450zM80 0v700h234q60 0 113 -21t96 -62t68.5 -109.5t25.5 -156.5q0 -96 -26 -167t-71 -109.5t-97.5 -56.5t-114.5 -18h-228zM211 765l-67 86l66 53l69 -86l67 86l68 -53l-68 -86
h-135z" />
    <glyph glyph-name="dcaron" unicode="&#x10f;" horiz-adv-x="654" 
d="M399 217v97q0 48 -30.5 81t-83.5 33q-57 0 -88.5 -41t-31.5 -122q0 -80 31.5 -121.5t88.5 -41.5q53 0 83.5 33.5t30.5 81.5zM407 0v51h-2q-5 -7 -14.5 -18t-46 -29.5t-79.5 -18.5q-105 0 -167.5 76t-62.5 204q0 129 68 204.5t160 75.5q42 0 75.5 -16.5t45.5 -32.5l13 -17
h2v251h130v-730h-122zM569 565l32 165h103l-60 -165h-75z" />
    <glyph glyph-name="Dcroat" unicode="&#x110;" horiz-adv-x="661" 
d="M89 0v298h-69v110h69v292h234q60 0 113 -21t96 -62t68.5 -109.5t25.5 -156.5q0 -96 -26 -167t-71 -109.5t-97.5 -56.5t-114.5 -18h-228zM224 125h93q36 0 63 8.5t51 31.5t37 69.5t13 116.5q0 117 -43.5 170.5t-114.5 53.5h-99v-167h134v-110h-134v-173z" />
    <glyph glyph-name="dcroat" unicode="&#x111;" horiz-adv-x="594" 
d="M407 0v51h-2q-5 -7 -14.5 -18t-46 -29.5t-79.5 -18.5q-105 0 -167.5 76t-62.5 204q0 126 64.5 203t165.5 77q43 0 76 -16.5t45 -32.5l11 -17h2v136h-100v85h100v30h130v-30h50v-85h-50v-615h-122zM399 217v97q0 48 -30.5 79.5t-83.5 31.5q-57 0 -88.5 -40t-31.5 -120
t31.5 -120t88.5 -40q53 0 83.5 32t30.5 80z" />
    <glyph glyph-name="Emacron" unicode="&#x112;" horiz-adv-x="578" 
d="M80 0v700h443v-125h-308v-157h280v-120h-280v-173h308v-125h-443zM162 765v80h288v-80h-288z" />
    <glyph glyph-name="emacron" unicode="&#x113;" horiz-adv-x="558" 
d="M414 183l91 -80q-81 -118 -219 -118q-111 0 -181 76.5t-70 203.5t69.5 203.5t175.5 76.5t174.5 -76.5t68.5 -203.5v-39h-356q3 -61 33.5 -93.5t83.5 -32.5q45 0 74.5 22.5t55.5 60.5zM167 323h230q-5 51 -35 79.5t-82 28.5q-48 0 -78.5 -31t-34.5 -77zM142 620v80h288
v-80h-288z" />
    <glyph glyph-name="Ebreve" unicode="&#x114;" horiz-adv-x="578" 
d="M80 0v700h443v-125h-308v-157h280v-120h-280v-173h308v-125h-443zM177 885h64q3 -20 21 -36t50 -16t48 15.5t19 36.5h67q0 -56 -38 -93t-96 -37q-61 0 -98 37t-37 93z" />
    <glyph glyph-name="ebreve" unicode="&#x115;" horiz-adv-x="558" 
d="M414 183l91 -80q-81 -118 -219 -118q-111 0 -181 76.5t-70 203.5t69.5 203.5t175.5 76.5t174.5 -76.5t68.5 -203.5v-39h-356q3 -61 33.5 -93.5t83.5 -32.5q45 0 74.5 22.5t55.5 60.5zM167 323h230q-5 51 -35 79.5t-82 28.5q-48 0 -78.5 -31t-34.5 -77zM155 715h64
q3 -20 21 -36t50 -16t48 15.5t19 36.5h67q0 -56 -38 -93t-96 -37q-61 0 -98 37t-37 93z" />
    <glyph glyph-name="Edotaccent" unicode="&#x116;" horiz-adv-x="578" 
d="M80 0v700h443v-125h-308v-157h280v-120h-280v-173h308v-125h-443zM252 765v123h130v-123h-130z" />
    <glyph glyph-name="edotaccent" unicode="&#x117;" horiz-adv-x="558" 
d="M414 183l91 -80q-81 -118 -219 -118q-111 0 -181 76.5t-70 203.5t69.5 203.5t175.5 76.5t174.5 -76.5t68.5 -203.5v-39h-356q3 -61 33.5 -93.5t83.5 -32.5q45 0 74.5 22.5t55.5 60.5zM167 323h230q-5 51 -35 79.5t-82 28.5q-48 0 -78.5 -31t-34.5 -77zM226 595v123h130
v-123h-130z" />
    <glyph glyph-name="Eogonek" unicode="&#x118;" horiz-adv-x="578" 
d="M80 0v700h443v-125h-308v-157h280v-120h-280v-173h308v-125h-65q-80 -68 -80 -120q0 -28 33 -28q36 0 74 40l38 -42q-64 -68 -143 -68q-92 0 -92 74q0 40 29 79t70 65h-307z" />
    <glyph glyph-name="eogonek" unicode="&#x119;" horiz-adv-x="558" 
d="M371 -108l38 -42q-64 -68 -143 -68q-92 0 -92 74q0 71 80 131q-98 11 -158.5 86t-60.5 192q0 127 69.5 203.5t175.5 76.5t174.5 -76.5t68.5 -203.5v-39h-356q3 -61 33.5 -93.5t83.5 -32.5q45 0 74.5 22.5t55.5 60.5l91 -80q-69 -100 -175 -115q-66 -60 -66 -108
q0 -28 33 -28q36 0 74 40zM167 323h230q-5 51 -35 79.5t-82 28.5q-48 0 -78.5 -31t-34.5 -77z" />
    <glyph glyph-name="Ecaron" unicode="&#x11a;" horiz-adv-x="578" 
d="M80 0v700h443v-125h-308v-157h280v-120h-280v-173h308v-125h-443zM244 765l-67 86l66 53l69 -86l67 86l68 -53l-68 -86h-135z" />
    <glyph glyph-name="ecaron" unicode="&#x11b;" horiz-adv-x="558" 
d="M414 183l91 -80q-81 -118 -219 -118q-111 0 -181 76.5t-70 203.5t69.5 203.5t175.5 76.5t174.5 -76.5t68.5 -203.5v-39h-356q3 -61 33.5 -93.5t83.5 -32.5q45 0 74.5 22.5t55.5 60.5zM167 323h230q-5 51 -35 79.5t-82 28.5q-48 0 -78.5 -31t-34.5 -77zM215 594l-67 86
l66 53l69 -86l67 86l68 -53l-68 -86h-135z" />
    <glyph glyph-name="Gcircumflex" unicode="&#x11c;" horiz-adv-x="653" 
d="M344 -15q-135 0 -219.5 93.5t-84.5 282.5q0 166 89.5 260t213.5 94q106 0 180.5 -64t89.5 -174l-135 -22q-25 135 -134 135q-69 0 -117 -60t-48 -169q0 -128 46.5 -189.5t118.5 -61.5q65 0 102.5 37t37.5 104h-130v115h259v-93q0 -133 -75 -210.5t-194 -77.5zM196 800
l67 86h135l68 -86l-68 -53l-67 86l-69 -86z" />
    <glyph glyph-name="gcircumflex" unicode="&#x11d;" horiz-adv-x="604" 
d="M409 211v109q0 45 -31 76.5t-83 31.5q-58 0 -94 -42t-36 -121t36.5 -121t93.5 -42q52 0 83 31.5t31 77.5zM73 -108l97 67q23 -45 52 -65.5t75 -20.5q51 0 81.5 26.5t30.5 84.5v67h-2q-15 -27 -52 -46.5t-80 -19.5q-102 0 -171 74.5t-69 205.5q0 129 71 204.5t167 75.5
q91 0 140 -66h2v51h124v-530q0 -116 -67.5 -178t-174.5 -62q-83 0 -140.5 36t-83.5 96zM172 634l67 86h135l68 -86l-68 -53l-67 86l-69 -86z" />
    <glyph glyph-name="Gbreve" unicode="&#x11e;" horiz-adv-x="653" 
d="M344 -15q-135 0 -219.5 93.5t-84.5 282.5q0 166 89.5 260t213.5 94q106 0 180.5 -64t89.5 -174l-135 -22q-25 135 -134 135q-69 0 -117 -60t-48 -169q0 -128 46.5 -189.5t118.5 -61.5q65 0 102.5 37t37.5 104h-130v115h259v-93q0 -133 -75 -210.5t-194 -77.5zM186 885h64
q3 -20 21 -36t50 -16t48 15.5t19 36.5h67q0 -56 -38 -93t-96 -37q-61 0 -98 37t-37 93z" />
    <glyph glyph-name="gbreve" unicode="&#x11f;" horiz-adv-x="604" 
d="M409 211v109q0 45 -31 76.5t-83 31.5q-58 0 -94 -42t-36 -121t36.5 -121t93.5 -42q52 0 83 31.5t31 77.5zM73 -108l97 67q23 -45 52 -65.5t75 -20.5q51 0 81.5 26.5t30.5 84.5v67h-2q-15 -27 -52 -46.5t-80 -19.5q-102 0 -171 74.5t-69 205.5q0 129 71 204.5t167 75.5
q91 0 140 -66h2v51h124v-530q0 -116 -67.5 -178t-174.5 -62q-83 0 -140.5 36t-83.5 96zM173 715h64q3 -20 21 -36t50 -16t48 15.5t19 36.5h67q0 -56 -38 -93t-96 -37q-61 0 -98 37t-37 93z" />
    <glyph glyph-name="Gdotaccent" unicode="&#x120;" horiz-adv-x="653" 
d="M344 -15q-135 0 -219.5 93.5t-84.5 282.5q0 166 89.5 260t213.5 94q106 0 180.5 -64t89.5 -174l-135 -22q-25 135 -134 135q-69 0 -117 -60t-48 -169q0 -128 46.5 -189.5t118.5 -61.5q65 0 102.5 37t37.5 104h-130v115h259v-93q0 -133 -75 -210.5t-194 -77.5zM269 765
v123h130v-123h-130z" />
    <glyph glyph-name="gdotaccent" unicode="&#x121;" horiz-adv-x="604" 
d="M409 211v109q0 45 -31 76.5t-83 31.5q-58 0 -94 -42t-36 -121t36.5 -121t93.5 -42q52 0 83 31.5t31 77.5zM73 -108l97 67q23 -45 52 -65.5t75 -20.5q51 0 81.5 26.5t30.5 84.5v67h-2q-15 -27 -52 -46.5t-80 -19.5q-102 0 -171 74.5t-69 205.5q0 129 71 204.5t167 75.5
q91 0 140 -66h2v51h124v-530q0 -116 -67.5 -178t-174.5 -62q-83 0 -140.5 36t-83.5 96zM242 595v123h130v-123h-130z" />
    <glyph glyph-name="Gcommaaccent" unicode="&#x122;" horiz-adv-x="653" 
d="M344 -15q-135 0 -219.5 93.5t-84.5 282.5q0 166 89.5 260t213.5 94q106 0 180.5 -64t89.5 -174l-135 -22q-25 135 -134 135q-69 0 -117 -60t-48 -169q0 -128 46.5 -189.5t118.5 -61.5q65 0 102.5 37t37.5 104h-130v115h259v-93q0 -133 -75 -210.5t-194 -77.5zM310 -263
v47q27 4 37.5 18t10.5 39h-54v113h122v-101q0 -109 -116 -116z" />
    <glyph glyph-name="gcommaaccent" unicode="&#x123;" horiz-adv-x="604" 
d="M409 211v109q0 45 -31 76.5t-83 31.5q-58 0 -94 -42t-36 -121t36.5 -121t93.5 -42q52 0 83 31.5t31 77.5zM73 -108l97 67q23 -45 52 -65.5t75 -20.5q51 0 81.5 26.5t30.5 84.5v67h-2q-15 -27 -52 -46.5t-80 -19.5q-102 0 -171 74.5t-69 205.5q0 129 71 204.5t167 75.5
q91 0 140 -66h2v51h124v-530q0 -116 -67.5 -178t-174.5 -62q-83 0 -140.5 36t-83.5 96zM358 798v-40q-44 -9 -44 -58h51v-118h-119v99q0 108 112 117z" />
    <glyph glyph-name="Hcircumflex" unicode="&#x124;" horiz-adv-x="670" 
d="M80 0v700h135v-282h240v282h135v-700h-135v303h-240v-303h-135zM201 800l67 86h135l68 -86l-68 -53l-67 86l-69 -86z" />
    <glyph glyph-name="hcircumflex" unicode="&#x125;" horiz-adv-x="581" 
d="M70 0v730h130v-251h2q16 26 53 46t76 20q85 0 135 -52t50 -140v-353h-130v324q0 44 -23.5 72.5t-70.5 28.5q-45 0 -68.5 -25.5t-23.5 -66.5v-333h-130zM219 634l67 86h135l68 -86l-68 -53l-67 86l-69 -86z" />
    <glyph glyph-name="Hbar" unicode="&#x126;" horiz-adv-x="689" 
d="M89 0v505h-49v105h49v90h135v-90h240v90h135v-90h50v-105h-50v-505h-135v303h-240v-303h-135zM224 418h240v87h-240v-87z" />
    <glyph glyph-name="hbar" unicode="&#x127;" horiz-adv-x="576" 
d="M75 0v605h-60v95h60v30h130v-30h100v-95h-100v-126h2q16 26 52.5 46t76.5 20q85 0 135 -52t50 -140v-353h-130v324q0 44 -23.5 72.5t-70.5 28.5q-45 0 -68.5 -25.5t-23.5 -66.5v-333h-130z" />
    <glyph glyph-name="Itilde" unicode="&#x128;" horiz-adv-x="305" 
d="M85 0v700h135v-700h-135zM54 765h-66q17 110 101 110q33 0 77 -20q36 -19 47 -19q29 0 37 34h66q-17 -110 -101 -110q-33 0 -77 20q-36 19 -47 19q-29 0 -37 -34z" />
    <glyph glyph-name="itilde" unicode="&#x129;" horiz-adv-x="270" 
d="M70 0v530h130v-530h-130zM37 595h-66q17 110 101 110q33 0 77 -20q36 -19 47 -19q29 0 37 34h66q-17 -110 -101 -110q-33 0 -77 20q-36 19 -47 19q-29 0 -37 -34z" />
    <glyph glyph-name="Imacron" unicode="&#x12a;" horiz-adv-x="305" 
d="M85 0v700h135v-700h-135zM8 765v80h288v-80h-288z" />
    <glyph glyph-name="imacron" unicode="&#x12b;" horiz-adv-x="270" 
d="M70 0v530h130v-530h-130zM-9 620v80h288v-80h-288z" />
    <glyph glyph-name="Ibreve" unicode="&#x12c;" horiz-adv-x="305" 
d="M85 0v700h135v-700h-135zM18 885h64q3 -20 21 -36t50 -16t48 15.5t19 36.5h67q0 -56 -38 -93t-96 -37q-61 0 -98 37t-37 93z" />
    <glyph glyph-name="ibreve" unicode="&#x12d;" horiz-adv-x="270" 
d="M70 0v530h130v-530h-130zM1 715h64q3 -20 21 -36t50 -16t48 15.5t19 36.5h67q0 -56 -38 -93t-96 -37q-61 0 -98 37t-37 93z" />
    <glyph glyph-name="Iogonek" unicode="&#x12e;" horiz-adv-x="305" 
d="M85 0v700h135v-700q-80 -68 -80 -120q0 -28 33 -28q36 0 74 40l38 -42q-64 -68 -143 -68q-92 0 -92 74q0 40 29 79t70 65h-64z" />
    <glyph glyph-name="iogonek" unicode="&#x12f;" horiz-adv-x="260" 
d="M65 0v530h130v-530q-80 -68 -80 -120q0 -28 33 -28q36 0 74 40l38 -42q-64 -68 -143 -68q-92 0 -92 74q0 40 29 79t70 65h-59zM65 607v123h130v-123h-130z" />
    <glyph glyph-name="Idotaccent" unicode="&#x130;" horiz-adv-x="305" 
d="M85 0v700h135v-700h-135zM87 765v123h130v-123h-130z" />
    <glyph glyph-name="dotlessi" unicode="&#x131;" horiz-adv-x="270" 
d="M70 0v530h130v-530h-130z" />
    <glyph glyph-name="IJ" unicode="&#x132;" horiz-adv-x="713" 
d="M85 0v700h135v-700h-135zM264 149l121 35q14 -74 63 -74q28 0 41.5 15t13.5 51v524h135v-514q0 -102 -50 -151.5t-140 -49.5q-81 0 -128 48.5t-56 115.5z" />
    <glyph glyph-name="ij" unicode="&#x133;" horiz-adv-x="537" 
d="M70 0v530h130v-530h-130zM70 607v123h130v-123h-130zM275 -195v135h24q38 0 38 44v546h130v-582q0 -143 -137 -143h-55zM337 607v123h130v-123h-130z" />
    <glyph glyph-name="Jcircumflex" unicode="&#x134;" horiz-adv-x="459" 
d="M10 149l121 35q14 -74 63 -74q28 0 41.5 15t13.5 51v524h135v-514q0 -102 -50 -151.5t-140 -49.5q-81 0 -128 48.5t-56 115.5zM174 800l67 86h135l68 -86l-68 -53l-67 86l-69 -86z" />
    <glyph glyph-name="jcircumflex" unicode="&#x135;" horiz-adv-x="267" 
d="M-5 634l67 86h135l68 -86l-68 -53l-67 86l-69 -86zM10 -195v119h24q38 0 38 44v562h130v-582q0 -143 -137 -143h-55z" />
    <glyph glyph-name="Kcommaaccent" unicode="&#x136;" horiz-adv-x="623" 
d="M70 0v700h135v-294h2l248 294h157l-262 -309l283 -391h-163l-211 288h-2l-52 -69v-219h-135zM267 -263v47q27 4 37.5 18t10.5 39h-54v113h122v-101q0 -109 -116 -116z" />
    <glyph glyph-name="kcommaaccent" unicode="&#x137;" horiz-adv-x="575" 
d="M70 0v730h130v-419h2l193 219h163l-191 -215l208 -315h-144l-162 242h-2l-67 -76v-166h-130zM242 -263v47q27 4 37.5 18t10.5 39h-54v113h122v-101q0 -109 -116 -116z" />
    <glyph glyph-name="kgreenlandic" unicode="&#x138;" horiz-adv-x="575" 
d="M70 0v529h130v-218l195 219h163l-191 -215l208 -315h-146l-162 242l-67 -74v-168h-130z" />
    <glyph glyph-name="Lacute" unicode="&#x139;" horiz-adv-x="519" 
d="M80 0v700h135v-575h289v-125h-424zM100 765l81 125h138l-110 -125h-109z" />
    <glyph glyph-name="lacute" unicode="&#x13a;" horiz-adv-x="275" 
d="M70 0v730h135v-730h-135zM71 785l81 125h138l-110 -125h-109z" />
    <glyph glyph-name="Lcommaaccent" unicode="&#x13b;" horiz-adv-x="519" 
d="M80 0v700h135v-575h289v-125h-424zM218 -263v47q27 4 37.5 18t10.5 39h-54v113h122v-101q0 -109 -116 -116z" />
    <glyph glyph-name="lcommaaccent" unicode="&#x13c;" horiz-adv-x="275" 
d="M70 0v730h135v-730h-135zM85 -263v47q27 4 37.5 18t10.5 39h-54v113h122v-101q0 -109 -116 -116z" />
    <glyph glyph-name="Lcaron" unicode="&#x13d;" horiz-adv-x="519" 
d="M80 0v700h135v-575h289v-125h-424zM369 565l32 165h103l-60 -165h-75z" />
    <glyph glyph-name="lcaron" unicode="&#x13e;" horiz-adv-x="340" 
d="M70 0v730h135v-730h-135zM255 565l32 165h103l-60 -165h-75z" />
    <glyph glyph-name="Ldot" unicode="&#x13f;" horiz-adv-x="519" 
d="M80 0v700h135v-575h289v-125h-424zM336 293v142h149v-142h-149z" />
    <glyph glyph-name="ldot" unicode="&#x140;" horiz-adv-x="416" 
d="M70 0v730h135v-730h-135zM267 322v142h149v-142h-149z" />
    <glyph glyph-name="Lslash" unicode="&#x141;" horiz-adv-x="541" 
d="M102 0v323l-65 -65l-42 43l107 107v292h135v-180l111 111l42 -43l-153 -153v-310h289v-125h-424z" />
    <glyph glyph-name="lslash" unicode="&#x142;" horiz-adv-x="324" 
d="M97 0v335l-90 -90l-42 43l132 132v310h130v-209l90 90l42 -43l-132 -133v-435h-130z" />
    <glyph glyph-name="Nacute" unicode="&#x143;" horiz-adv-x="689" 
d="M80 0v700h135l256 -459h2v459h136v-700h-133l-259 459h-2v-459h-135zM300 765l81 125h138l-110 -125h-109z" />
    <glyph glyph-name="nacute" unicode="&#x144;" horiz-adv-x="590" 
d="M70 0v530h125v-51h2q22 28 60 47t80 19q88 0 138 -52.5t50 -145.5v-347h-130v315q0 55 -21 82.5t-72 27.5q-48 0 -75 -27.5t-27 -73.5v-324h-130zM273 595l81 125h138l-110 -125h-109z" />
    <glyph glyph-name="Ncommaaccent" unicode="&#x145;" horiz-adv-x="689" 
d="M80 0v700h135l256 -459h2v459h136v-700h-133l-259 459h-2v-459h-135zM306 -263v47q27 4 37.5 18t10.5 39h-54v113h122v-101q0 -109 -116 -116z" />
    <glyph glyph-name="ncommaaccent" unicode="&#x146;" horiz-adv-x="590" 
d="M70 0v530h125v-51h2q22 28 60 47t80 19q88 0 138 -52.5t50 -145.5v-347h-130v315q0 55 -21 82.5t-72 27.5q-48 0 -75 -27.5t-27 -73.5v-324h-130zM244 -263v47q27 4 37.5 18t10.5 39h-54v113h122v-101q0 -109 -116 -116z" />
    <glyph glyph-name="Ncaron" unicode="&#x147;" horiz-adv-x="689" 
d="M80 0v700h135l256 -459h2v459h136v-700h-133l-259 459h-2v-459h-135zM287 765l-67 86l66 53l69 -86l67 86l68 -53l-68 -86h-135z" />
    <glyph glyph-name="ncaron" unicode="&#x148;" horiz-adv-x="590" 
d="M70 0v530h125v-51h2q22 28 60 47t80 19q88 0 138 -52.5t50 -145.5v-347h-130v315q0 55 -21 82.5t-72 27.5q-48 0 -75 -27.5t-27 -73.5v-324h-130zM242 594l-67 86l66 53l69 -86l67 86l68 -53l-68 -86h-135z" />
    <glyph glyph-name="Eng" unicode="&#x14a;" horiz-adv-x="689" 
d="M80 0v700h125l266 -449h2v449h136v-782q0 -143 -137 -143h-74v130h49q40 0 40 44v51l-270 449h-2v-449h-135z" />
    <glyph glyph-name="eng" unicode="&#x14b;" horiz-adv-x="590" 
d="M70 0v530h125v-51h2q22 28 58 47t78 19q88 0 140 -64t52 -170v-393q0 -143 -137 -143h-74v125h46q36 0 36 44v371q0 52 -25 81t-73 29q-47 0 -72.5 -27t-25.5 -74v-324h-130z" />
    <glyph glyph-name="Omacron" unicode="&#x14c;" horiz-adv-x="688" 
d="M344 109q72 0 118 58.5t46 188.5q0 114 -47.5 174t-116.5 60q-70 0 -117 -60t-47 -174q0 -128 46 -187.5t118 -59.5zM344 -15q-60 0 -113 21t-96.5 63.5t-69 116t-25.5 170.5q0 87 25.5 157t69 113.5t97 66t112.5 22.5t112.5 -22.5t97 -66t69 -113.5t25.5 -157
q0 -97 -25.5 -170.5t-69 -116t-96.5 -63.5t-113 -21zM200 765v80h288v-80h-288z" />
    <glyph glyph-name="omacron" unicode="&#x14d;" horiz-adv-x="566" 
d="M283 102q56 0 88 42.5t32 120.5t-32.5 120.5t-87.5 42.5t-87.5 -42t-32.5 -121t32 -121t88 -42zM283 -15q-108 0 -178 74t-70 206q0 130 72 205t176 75t176 -75t72 -205q0 -132 -70 -206t-178 -74zM139 620v80h288v-80h-288z" />
    <glyph glyph-name="Obreve" unicode="&#x14e;" horiz-adv-x="688" 
d="M344 109q72 0 118 58.5t46 188.5q0 114 -47.5 174t-116.5 60q-70 0 -117 -60t-47 -174q0 -128 46 -187.5t118 -59.5zM344 -15q-60 0 -113 21t-96.5 63.5t-69 116t-25.5 170.5q0 87 25.5 157t69 113.5t97 66t112.5 22.5t112.5 -22.5t97 -66t69 -113.5t25.5 -157
q0 -97 -25.5 -170.5t-69 -116t-96.5 -63.5t-113 -21zM210 885h64q3 -20 21 -36t50 -16t48 15.5t19 36.5h67q0 -56 -38 -93t-96 -37q-61 0 -98 37t-37 93z" />
    <glyph glyph-name="obreve" unicode="&#x14f;" horiz-adv-x="566" 
d="M283 102q56 0 88 42.5t32 120.5t-32.5 120.5t-87.5 42.5t-87.5 -42t-32.5 -121t32 -121t88 -42zM283 -15q-108 0 -178 74t-70 206q0 130 72 205t176 75t176 -75t72 -205q0 -132 -70 -206t-178 -74zM152 715h64q3 -20 21 -36t50 -16t48 15.5t19 36.5h67q0 -56 -38 -93
t-96 -37q-61 0 -98 37t-37 93z" />
    <glyph glyph-name="Ohungarumlaut" unicode="&#x150;" horiz-adv-x="688" 
d="M344 109q72 0 118 58.5t46 188.5q0 114 -47.5 174t-116.5 60q-70 0 -117 -60t-47 -174q0 -128 46 -187.5t118 -59.5zM344 -15q-60 0 -113 21t-96.5 63.5t-69 116t-25.5 170.5q0 87 25.5 157t69 113.5t97 66t112.5 22.5t112.5 -22.5t97 -66t69 -113.5t25.5 -157
q0 -97 -25.5 -170.5t-69 -116t-96.5 -63.5t-113 -21zM217 765l75 115h118l-104 -115h-89zM376 765l75 115h118l-104 -115h-89z" />
    <glyph glyph-name="ohungarumlaut" unicode="&#x151;" horiz-adv-x="566" 
d="M283 102q56 0 88 42.5t32 120.5t-32.5 120.5t-87.5 42.5t-87.5 -42t-32.5 -121t32 -121t88 -42zM283 -15q-108 0 -178 74t-70 206q0 130 72 205t176 75t176 -75t72 -205q0 -132 -70 -206t-178 -74zM157 611l75 115h118l-104 -115h-89zM316 611l75 115h118l-104 -115h-89z
" />
    <glyph glyph-name="OE" unicode="&#x152;" horiz-adv-x="989" 
d="M339 -15q-128 0 -213.5 91.5t-85.5 279.5q0 171 87.5 265t211.5 94q50 0 91 -16.5t59 -35.5h2v37h443v-125h-308v-147h280v-120h-280v-183h308v-125h-443v37h-2q-18 -19 -59 -35.5t-91 -16.5zM491 172v354q-45 64 -142 64q-75 0 -119.5 -57.5t-44.5 -176.5
q0 -135 43 -191t121 -56q96 0 142 63z" />
    <glyph glyph-name="oe" unicode="&#x153;" horiz-adv-x="919" 
d="M783 190l96 -57q-26 -64 -85 -106t-142 -42q-118 0 -184 93q-64 -93 -185 -93q-108 0 -178 74t-70 206q0 130 72 205t176 75q116 0 183 -93q63 93 177 93q107 0 174 -74t67 -206v-39h-351q3 -61 33.5 -93.5t83.5 -32.5q49 0 83 27t50 63zM283 102q56 0 88 42.5t32 120.5
q0 77 -33.5 120t-86.5 43t-86.5 -42.5t-33.5 -120.5q0 -79 32 -121t88 -42zM533 324h229q0 46 -32.5 77.5t-86.5 31.5q-53 0 -81.5 -31t-28.5 -78z" />
    <glyph glyph-name="Racute" unicode="&#x154;" horiz-adv-x="636" 
d="M80 0v700h284q108 0 174.5 -60.5t66.5 -162.5q0 -76 -39.5 -129t-108.5 -75l149 -273h-146l-141 260h-104v-260h-135zM215 377h138q115 0 115 100q0 101 -115 101h-138v-201zM237 765l81 125h138l-110 -125h-109z" />
    <glyph glyph-name="racute" unicode="&#x155;" horiz-adv-x="367" 
d="M70 0v530h123v-56h2q15 30 44.5 48t64.5 18q25 0 48 -10l-20 -126q-22 8 -41 8q-91 0 -91 -121v-291h-130zM141 595l81 125h138l-110 -125h-109z" />
    <glyph glyph-name="Rcommaaccent" unicode="&#x156;" horiz-adv-x="636" 
d="M80 0v700h284q108 0 174.5 -60.5t66.5 -162.5q0 -76 -39.5 -129t-108.5 -75l149 -273h-146l-141 260h-104v-260h-135zM215 377h138q115 0 115 100q0 101 -115 101h-138v-201zM273 -263v47q27 4 37.5 18t10.5 39h-54v113h122v-101q0 -109 -116 -116z" />
    <glyph glyph-name="rcommaaccent" unicode="&#x157;" horiz-adv-x="367" 
d="M70 0v530h123v-56h2q15 30 44.5 48t64.5 18q25 0 48 -10l-20 -126q-22 8 -41 8q-91 0 -91 -121v-291h-130zM90 -263v47q27 4 37.5 18t10.5 39h-54v113h122v-101q0 -109 -116 -116z" />
    <glyph glyph-name="Rcaron" unicode="&#x158;" horiz-adv-x="636" 
d="M80 0v700h284q108 0 174.5 -60.5t66.5 -162.5q0 -76 -39.5 -129t-108.5 -75l149 -273h-146l-141 260h-104v-260h-135zM215 377h138q115 0 115 100q0 101 -115 101h-138v-201zM230 765l-67 86l66 53l69 -86l67 86l68 -53l-68 -86h-135z" />
    <glyph glyph-name="rcaron" unicode="&#x159;" horiz-adv-x="367" 
d="M70 0v530h123v-56h2q15 30 44.5 48t64.5 18q25 0 48 -10l-20 -126q-22 8 -41 8q-91 0 -91 -121v-291h-130zM135 594l-67 86l66 53l69 -86l67 86l68 -53l-68 -86h-135z" />
    <glyph glyph-name="Sacute" unicode="&#x15a;" horiz-adv-x="598" 
d="M35 234l142 31q13 -82 42.5 -118.5t96.5 -36.5q57 0 91 20.5t34 60.5q0 42 -32.5 64.5t-148.5 58.5q-109 34 -154.5 82.5t-45.5 119.5q0 82 63.5 140.5t172.5 58.5q99 0 170.5 -48t89.5 -143l-131 -33q-31 99 -129 99q-52 0 -77.5 -20t-25.5 -53q0 -31 29 -47.5
t149 -57.5q116 -40 159 -86.5t43 -125.5q0 -93 -70 -154t-187 -61q-119 0 -192.5 62.5t-88.5 186.5zM242 765l81 125h138l-110 -125h-109z" />
    <glyph glyph-name="sacute" unicode="&#x15b;" horiz-adv-x="517" 
d="M30 175l117 30q14 -111 119 -111q48 0 76.5 15.5t28.5 43.5q0 23 -22 34.5t-92 31.5q-19 5 -29 8q-92 26 -135 61.5t-43 94.5q0 66 53.5 114t146.5 48q178 0 223 -156l-108 -33q-14 38 -39.5 60t-74.5 22q-38 0 -60.5 -14.5t-22.5 -34.5q0 -22 26.5 -34.5t132.5 -42.5
q93 -25 126.5 -63.5t33.5 -98.5q0 -64 -55.5 -114.5t-160.5 -50.5q-110 0 -169.5 55.5t-71.5 134.5zM205 595l81 125h138l-110 -125h-109z" />
    <glyph glyph-name="Scircumflex" unicode="&#x15c;" horiz-adv-x="598" 
d="M35 234l142 31q13 -82 42.5 -118.5t96.5 -36.5q57 0 91 20.5t34 60.5q0 42 -32.5 64.5t-148.5 58.5q-109 34 -154.5 82.5t-45.5 119.5q0 82 63.5 140.5t172.5 58.5q99 0 170.5 -48t89.5 -143l-131 -33q-31 99 -129 99q-52 0 -77.5 -20t-25.5 -53q0 -31 29 -47.5
t149 -57.5q116 -40 159 -86.5t43 -125.5q0 -93 -70 -154t-187 -61q-119 0 -192.5 62.5t-88.5 186.5zM164 800l67 86h135l68 -86l-68 -53l-67 86l-69 -86z" />
    <glyph glyph-name="scircumflex" unicode="&#x15d;" horiz-adv-x="517" 
d="M30 175l117 30q14 -111 119 -111q48 0 76.5 15.5t28.5 43.5q0 23 -22 34.5t-92 31.5q-19 5 -29 8q-92 26 -135 61.5t-43 94.5q0 66 53.5 114t146.5 48q178 0 223 -156l-108 -33q-14 38 -39.5 60t-74.5 22q-38 0 -60.5 -14.5t-22.5 -34.5q0 -22 26.5 -34.5t132.5 -42.5
q93 -25 126.5 -63.5t33.5 -98.5q0 -64 -55.5 -114.5t-160.5 -50.5q-110 0 -169.5 55.5t-71.5 134.5zM120 634l67 86h135l68 -86l-68 -53l-67 86l-69 -86z" />
    <glyph glyph-name="Scedilla" unicode="&#x15e;" horiz-adv-x="598" 
d="M217 -176l43 52q33 -32 73 -32q22 0 34.5 9t12.5 24q0 14 -12.5 22t-29.5 8q-14 0 -25.5 -4t-16.5 -8l-4 -4l-53 30l39 66q-103 10 -166 72t-77 175l142 31q13 -82 42.5 -118.5t96.5 -36.5q57 0 91 20.5t34 60.5q0 42 -32.5 64.5t-148.5 58.5q-109 34 -154.5 82.5
t-45.5 119.5q0 82 63.5 140.5t172.5 58.5q99 0 170.5 -48t89.5 -143l-131 -33q-31 99 -129 99q-52 0 -77.5 -20t-25.5 -53q0 -31 29 -47.5t149 -57.5q116 -40 159 -86.5t43 -125.5q0 -89 -64.5 -149t-173.5 -65l-27 -44l1 -1q22 15 55 15q34 0 61 -21.5t27 -59.5
q0 -45 -32 -71.5t-81 -26.5q-77 0 -122 47z" />
    <glyph glyph-name="scedilla" unicode="&#x15f;" horiz-adv-x="517" 
d="M175 -176l43 52q33 -32 73 -32q22 0 34.5 9t12.5 24q0 14 -12.5 22t-29.5 8q-14 0 -25.5 -4t-16.5 -8l-4 -4l-53 30l39 66q-94 9 -144.5 62.5t-61.5 125.5l117 30q14 -111 119 -111q48 0 76.5 15.5t28.5 43.5q0 23 -22 34.5t-92 31.5q-19 5 -29 8q-92 26 -135 61.5
t-43 94.5q0 66 53.5 114t146.5 48q178 0 223 -156l-108 -33q-14 38 -39.5 60t-74.5 22q-38 0 -60.5 -14.5t-22.5 -34.5q0 -22 26.5 -34.5t132.5 -42.5q93 -25 126.5 -63.5t33.5 -98.5t-49.5 -109t-143.5 -55l-28 -44l1 -1q22 15 55 15q34 0 61 -21.5t27 -59.5
q0 -45 -32 -71.5t-81 -26.5q-77 0 -122 47z" />
    <glyph glyph-name="Scaron" unicode="&#x160;" horiz-adv-x="598" 
d="M35 234l142 31q13 -82 42.5 -118.5t96.5 -36.5q57 0 91 20.5t34 60.5q0 42 -32.5 64.5t-148.5 58.5q-109 34 -154.5 82.5t-45.5 119.5q0 82 63.5 140.5t172.5 58.5q99 0 170.5 -48t89.5 -143l-131 -33q-31 99 -129 99q-52 0 -77.5 -20t-25.5 -53q0 -31 29 -47.5
t149 -57.5q116 -40 159 -86.5t43 -125.5q0 -93 -70 -154t-187 -61q-119 0 -192.5 62.5t-88.5 186.5zM225 765l-67 86l66 53l69 -86l67 86l68 -53l-68 -86h-135z" />
    <glyph glyph-name="scaron" unicode="&#x161;" horiz-adv-x="517" 
d="M30 175l117 30q14 -111 119 -111q48 0 76.5 15.5t28.5 43.5q0 23 -22 34.5t-92 31.5q-19 5 -29 8q-92 26 -135 61.5t-43 94.5q0 66 53.5 114t146.5 48q178 0 223 -156l-108 -33q-14 38 -39.5 60t-74.5 22q-38 0 -60.5 -14.5t-22.5 -34.5q0 -22 26.5 -34.5t132.5 -42.5
q93 -25 126.5 -63.5t33.5 -98.5q0 -64 -55.5 -114.5t-160.5 -50.5q-110 0 -169.5 55.5t-71.5 134.5zM177 594l-67 86l66 53l69 -86l67 86l68 -53l-68 -86h-135z" />
    <glyph glyph-name="Tcommaaccent" unicode="&#x162;" horiz-adv-x="565" 
d="M215 0v575h-205v125h545v-125h-205v-575h-135zM229 -263v47q27 4 37.5 18t10.5 39h-54v113h122v-101q0 -109 -116 -116z" />
    <glyph glyph-name="tcommaaccent" unicode="&#x163;" horiz-adv-x="387" 
d="M97 189v231h-82v110h85v130h123v-130h134v-110h-132v-219q0 -42 14 -59t57 -17h43v-125h-55q-107 0 -147 45t-40 144zM157 -263v47q27 4 37.5 18t10.5 39h-54v113h122v-101q0 -109 -116 -116z" />
    <glyph glyph-name="Tcaron" unicode="&#x164;" horiz-adv-x="565" 
d="M215 0v575h-205v125h545v-125h-205v-575h-135zM215 765l-67 86l66 53l69 -86l67 86l68 -53l-68 -86h-135z" />
    <glyph glyph-name="tcaron" unicode="&#x165;" horiz-adv-x="387" 
d="M97 189v231h-82v110h85v130h123v-130h134v-110h-132v-219q0 -42 14 -59t57 -17h43v-125h-55q-107 0 -147 45t-40 144zM298 565l32 165h103l-60 -165h-75z" />
    <glyph glyph-name="Tbar" unicode="&#x166;" horiz-adv-x="565" 
d="M215 0v289h-157v105h157v181h-205v125h545v-125h-205v-181h157v-105h-157v-289h-135z" />
    <glyph glyph-name="tbar" unicode="&#x167;" horiz-adv-x="387" 
d="M97 189v39h-82v105h82v87h-82v110h85v130h123v-130h134v-110h-132v-87h132v-105h-132v-27q0 -42 14 -59t57 -17h43v-125h-55q-107 0 -147 45t-40 144z" />
    <glyph glyph-name="Utilde" unicode="&#x168;" horiz-adv-x="657" 
d="M65 228v472h135v-466q0 -57 32.5 -90.5t95.5 -33.5t96 33t33 89v468h135v-472q0 -118 -72 -180.5t-192 -62.5t-191.5 62.5t-71.5 180.5zM240 765h-66q17 110 101 110q33 0 77 -20q36 -19 47 -19q29 0 37 34h66q-17 -110 -101 -110q-33 0 -77 20q-36 19 -47 19
q-29 0 -37 -34z" />
    <glyph glyph-name="utilde" unicode="&#x169;" horiz-adv-x="580" 
d="M65 188v342h130v-328q0 -50 19 -71t61 -21q47 0 76 24.5t29 77.5v318h130v-530h-124v51h-2q-49 -66 -138 -66q-92 0 -136.5 55t-44.5 148zM204 595h-66q17 110 101 110q33 0 77 -20q36 -19 47 -19q29 0 37 34h66q-17 -110 -101 -110q-33 0 -77 20q-36 19 -47 19
q-29 0 -37 -34z" />
    <glyph glyph-name="Umacron" unicode="&#x16a;" horiz-adv-x="657" 
d="M65 228v472h135v-466q0 -57 32.5 -90.5t95.5 -33.5t96 33t33 89v468h135v-472q0 -118 -72 -180.5t-192 -62.5t-191.5 62.5t-71.5 180.5zM184 765v80h288v-80h-288z" />
    <glyph glyph-name="umacron" unicode="&#x16b;" horiz-adv-x="580" 
d="M65 188v342h130v-328q0 -50 19 -71t61 -21q47 0 76 24.5t29 77.5v318h130v-530h-124v51h-2q-49 -66 -138 -66q-92 0 -136.5 55t-44.5 148zM148 620v80h288v-80h-288z" />
    <glyph glyph-name="Ubreve" unicode="&#x16c;" horiz-adv-x="657" 
d="M65 228v472h135v-466q0 -57 32.5 -90.5t95.5 -33.5t96 33t33 89v468h135v-472q0 -118 -72 -180.5t-192 -62.5t-191.5 62.5t-71.5 180.5zM194 885h64q3 -20 21 -36t50 -16t48 15.5t19 36.5h67q0 -56 -38 -93t-96 -37q-61 0 -98 37t-37 93z" />
    <glyph glyph-name="ubreve" unicode="&#x16d;" horiz-adv-x="580" 
d="M65 188v342h130v-328q0 -50 19 -71t61 -21q47 0 76 24.5t29 77.5v318h130v-530h-124v51h-2q-49 -66 -138 -66q-92 0 -136.5 55t-44.5 148zM162 715h64q3 -20 21 -36t50 -16t48 15.5t19 36.5h67q0 -56 -38 -93t-96 -37q-61 0 -98 37t-37 93z" />
    <glyph glyph-name="Uring" unicode="&#x16e;" horiz-adv-x="657" 
d="M65 228v472h135v-466q0 -57 32.5 -90.5t95.5 -33.5t96 33t33 89v468h135v-472q0 -118 -72 -180.5t-192 -62.5t-191.5 62.5t-71.5 180.5zM328 677q-46 0 -75 31t-29 77q0 45 30 76.5t74 31.5q46 0 75.5 -31t29.5 -77q0 -47 -29.5 -77.5t-75.5 -30.5zM328 735q16 0 29 13.5
t13 37.5t-12.5 36.5t-29.5 12.5q-16 0 -28 -12.5t-12 -36.5t12 -37.5t28 -13.5z" />
    <glyph glyph-name="uring" unicode="&#x16f;" horiz-adv-x="580" 
d="M65 188v342h130v-328q0 -50 19 -71t61 -21q47 0 76 24.5t29 77.5v318h130v-530h-124v51h-2q-49 -66 -138 -66q-92 0 -136.5 55t-44.5 148zM292 522q-46 0 -75 31t-29 77q0 45 30 76.5t74 31.5q46 0 75.5 -31t29.5 -77q0 -47 -29.5 -77.5t-75.5 -30.5zM292 580
q16 0 29 13.5t13 37.5t-12.5 36.5t-29.5 12.5q-16 0 -28 -12.5t-12 -36.5t12 -37.5t28 -13.5z" />
    <glyph glyph-name="Uhungarumlaut" unicode="&#x170;" horiz-adv-x="657" 
d="M65 228v472h135v-466q0 -57 32.5 -90.5t95.5 -33.5t96 33t33 89v468h135v-472q0 -118 -72 -180.5t-192 -62.5t-191.5 62.5t-71.5 180.5zM212 765l75 115h118l-104 -115h-89zM371 765l75 115h118l-104 -115h-89z" />
    <glyph glyph-name="uhungarumlaut" unicode="&#x171;" horiz-adv-x="580" 
d="M65 188v342h130v-328q0 -50 19 -71t61 -21q47 0 76 24.5t29 77.5v318h130v-530h-124v51h-2q-49 -66 -138 -66q-92 0 -136.5 55t-44.5 148zM170 611l75 115h118l-104 -115h-89zM329 611l75 115h118l-104 -115h-89z" />
    <glyph glyph-name="Uogonek" unicode="&#x172;" horiz-adv-x="657" 
d="M428 -108l38 -42q-64 -68 -143 -68q-92 0 -92 74q0 70 78 130q-112 5 -178 66.5t-66 175.5v472h135v-466q0 -57 32.5 -90.5t95.5 -33.5t96 33t33 89v468h135v-472q0 -102 -54.5 -163t-148.5 -75q-68 -60 -68 -110q0 -28 33 -28q36 0 74 40z" />
    <glyph glyph-name="uogonek" unicode="&#x173;" horiz-adv-x="580" 
d="M537 -108l38 -42q-64 -68 -143 -68q-92 0 -92 74q0 40 29 79t70 65h-53v51h-2q-49 -66 -138 -66q-92 0 -136.5 55t-44.5 148v342h130v-328q0 -50 19 -71t61 -21q47 0 76 24.5t29 77.5v318h130v-530q-80 -68 -80 -120q0 -28 33 -28q36 0 74 40z" />
    <glyph glyph-name="Wcircumflex" unicode="&#x174;" horiz-adv-x="907" 
d="M166 0l-136 700h137l90 -476h3l161 476h68l161 -476h3l90 476h134l-136 -700h-140l-144 435h-6l-145 -435h-140zM318 800l67 86h135l68 -86l-68 -53l-67 86l-69 -86z" />
    <glyph glyph-name="wcircumflex" unicode="&#x175;" horiz-adv-x="812" 
d="M147 0l-117 530h127l70 -354h3l118 354h118l109 -353h2l80 353h125l-127 -530h-128l-121 381h-2l-131 -381h-126zM266 634l67 86h135l68 -86l-68 -53l-67 86l-69 -86z" />
    <glyph glyph-name="Ycircumflex" unicode="&#x176;" horiz-adv-x="592" 
d="M229 0v295l-229 405h145l150 -287h2l150 287h145l-229 -405v-295h-134zM160 800l67 86h135l68 -86l-68 -53l-67 86l-69 -86z" />
    <glyph glyph-name="ycircumflex" unicode="&#x177;" horiz-adv-x="550" 
d="M111 -225l106 251l-212 504h132l137 -359h2l137 359h132l-305 -755h-129zM144 634l67 86h135l68 -86l-68 -53l-67 86l-69 -86z" />
    <glyph glyph-name="Ydieresis" unicode="&#x178;" horiz-adv-x="592" 
d="M229 0v295l-229 405h145l150 -287h2l150 287h145l-229 -405v-295h-134zM136 765v115h122v-115h-122zM335 765v115h122v-115h-122z" />
    <glyph glyph-name="Zacute" unicode="&#x179;" horiz-adv-x="586" 
d="M40 0v127l338 441v2h-324v130h492v-127l-340 -441v-2h340v-130h-506zM239 765l81 125h138l-110 -125h-109z" />
    <glyph glyph-name="zacute" unicode="&#x17a;" horiz-adv-x="538" 
d="M40 0v109l282 299v2h-271v120h437v-107l-276 -296v-2h286v-125h-458zM213 595l81 125h138l-110 -125h-109z" />
    <glyph glyph-name="Zdotaccent" unicode="&#x17b;" horiz-adv-x="586" 
d="M40 0v127l338 441v2h-324v130h492v-127l-340 -441v-2h340v-130h-506zM233 765v123h130v-123h-130z" />
    <glyph glyph-name="zdotaccent" unicode="&#x17c;" horiz-adv-x="538" 
d="M40 0v109l282 299v2h-271v120h437v-107l-276 -296v-2h286v-125h-458zM217 595v123h130v-123h-130z" />
    <glyph glyph-name="Zcaron" unicode="&#x17d;" horiz-adv-x="586" 
d="M40 0v127l338 441v2h-324v130h492v-127l-340 -441v-2h340v-130h-506zM243 765l-67 86l66 53l69 -86l67 86l68 -53l-68 -86h-135z" />
    <glyph glyph-name="zcaron" unicode="&#x17e;" horiz-adv-x="538" 
d="M40 0v109l282 299v2h-271v120h437v-107l-276 -296v-2h286v-125h-458zM207 594l-67 86l66 53l69 -86l67 86l68 -53l-68 -86h-135z" />
    <glyph glyph-name="longs" unicode="&#x17f;" horiz-adv-x="319" 
d="M83 0v420h-68v110h71v81q0 65 32 92t101 27h100v-115h-67q-24 0 -33.5 -9.5t-9.5 -32.5l4 -573h-130z" />
    <glyph glyph-name="florin" unicode="&#x192;" horiz-adv-x="507" 
d="M65 -173l93 533h-98l18 105h98l23 120q31 160 159 160q74 0 139 -58l-60 -103q-33 33 -63 33q-39 0 -48 -46l-20 -106h140l-18 -105h-140l-93 -533h-130z" />
    <glyph glyph-name="Aringacute" unicode="&#x1fa;" horiz-adv-x="630" 
d="M486 0l-40 115h-267l-40 -115h-134l251 695q-43 30 -43 90q0 38 22.5 67.5t56.5 37.5l60 92h138l-102 -116q34 -32 34 -81q0 -61 -47 -92l250 -693h-139zM312 500l-95 -273h191l-94 273h-2zM317 735q17 0 29.5 13.5t12.5 37.5t-12.5 36.5t-29.5 12.5q-16 0 -28 -12.5
t-12 -36.5t12 -37.5t28 -13.5z" />
    <glyph glyph-name="aringacute" unicode="&#x1fb;" horiz-adv-x="541" 
d="M372 0v51h-2l-5 -7.5t-15 -15.5t-27 -20t-41 -16t-56 -7q-96 0 -143.5 45.5t-47.5 111.5q0 69 41 105t139 60q91 22 114 35t23 37t-22.5 40t-67.5 16q-53 0 -76 -23.5t-36 -63.5l-108 45q16 57 58.5 97t110.5 51q-42 31 -42 89q0 37 22 66.5t57 38.5l60 93h138l-103 -117
q35 -30 35 -81q0 -62 -48 -93q69 -16 110 -65.5t41 -135.5v-336h-109zM241 217q-50 -12 -65.5 -28.5t-15.5 -37.5q0 -54 78 -54q59 0 88.5 22.5t29.5 55.5v92h-2q-4 -8 -8.5 -12.5t-30.5 -15t-74 -22.5zM273 580q17 0 29.5 13.5t12.5 37.5t-12.5 36.5t-29.5 12.5
q-16 0 -28 -12.5t-12 -36.5t12 -37.5t28 -13.5z" />
    <glyph glyph-name="AEacute" unicode="&#x1fc;" horiz-adv-x="871" 
d="M484 0h-71v122h-222l-47 -122h-139l263 700h548v-125h-268v-157h240v-117h-240v-176h268v-125h-331l-1 3v-3zM234 242h179v333h-59zM344 765l81 125h138l-110 -125h-109z" />
    <glyph glyph-name="aeacute" unicode="&#x1fd;" horiz-adv-x="879" 
d="M734 193l100 -69q-72 -139 -227 -139q-116 0 -186 82h-2q-2 -3 -6.5 -8.5t-21 -20t-36.5 -25t-54.5 -19.5t-74.5 -9q-96 0 -143.5 45.5t-47.5 111.5t39.5 103.5t140.5 61.5q89 22 113 35t24 37t-22.5 40t-66.5 16q-37 0 -61.5 -14.5t-34 -30.5t-17.5 -42l-108 45
q19 66 74 109t145 43q113 0 173 -69h2q71 69 165 69q106 0 174.5 -76.5t68.5 -203.5v-39h-356q3 -61 33.5 -93.5t83.5 -32.5q27 0 47.5 7.5t36.5 24t24 28t21 33.5zM241 217q-50 -12 -65.5 -28.5t-15.5 -37.5q0 -54 78 -54q59 0 88.5 22.5t29.5 55.5v92h-2q-4 -8 -8.5 -12.5
t-30.5 -15t-74 -22.5zM488 323h230q-5 51 -35 79.5t-82 28.5q-48 0 -78.5 -31t-34.5 -77zM213 595l81 125h138l-110 -125h-109z" />
    <glyph glyph-name="Oslashacute" unicode="&#x1fe;" horiz-adv-x="688" 
d="M295 765l81 125h138l-110 -125h-109zM118 18l24 43q-102 99 -102 295q0 87 25.5 157t69 113.5t97 66t112.5 22.5q80 0 147 -40l23 40l55 -34l-26 -45q105 -100 105 -280q0 -97 -25.5 -170.5t-69 -116t-96.5 -63.5t-113 -21q-82 0 -149 37l-21 -37zM472 511l-213 -376
q36 -26 85 -26q72 0 118 58.5t46 188.5q0 94 -36 155zM214 187l213 376q-37 27 -83 27q-70 0 -117 -60t-47 -174q0 -106 34 -169z" />
    <glyph glyph-name="oslashacute" unicode="&#x1ff;" horiz-adv-x="566" 
d="M228 595l81 125h138l-110 -125h-109zM58 18l39 50q-62 75 -62 197q0 130 72 205t176 75q83 0 147 -49l38 49l40 -34l-40 -51q63 -76 63 -195q0 -132 -70 -206t-178 -74q-87 0 -149 47l-36 -47zM386 355l-177 -227q29 -26 74 -26q56 0 88 42.5t32 120.5q0 53 -17 90z
M178 173l177 227q-31 28 -72 28q-53 0 -86.5 -42.5t-33.5 -120.5q0 -56 15 -92z" />
    <glyph glyph-name="Scommaaccent" unicode="&#x218;" horiz-adv-x="598" 
d="M35 234l142 31q13 -82 42.5 -118.5t96.5 -36.5q57 0 91 20.5t34 60.5q0 42 -32.5 64.5t-148.5 58.5q-109 34 -154.5 82.5t-45.5 119.5q0 82 63.5 140.5t172.5 58.5q99 0 170.5 -48t89.5 -143l-131 -33q-31 99 -129 99q-52 0 -77.5 -20t-25.5 -53q0 -31 29 -47.5
t149 -57.5q116 -40 159 -86.5t43 -125.5q0 -93 -70 -154t-187 -61q-119 0 -192.5 62.5t-88.5 186.5zM274 -263v47q27 4 37.5 18t10.5 39h-54v113h122v-101q0 -109 -116 -116z" />
    <glyph glyph-name="scommaaccent" unicode="&#x219;" horiz-adv-x="517" 
d="M30 175l117 30q14 -111 119 -111q48 0 76.5 15.5t28.5 43.5q0 23 -22 34.5t-92 31.5q-19 5 -29 8q-92 26 -135 61.5t-43 94.5q0 66 53.5 114t146.5 48q178 0 223 -156l-108 -33q-14 38 -39.5 60t-74.5 22q-38 0 -60.5 -14.5t-22.5 -34.5q0 -22 26.5 -34.5t132.5 -42.5
q93 -25 126.5 -63.5t33.5 -98.5q0 -64 -55.5 -114.5t-160.5 -50.5q-110 0 -169.5 55.5t-71.5 134.5zM211 -263v47q27 4 37.5 18t10.5 39h-54v113h122v-101q0 -109 -116 -116z" />
    <glyph glyph-name="dotlessj" unicode="&#x237;" horiz-adv-x="267" 
d="M10 -195v119h24q38 0 38 44v562h130v-582q0 -143 -137 -143h-55z" />
    <glyph glyph-name="circumflex" unicode="&#x2c6;" horiz-adv-x="310" 
d="M20 634l67 86h135l68 -86l-68 -53l-67 86l-69 -86z" />
    <glyph glyph-name="caron" unicode="&#x2c7;" horiz-adv-x="310" 
d="M87 594l-67 86l66 53l69 -86l67 86l68 -53l-68 -86h-135z" />
    <glyph glyph-name="breve" unicode="&#x2d8;" horiz-adv-x="329" 
d="M30 715h64q3 -20 21 -36t50 -16t48 15.5t19 36.5h67q0 -56 -38 -93t-96 -37q-61 0 -98 37t-37 93z" />
    <glyph glyph-name="dotaccent" unicode="&#x2d9;" horiz-adv-x="270" 
d="M70 595v123h130v-123h-130z" />
    <glyph glyph-name="ring" unicode="&#x2da;" horiz-adv-x="289" 
d="M144 522q-46 0 -75 31t-29 77q0 45 30 76.5t74 31.5q46 0 75.5 -31t29.5 -77q0 -47 -29.5 -77.5t-75.5 -30.5zM144 580q16 0 29 13.5t13 37.5t-12.5 36.5t-29.5 12.5q-16 0 -28 -12.5t-12 -36.5t12 -37.5t28 -13.5z" />
    <glyph glyph-name="ogonek" unicode="&#x2db;" horiz-adv-x="275" 
d="M217 -108l38 -42q-64 -68 -143 -68q-92 0 -92 74q0 40 29 79t70 65h71q-80 -68 -80 -120q0 -28 33 -28q36 0 74 40z" />
    <glyph glyph-name="tilde" unicode="&#x2dc;" horiz-adv-x="408" 
d="M106 595h-66q17 110 101 110q33 0 77 -20q36 -19 47 -19q29 0 37 34h66q-17 -110 -101 -110q-33 0 -77 20q-36 19 -47 19q-29 0 -37 -34z" />
    <glyph glyph-name="hungarumlaut" unicode="&#x2dd;" horiz-adv-x="492" 
d="M70 595l75 115h118l-104 -115h-89zM229 595l75 115h118l-104 -115h-89z" />
    <glyph glyph-name="uni0312" unicode="&#x312;" horiz-adv-x="279" 
d="M192 798v-40q-44 -9 -44 -58h51v-118h-119v99q0 108 112 117z" />
    <glyph glyph-name="pi" unicode="&#x3c0;" horiz-adv-x="704" 
d="M207 0h-125q11 35 27 93.5t42.5 212t26.5 274.5h-108v120h574v-120h-76v-431q0 -91 13 -149h-122q-17 30 -17 143v437h-139q0 -120 -24 -265t-48 -230z" />
    <glyph glyph-name="Wgrave" unicode="&#x1e80;" horiz-adv-x="907" 
d="M166 0l-136 700h137l90 -476h3l161 476h68l161 -476h3l90 476h134l-136 -700h-140l-144 435h-6l-145 -435h-140zM395 765l-110 125h138l81 -125h-109z" />
    <glyph glyph-name="wgrave" unicode="&#x1e81;" horiz-adv-x="812" 
d="M147 0l-117 530h127l70 -354h3l118 354h118l109 -353h2l80 353h125l-127 -530h-128l-121 381h-2l-131 -381h-126zM356 595l-110 125h138l81 -125h-109z" />
    <glyph glyph-name="Wacute" unicode="&#x1e82;" horiz-adv-x="907" 
d="M166 0l-136 700h137l90 -476h3l161 476h68l161 -476h3l90 476h134l-136 -700h-140l-144 435h-6l-145 -435h-140zM402 765l81 125h138l-110 -125h-109z" />
    <glyph glyph-name="wacute" unicode="&#x1e83;" horiz-adv-x="812" 
d="M147 0l-117 530h127l70 -354h3l118 354h118l109 -353h2l80 353h125l-127 -530h-128l-121 381h-2l-131 -381h-126zM349 595l81 125h138l-110 -125h-109z" />
    <glyph glyph-name="Wdieresis" unicode="&#x1e84;" horiz-adv-x="907" 
d="M166 0l-136 700h137l90 -476h3l161 476h68l161 -476h3l90 476h134l-136 -700h-140l-144 435h-6l-145 -435h-140zM293 765v115h122v-115h-122zM492 765v115h122v-115h-122z" />
    <glyph glyph-name="wdieresis" unicode="&#x1e85;" horiz-adv-x="812" 
d="M147 0l-117 530h127l70 -354h3l118 354h118l109 -353h2l80 353h125l-127 -530h-128l-121 381h-2l-131 -381h-126zM239 595v115h122v-115h-122zM438 595v115h122v-115h-122z" />
    <glyph glyph-name="Ygrave" unicode="&#x1ef2;" horiz-adv-x="592" 
d="M229 0v295l-229 405h145l150 -287h2l150 287h145l-229 -405v-295h-134zM253 765l-110 125h138l81 -125h-109z" />
    <glyph glyph-name="ygrave" unicode="&#x1ef3;" horiz-adv-x="550" 
d="M111 -225l106 251l-212 504h132l137 -359h2l137 359h132l-305 -755h-129zM227 595l-110 125h138l81 -125h-109z" />
    <glyph glyph-name="endash" unicode="&#x2013;" horiz-adv-x="579" 
d="M40 268v110h499v-110h-499z" />
    <glyph glyph-name="emdash" unicode="&#x2014;" horiz-adv-x="969" 
d="M90 268v110h789v-110h-789z" />
    <glyph glyph-name="quoteleft" unicode="&#x2018;" horiz-adv-x="309" 
d="M229 492v-68q-149 11 -149 150v126h149v-142h-49q0 -34 8 -47t41 -19z" />
    <glyph glyph-name="quoteright" unicode="&#x2019;" horiz-adv-x="309" 
d="M80 424v68q33 6 41 19t8 47h-49v142h149v-126q0 -139 -149 -150z" />
    <glyph glyph-name="quotesinglbase" unicode="&#x201a;" horiz-adv-x="309" 
d="M80 -134v68q33 6 41 19t8 47h-49v142h149v-126q0 -139 -149 -150z" />
    <glyph glyph-name="quotedblleft" unicode="&#x201c;" horiz-adv-x="528" 
d="M229 492v-68q-149 11 -149 150v126h149v-142h-49q0 -34 8 -47t41 -19zM448 492v-68q-149 11 -149 150v126h149v-142h-49q0 -34 8 -47t41 -19z" />
    <glyph glyph-name="quotedblright" unicode="&#x201d;" horiz-adv-x="528" 
d="M80 424v68q33 6 41 19t8 47h-49v142h149v-126q0 -139 -149 -150zM299 424v68q33 6 41 19t8 47h-49v142h149v-126q0 -139 -149 -150z" />
    <glyph glyph-name="quotedblbase" unicode="&#x201e;" horiz-adv-x="528" 
d="M80 -134v68q33 6 41 19t8 47h-49v142h149v-126q0 -139 -149 -150zM299 -134v68q33 6 41 19t8 47h-49v142h149v-126q0 -139 -149 -150z" />
    <glyph glyph-name="dagger" unicode="&#x2020;" horiz-adv-x="633" 
d="M259 -225v616h-219v110h219v229h115v-229h219v-110h-219v-616h-115z" />
    <glyph glyph-name="daggerdbl" unicode="&#x2021;" horiz-adv-x="633" 
d="M259 -225v225h-219v110h219v281h-219v110h219v229h115v-229h219v-110h-219v-281h219v-110h-219v-225h-115z" />
    <glyph glyph-name="bullet" unicode="&#x2022;" horiz-adv-x="333" 
d="M166 204q-54 0 -87.5 34.5t-33.5 88.5q0 55 33.5 89.5t87.5 34.5t88 -35t34 -89t-34 -88.5t-88 -34.5z" />
    <glyph glyph-name="ellipsis" unicode="&#x2026;" horiz-adv-x="907" 
d="M80 0v142h149v-142h-149zM379 0v142h149v-142h-149zM678 0v142h149v-142h-149z" />
    <glyph glyph-name="perthousand" unicode="&#x2030;" horiz-adv-x="1321" 
d="M1095 78q34 0 52.5 31.5t18.5 85.5q0 106 -71 106q-70 0 -70 -106q0 -54 18 -85.5t52 -31.5zM1095 -12q-71 0 -118 51.5t-47 157.5q0 94 49 145t116 51t116.5 -51.5t49.5 -144.5q0 -95 -48.5 -152t-117.5 -57zM701 78q34 0 52.5 31.5t18.5 85.5q0 106 -71 106
q-70 0 -70 -106q0 -54 18 -85.5t52 -31.5zM701 -12q-71 0 -118 51.5t-47 157.5q0 94 49 145t116 51t116.5 -51.5t49.5 -144.5q0 -95 -48.5 -152t-117.5 -57zM225 397q34 0 52.5 31.5t18.5 85.5q0 106 -71 106q-70 0 -70 -106q0 -54 18 -85.5t52 -31.5zM225 307
q-71 0 -118 51.5t-47 157.5q0 94 49 145t116 51t116.5 -51.5t49.5 -144.5q0 -95 -48.5 -152t-117.5 -57zM186 -34l489 815l72 -45l-488 -814z" />
    <glyph glyph-name="guilsinglleft" unicode="&#x2039;" horiz-adv-x="378" 
d="M198 80l-118 201l109 186h110l-110 -186l119 -201h-110z" />
    <glyph glyph-name="guilsinglright" unicode="&#x203a;" horiz-adv-x="378" 
d="M298 281l-118 -201h-110l119 201l-110 186h110z" />
    <glyph glyph-name="fraction" unicode="&#x2044;" horiz-adv-x="321" 
d="M-120 -34l489 815l72 -45l-488 -814z" />
    <glyph glyph-name="zerosuperior" unicode="&#x2070;" horiz-adv-x="375" 
d="M187 468q-74 0 -118 54t-44 171q0 105 44 158.5t118 53.5t118.5 -53.5t44.5 -158.5q0 -117 -44.5 -171t-118.5 -54zM187 554q37 0 53.5 29t16.5 110q0 69 -17 97t-53 28t-53 -28.5t-17 -96.5q0 -81 17 -110t53 -29z" />
    <glyph glyph-name="foursuperior" unicode="&#x2074;" horiz-adv-x="378" 
d="M15 551v82l162 267h125v-267h46v-82h-46v-78h-90v78h-197zM99 633h114v186h-2z" />
    <glyph glyph-name="fivesuperior" unicode="&#x2075;" horiz-adv-x="371" 
d="M25 577l81 40q21 -67 80 -67q32 0 52.5 18t20.5 52t-20.5 52.5t-50.5 18.5q-54 0 -84 -41l-66 34l37 216h231v-82h-165l-16 -88l2 -1q7 10 29.5 20.5t54.5 10.5q56 0 95.5 -40.5t39.5 -101.5q0 -71 -46 -110.5t-114 -39.5q-117 0 -161 109z" />
    <glyph glyph-name="sixsuperior" unicode="&#x2076;" horiz-adv-x="376" 
d="M202 553q33 0 49.5 19t16.5 50q0 30 -17.5 48t-51.5 18q-33 0 -51.5 -20.5t-18.5 -47.5q0 -32 19.5 -49.5t53.5 -17.5zM116 713h2q34 42 102 42q51 0 91 -37t40 -104t-43 -106.5t-106 -39.5q-79 0 -128 55.5t-49 158.5q0 92 47.5 157.5t129.5 65.5q59 0 93 -30.5
t44 -77.5l-81 -21q-12 50 -62 50q-36 0 -57 -32.5t-23 -80.5z" />
    <glyph glyph-name="sevensuperior" unicode="&#x2077;" horiz-adv-x="301" 
d="M13 473l191 344v2h-209v81h296v-95l-176 -332h-102z" />
    <glyph glyph-name="eightsuperior" unicode="&#x2078;" horiz-adv-x="338" 
d="M115 784q0 -19 13 -31.5t40 -12.5t40 12.5t13 31.5q0 20 -13 34t-40 14t-40 -14t-13 -34zM88 706v2q-55 23 -55 84q0 48 38.5 80.5t96.5 32.5q59 0 98.5 -32.5t39.5 -80.5q0 -58 -56 -84v-2q34 -13 53.5 -42.5t19.5 -66.5q0 -60 -43.5 -94.5t-111.5 -34.5
q-67 0 -110 34.5t-43 94.5q0 38 19 67.5t54 41.5zM100 609q0 -26 17 -42.5t51 -16.5t51.5 16.5t17.5 42.5q0 27 -18.5 45t-50.5 18q-30 0 -49 -18t-19 -45z" />
    <glyph glyph-name="ninesuperior" unicode="&#x2079;" horiz-adv-x="370" 
d="M34 571l79 30q8 -27 24.5 -40t49.5 -13q34 0 53.5 26t15.5 82h-2q-5 -13 -29 -27.5t-66 -14.5q-52 0 -95.5 39.5t-43.5 104.5q0 67 43.5 107t108.5 40q69 0 118.5 -54.5t49.5 -167.5q0 -106 -40.5 -160.5t-116.5 -54.5q-122 0 -149 103zM175 692q30 0 48.5 17.5
t18.5 47.5q0 31 -18 49.5t-52 18.5q-30 0 -49 -19.5t-19 -47.5q0 -29 19.5 -47.5t51.5 -18.5z" />
    <glyph glyph-name="plussuperior" unicode="&#x207a;" horiz-adv-x="416" 
d="M167 517v143h-127v79h127v128h82v-128h127v-79h-127v-143h-82z" />
    <glyph glyph-name="minussuperior" unicode="&#x207b;" horiz-adv-x="386" 
d="M346 660h-306v79h306v-79z" />
    <glyph glyph-name="zeroinferior" unicode="&#x2080;" horiz-adv-x="375" 
d="M187 -205q-74 0 -118 54t-44 171q0 105 44 158.5t118 53.5t118.5 -53.5t44.5 -158.5q0 -117 -44.5 -171t-118.5 -54zM187 -119q37 0 53.5 29t16.5 110q0 69 -17 97t-53 28t-53 -28.5t-17 -96.5q0 -81 17 -110t53 -29z" />
    <glyph glyph-name="oneinferior" unicode="&#x2081;" horiz-adv-x="260" 
d="M102 -200v325l-92 -57v98l98 61h82v-427h-88z" />
    <glyph glyph-name="twoinferior" unicode="&#x2082;" horiz-adv-x="346" 
d="M26 -200v67q0 55 29 87q26 30 94 62q59 29 72 43q16 17 16 42q0 51 -61 51q-60 0 -71 -79l-85 11q5 70 46.5 109t112.5 39q60 0 101.5 -36t41.5 -101q0 -48 -29.5 -78.5t-80.5 -54.5q-73 -36 -82 -51q-6 -9 -6 -19h202v-92h-300z" />
    <glyph glyph-name="threeinferior" unicode="&#x2083;" horiz-adv-x="339" 
d="M5 -60l86 20q12 -85 80 -85q70 0 70 56q0 55 -73 55h-28v69h27q52 0 52 46q0 51 -54 51q-48 0 -57 -59l-83 16q6 58 44.5 90.5t99.5 32.5q58 0 95.5 -31.5t37.5 -84.5q0 -34 -16 -55t-33 -29v-2q24 -7 47.5 -33t23.5 -74q0 -55 -39.5 -91.5t-113.5 -36.5q-69 0 -113 37
t-53 108z" />
    <glyph glyph-name="fourinferior" unicode="&#x2084;" horiz-adv-x="378" 
d="M15 -122v82l162 267h125v-267h46v-82h-46v-78h-90v78h-197zM99 -40h114v186h-2z" />
    <glyph glyph-name="fiveinferior" unicode="&#x2085;" horiz-adv-x="371" 
d="M25 -96l81 40q21 -67 80 -67q32 0 52.5 18t20.5 52t-20.5 52.5t-50.5 18.5q-54 0 -84 -41l-66 34l37 216h231v-82h-165l-16 -88l2 -1q7 10 29.5 20.5t54.5 10.5q56 0 95.5 -40.5t39.5 -101.5q0 -71 -46 -110.5t-114 -39.5q-117 0 -161 109z" />
    <glyph glyph-name="sixinferior" unicode="&#x2086;" horiz-adv-x="376" 
d="M202 -120q33 0 49.5 19t16.5 50q0 30 -17.5 48t-51.5 18q-33 0 -51.5 -20.5t-18.5 -47.5q0 -32 19.5 -49.5t53.5 -17.5zM116 40h2q34 42 102 42q51 0 91 -37t40 -104t-43 -106.5t-106 -39.5q-79 0 -128 55.5t-49 158.5q0 92 47.5 157.5t129.5 65.5q59 0 93 -30.5
t44 -77.5l-81 -21q-12 50 -62 50q-36 0 -57 -32.5t-23 -80.5z" />
    <glyph glyph-name="seveninferior" unicode="&#x2087;" horiz-adv-x="301" 
d="M13 -200l191 344v2h-209v81h296v-95l-176 -332h-102z" />
    <glyph glyph-name="eightinferior" unicode="&#x2088;" horiz-adv-x="338" 
d="M115 111q0 -19 13 -31.5t40 -12.5t40 12.5t13 31.5q0 20 -13 34t-40 14t-40 -14t-13 -34zM88 33v2q-55 23 -55 84q0 48 38.5 80.5t96.5 32.5q59 0 98.5 -32.5t39.5 -80.5q0 -58 -56 -84v-2q34 -13 53.5 -42.5t19.5 -66.5q0 -60 -43.5 -94.5t-111.5 -34.5q-67 0 -110 34.5
t-43 94.5q0 38 19 67.5t54 41.5zM100 -64q0 -26 17 -42.5t51 -16.5t51.5 16.5t17.5 42.5q0 27 -18.5 45t-50.5 18q-30 0 -49 -18t-19 -45z" />
    <glyph glyph-name="nineinferior" unicode="&#x2089;" horiz-adv-x="370" 
d="M34 -102l79 30q8 -27 24.5 -40t49.5 -13q34 0 53.5 26t15.5 82h-2q-5 -13 -29 -27.5t-66 -14.5q-52 0 -95.5 39.5t-43.5 104.5q0 67 43.5 107t108.5 40q69 0 118.5 -54.5t49.5 -167.5q0 -106 -40.5 -160.5t-116.5 -54.5q-122 0 -149 103zM175 19q30 0 48.5 17.5
t18.5 47.5q0 31 -18 49.5t-52 18.5q-30 0 -49 -19.5t-19 -47.5q0 -29 19.5 -47.5t51.5 -18.5z" />
    <glyph glyph-name="Euro" unicode="&#x20ac;" horiz-adv-x="751" 
d="M561 278l140 -31q-17 -122 -89 -192t-188 -70q-107 0 -183.5 58.5t-105.5 178.5h-75v90h62q-2 32 -2 49v18h-60v90h72q27 117 108.5 181.5t182.5 64.5q108 0 183.5 -67.5t87.5 -181.5l-134 -21q-9 64 -42 104.5t-94 40.5q-49 0 -89 -31.5t-60 -89.5h170v-90h-186v-18
q0 -19 2 -49h184v-90h-166q41 -112 145 -112q118 0 137 168z" />
    <glyph glyph-name="trademark" unicode="&#x2122;" horiz-adv-x="753" 
d="M129 361v263h-89v76h258v-76h-89v-263h-80zM348 361v339h79l110 -233h2l109 233h80v-339h-76v187h-2l-87 -187h-50l-87 180h-2v-180h-76z" />
    <glyph glyph-name="Omega" unicode="&#x2126;" horiz-adv-x="678" 
d="M53 0v100h77q-80 112 -80 261q0 172 82.5 263t206.5 91t206.5 -91t82.5 -263q0 -150 -81 -261h78v-100h-251v89v1q33 9 58.5 35t43 83t17.5 139q0 238 -154 238q-69 0 -111.5 -57t-42.5 -181q0 -82 17.5 -139t43 -83t58.5 -35v-90h-251z" />
    <glyph glyph-name="onethird" unicode="&#x2153;" horiz-adv-x="847" 
d="M116 -34l489 815l72 -45l-488 -814zM107 273v325l-92 -57v98l98 61h82v-427h-88zM483 140l86 20q12 -85 80 -85q70 0 70 56q0 55 -73 55h-28v69h27q52 0 52 46q0 51 -54 51q-48 0 -57 -59l-83 16q6 58 44.5 90.5t99.5 32.5q58 0 95.5 -31.5t37.5 -84.5q0 -34 -16 -55
t-33 -29v-2q24 -7 47.5 -33t23.5 -74q0 -55 -39.5 -91.5t-113.5 -36.5q-69 0 -113 37t-53 108z" />
    <glyph glyph-name="twothirds" unicode="&#x2154;" horiz-adv-x="942" 
d="M218 -34l489 815l72 -45l-488 -814zM16 273v67q0 55 29 87q26 30 94 62q59 29 72 43q16 17 16 42q0 51 -61 51q-60 0 -71 -79l-85 11q5 70 46.5 109t112.5 39q60 0 101.5 -36t41.5 -101q0 -48 -29.5 -78.5t-80.5 -54.5q-73 -36 -82 -51q-6 -9 -6 -19h202v-92h-300z
M578 142l86 20q12 -85 80 -85q70 0 70 56q0 55 -73 55h-28v69h27q52 0 52 46q0 51 -54 51q-48 0 -57 -59l-83 16q6 58 44.5 90.5t99.5 32.5q58 0 95.5 -31.5t37.5 -84.5q0 -34 -16 -55t-33 -29v-2q24 -7 47.5 -33t23.5 -74q0 -55 -39.5 -91.5t-113.5 -36.5q-69 0 -113 37
t-53 108z" />
    <glyph glyph-name="onefifth" unicode="&#x2155;" horiz-adv-x="845" 
d="M116 -34l489 815l72 -45l-488 -814zM107 273v325l-92 -57v98l98 61h82v-427h-88zM504 104l81 40q21 -67 80 -67q32 0 52.5 18t20.5 52t-20.5 52.5t-50.5 18.5q-54 0 -84 -41l-66 34l37 216h231v-82h-165l-16 -88l2 -1q7 10 29.5 20.5t54.5 10.5q56 0 95.5 -40.5
t39.5 -101.5q0 -71 -46 -110.5t-114 -39.5q-117 0 -161 109z" />
    <glyph glyph-name="twofifths" unicode="&#x2156;" horiz-adv-x="948" 
d="M218 -34l489 815l72 -45l-488 -814zM16 273v67q0 55 29 87q26 30 94 62q59 29 72 43q16 17 16 42q0 51 -61 51q-60 0 -71 -79l-85 11q5 70 46.5 109t112.5 39q60 0 101.5 -36t41.5 -101q0 -48 -29.5 -78.5t-80.5 -54.5q-73 -36 -82 -51q-6 -9 -6 -19h202v-92h-300z
M607 104l81 40q21 -67 80 -67q32 0 52.5 18t20.5 52t-20.5 52.5t-50.5 18.5q-54 0 -84 -41l-66 34l37 216h231v-82h-165l-16 -88l2 -1q7 10 29.5 20.5t54.5 10.5q56 0 95.5 -40.5t39.5 -101.5q0 -71 -46 -110.5t-114 -39.5q-117 0 -161 109z" />
    <glyph glyph-name="threefifths" unicode="&#x2157;" horiz-adv-x="940" 
d="M198 -34l489 815l72 -45l-488 -814zM25 413l86 20q12 -85 80 -85q70 0 70 56q0 55 -73 55h-28v69h27q52 0 52 46q0 51 -54 51q-48 0 -57 -59l-83 16q6 58 44.5 90.5t99.5 32.5q58 0 95.5 -31.5t37.5 -84.5q0 -34 -16 -55t-33 -29v-2q24 -7 47.5 -33t23.5 -74
q0 -55 -39.5 -91.5t-113.5 -36.5q-69 0 -113 37t-53 108zM599 104l81 40q21 -67 80 -67q32 0 52.5 18t20.5 52t-20.5 52.5t-50.5 18.5q-54 0 -84 -41l-66 34l37 216h231v-82h-165l-16 -88l2 -1q7 10 29.5 20.5t54.5 10.5q56 0 95.5 -40.5t39.5 -101.5q0 -71 -46 -110.5
t-114 -39.5q-117 0 -161 109z" />
    <glyph glyph-name="fourfifths" unicode="&#x2158;" horiz-adv-x="945" 
d="M205 -34l489 815l72 -45l-488 -814zM20 351v82l162 267h125v-267h46v-82h-46v-78h-90v78h-197zM104 433h114v186h-2zM604 104l81 40q21 -67 80 -67q32 0 52.5 18t20.5 52t-20.5 52.5t-50.5 18.5q-54 0 -84 -41l-66 34l37 216h231v-82h-165l-16 -88l2 -1q7 10 29.5 20.5
t54.5 10.5q56 0 95.5 -40.5t39.5 -101.5q0 -71 -46 -110.5t-114 -39.5q-117 0 -161 109z" />
    <glyph glyph-name="onesixth" unicode="&#x2159;" horiz-adv-x="841" 
d="M116 -34l489 815l72 -45l-488 -814zM107 273v325l-92 -57v98l98 61h82v-427h-88zM672 80q33 0 49.5 19t16.5 50q0 30 -17.5 48t-51.5 18q-33 0 -51.5 -20.5t-18.5 -47.5q0 -32 19.5 -49.5t53.5 -17.5zM586 240h2q34 42 102 42q51 0 91 -37t40 -104t-43 -106.5t-106 -39.5
q-79 0 -128 55.5t-49 158.5q0 92 47.5 157.5t129.5 65.5q59 0 93 -30.5t44 -77.5l-81 -21q-12 50 -62 50q-36 0 -57 -32.5t-23 -80.5z" />
    <glyph glyph-name="fivesixths" unicode="&#x215a;" horiz-adv-x="924" 
d="M190 -34l489 815l72 -45l-488 -814zM30 377l81 40q21 -67 80 -67q32 0 52.5 18t20.5 52t-20.5 52.5t-50.5 18.5q-54 0 -84 -41l-66 34l37 216h231v-82h-165l-16 -88l2 -1q7 10 29.5 20.5t54.5 10.5q56 0 95.5 -40.5t39.5 -101.5q0 -71 -46 -110.5t-114 -39.5
q-117 0 -161 109zM750 80q33 0 49.5 19t16.5 50q0 30 -17.5 48t-51.5 18q-33 0 -51.5 -20.5t-18.5 -47.5q0 -32 19.5 -49.5t53.5 -17.5zM664 240h2q34 42 102 42q51 0 91 -37t40 -104t-43 -106.5t-106 -39.5q-79 0 -128 55.5t-49 158.5q0 92 47.5 157.5t129.5 65.5
q59 0 93 -30.5t44 -77.5l-81 -21q-12 50 -62 50q-36 0 -57 -32.5t-23 -80.5z" />
    <glyph glyph-name="oneeighth" unicode="&#x215b;" horiz-adv-x="828" 
d="M116 -34l489 815l72 -45l-488 -814zM107 273v325l-92 -57v98l98 61h82v-427h-88zM580 311q0 -19 13 -31.5t40 -12.5t40 12.5t13 31.5q0 20 -13 34t-40 14t-40 -14t-13 -34zM553 233v2q-55 23 -55 84q0 48 38.5 80.5t96.5 32.5q59 0 98.5 -32.5t39.5 -80.5q0 -58 -56 -84
v-2q34 -13 53.5 -42.5t19.5 -66.5q0 -60 -43.5 -94.5t-111.5 -34.5q-67 0 -110 34.5t-43 94.5q0 38 19 67.5t54 41.5zM565 136q0 -26 17 -42.5t51 -16.5t51.5 16.5t17.5 42.5q0 27 -18.5 45t-50.5 18q-30 0 -49 -18t-19 -45z" />
    <glyph glyph-name="threeeighths" unicode="&#x215c;" horiz-adv-x="935" 
d="M198 -34l489 815l72 -45l-488 -814zM25 413l86 20q12 -85 80 -85q70 0 70 56q0 55 -73 55h-28v69h27q52 0 52 46q0 51 -54 51q-48 0 -57 -59l-83 16q6 58 44.5 90.5t99.5 32.5q58 0 95.5 -31.5t37.5 -84.5q0 -34 -16 -55t-33 -29v-2q24 -7 47.5 -33t23.5 -74
q0 -55 -39.5 -91.5t-113.5 -36.5q-69 0 -113 37t-53 108zM687 311q0 -19 13 -31.5t40 -12.5t40 12.5t13 31.5q0 20 -13 34t-40 14t-40 -14t-13 -34zM660 233v2q-55 23 -55 84q0 48 38.5 80.5t96.5 32.5q59 0 98.5 -32.5t39.5 -80.5q0 -58 -56 -84v-2q34 -13 53.5 -42.5
t19.5 -66.5q0 -60 -43.5 -94.5t-111.5 -34.5q-67 0 -110 34.5t-43 94.5q0 38 19 67.5t54 41.5zM672 136q0 -26 17 -42.5t51 -16.5t51.5 16.5t17.5 42.5q0 27 -18.5 45t-50.5 18q-30 0 -49 -18t-19 -45z" />
    <glyph glyph-name="fiveeighths" unicode="&#x215d;" horiz-adv-x="921" 
d="M190 -34l489 815l72 -45l-488 -814zM30 377l81 40q21 -67 80 -67q32 0 52.5 18t20.5 52t-20.5 52.5t-50.5 18.5q-54 0 -84 -41l-66 34l37 216h231v-82h-165l-16 -88l2 -1q7 10 29.5 20.5t54.5 10.5q56 0 95.5 -40.5t39.5 -101.5q0 -71 -46 -110.5t-114 -39.5
q-117 0 -161 109zM673 311q0 -19 13 -31.5t40 -12.5t40 12.5t13 31.5q0 20 -13 34t-40 14t-40 -14t-13 -34zM646 233v2q-55 23 -55 84q0 48 38.5 80.5t96.5 32.5q59 0 98.5 -32.5t39.5 -80.5q0 -58 -56 -84v-2q34 -13 53.5 -42.5t19.5 -66.5q0 -60 -43.5 -94.5t-111.5 -34.5
q-67 0 -110 34.5t-43 94.5q0 38 19 67.5t54 41.5zM658 136q0 -26 17 -42.5t51 -16.5t51.5 16.5t17.5 42.5q0 27 -18.5 45t-50.5 18q-30 0 -49 -18t-19 -45z" />
    <glyph glyph-name="seveneighths" unicode="&#x215e;" horiz-adv-x="861" 
d="M127 -34l489 815l72 -45l-488 -814zM28 273l191 344v2h-209v81h296v-95l-176 -332h-102zM613 311q0 -19 13 -31.5t40 -12.5t40 12.5t13 31.5q0 20 -13 34t-40 14t-40 -14t-13 -34zM586 233v2q-55 23 -55 84q0 48 38.5 80.5t96.5 32.5q59 0 98.5 -32.5t39.5 -80.5
q0 -58 -56 -84v-2q34 -13 53.5 -42.5t19.5 -66.5q0 -60 -43.5 -94.5t-111.5 -34.5q-67 0 -110 34.5t-43 94.5q0 38 19 67.5t54 41.5zM598 136q0 -26 17 -42.5t51 -16.5t51.5 16.5t17.5 42.5q0 27 -18.5 45t-50.5 18q-30 0 -49 -18t-19 -45z" />
    <glyph glyph-name="leftwardsarrow" unicode="&#x2190;" horiz-adv-x="690" 
d="M640 405v-114h-453l124 -202l-96 -57l-190 314l190 314l97 -57l-125 -198h453z" />
    <glyph glyph-name="upwardsarrow" unicode="&#x2191;" horiz-adv-x="682" 
d="M398 38h-114v453l-201 -127l-58 99l316 191l316 -191l-58 -99l-201 127v-453z" />
    <glyph glyph-name="rightwordsarrow" unicode="&#x2192;" horiz-adv-x="690" 
d="M50 291v114h453l-125 198l97 57l190 -314l-190 -314l-96 57l124 202h-453z" />
    <glyph glyph-name="downwardsarrow" unicode="&#x2193;" horiz-adv-x="682" 
d="M284 653h114v-453l201 127l58 -99l-316 -191l-316 191l58 99l201 -127v453z" />
    <glyph glyph-name="leftrightarrow" unicode="&#x2194;" horiz-adv-x="824" 
d="M513 89l124 202h-450l124 -202l-96 -57l-190 314l190 314l97 -57l-125 -198h450l-125 198l97 57l190 -314l-190 -314z" />
    <glyph glyph-name="updownarrow" unicode="&#x2195;" horiz-adv-x="682" 
d="M25 146l58 99l201 -127v450l-200 -127l-59 99l316 191l316 -191l-58 -99l-201 127v-450l201 127l58 -99l-316 -191z" />
    <glyph glyph-name="northwestarrow" unicode="&#x2196;" horiz-adv-x="623" 
d="M593 179l-82 -83l-320 322l-52 -230l-109 26l87 360l359 87l26 -110l-229 -52z" />
    <glyph glyph-name="northeastarrow" unicode="&#x2197;" horiz-adv-x="623" 
d="M112 96l-82 83l320 320l-229 52l26 110l359 -87l87 -360l-109 -26l-52 230z" />
    <glyph glyph-name="southeastarrow" unicode="&#x2198;" horiz-adv-x="623" 
d="M30 509l82 83l320 -322l52 230l109 -26l-87 -360l-359 -87l-26 110l229 52z" />
    <glyph glyph-name="southwestarrow" unicode="&#x2199;" horiz-adv-x="623" 
d="M511 592l82 -83l-320 -320l229 -52l-26 -110l-359 87l-87 360l109 26l52 -230z" />
    <glyph glyph-name="downwardsarrowwithtiprightwards" unicode="&#x21b3;" horiz-adv-x="690" 
d="M50 291v409h121v-295h332l-125 198l97 57l190 -314l-190 -314l-96 57l124 202h-453z" />
    <glyph glyph-name="downwardsarrowwithtipleftwards" unicode="&#x21b5;" horiz-adv-x="690" 
d="M665 700v-409h-453l124 -202l-96 -57l-190 314l190 314l97 -57l-125 -198h332v295h121z" />
    <glyph glyph-name="partialdiff" unicode="&#x2202;" horiz-adv-x="567" 
d="M159 629l-54 94q102 65 175 65q64 0 112 -32t75.5 -86.5t40.5 -120t13 -139.5q0 -122 -30 -227q-28 -96 -85 -147t-136 -51q-104 0 -169.5 65t-65.5 178q0 122 57 196t164 76q61 2 141 -33q-1 92 -29.5 150.5t-90.5 58.5q-47 0 -118 -47zM273 110q59 4 85 77
q23 63 33 165q-65 32 -121 32q-40 0 -65 -27t-33 -60t-8 -72q-1 -115 109 -115z" />
    <glyph glyph-name="Delta" unicode="&#x2206;" horiz-adv-x="636" 
d="M15 0l242 700h123l241 -700h-606zM201 130h233l-116 373z" />
    <glyph glyph-name="product" unicode="&#x220f;" horiz-adv-x="659" 
d="M140 -141v671h-110v120h599v-120h-110v-671h-120v671h-139v-671h-120z" />
    <glyph glyph-name="summation" unicode="&#x2211;" horiz-adv-x="574" 
d="M50 -100v102l240 308l-230 288v102h474v-130h-291l199 -259l-210 -281h302v-130h-484z" />
    <glyph glyph-name="minus" unicode="&#x2212;" horiz-adv-x="604" 
d="M40 314v100h524v-100h-524z" />
    <glyph glyph-name="radical" unicode="&#x221a;" horiz-adv-x="618" 
d="M245 0l-112 321h-133v110h229l68 -223l163 492h133l-245 -700h-103z" />
    <glyph glyph-name="infinity" unicode="&#x221e;" horiz-adv-x="702" 
d="M222 105q-76 0 -124 56t-48 142t48 143.5t124 57.5q35 0 67.5 -18.5t46.5 -37.5l15 -18q6 8 16.5 20.5t44 33t68.5 20.5q76 0 124 -57.5t48 -143.5t-48 -142t-124 -56q-35 0 -67 16t-47 32l-15 16q-2 -3 -6 -7t-16.5 -15t-27 -19.5t-36 -15.5t-43.5 -7zM382 303
q33 -85 88 -85q39 0 56.5 25t17.5 60t-17.5 62t-56.5 27q-55 0 -88 -89zM320 303q-31 89 -88 89q-39 0 -56.5 -27t-17.5 -62t17.5 -60t56.5 -25q57 0 88 85z" />
    <glyph glyph-name="integral" unicode="&#x222b;" horiz-adv-x="401" 
d="M30 -240v110q63 1 85 20.5t22 56.5v582q0 122 50 169t184 47v-110q-63 -1 -85 -20.5t-22 -56.5v-582q0 -122 -50 -169t-184 -47z" />
    <glyph glyph-name="approxequal" unicode="&#x2248;" horiz-adv-x="614" 
d="M190 260q-46 0 -69 -89l-81 22q7 42 24 77.5t51 62t80 26.5q42 0 84.5 -21.5t79.5 -43.5t64 -22q47 0 70 89l81 -22q-7 -42 -24 -77.5t-51 -62t-80 -26.5q-42 0 -85 21.5t-80 43.5t-64 22zM190 478q-46 0 -69 -89l-81 22q7 42 24 77.5t51 62t80 26.5q42 0 84.5 -21.5
t79.5 -43.5t64 -22q47 0 70 89l81 -22q-7 -42 -24 -77.5t-51 -62t-80 -26.5q-42 0 -85 21.5t-80 43.5t-64 22z" />
    <glyph glyph-name="notequal" unicode="&#x2260;" horiz-adv-x="563" 
d="M50 410v100h274l64 114l61 -36l-44 -78h108v-100h-165l-46 -83h211v-100h-268l-70 -125l-61 36l50 89h-114v100h170l47 83h-217z" />
    <glyph glyph-name="lessequal" unicode="&#x2264;" horiz-adv-x="526" 
d="M40 0v100h433v-100h-433zM40 387l1 70l390 233l55 -88l-300 -180l300 -180l-56 -90z" />
    <glyph glyph-name="greaterequal" unicode="&#x2265;" horiz-adv-x="526" 
d="M486 100v-100h-433v100h433zM485 457l1 -70l-390 -235l-56 90l300 180l-300 180l55 88z" />
    <glyph glyph-name="lozenge" unicode="&#x25ca;" horiz-adv-x="573" 
d="M217 0l-197 356l193 344h147l193 -344l-198 -356h-138zM286 114l133 242l-133 227l-132 -228z" />
    <glyph glyph-name="commaaccent" unicode="&#xf6c3;" horiz-adv-x="282" 
d="M86 -263v47q27 4 37.5 18t10.5 39h-54v113h122v-101q0 -109 -116 -116z" />
    <glyph glyph-name="apple" unicode="&#xf8ff;" horiz-adv-x="746" 
d="M80 0v423q0 117 86 204.5t206 87.5q121 0 207.5 -87.5t86.5 -204.5v-423h-28l-65 65l-68 -65l-63 65l-71 -65l-69 65l-63 -65l-67 65l-66 -65h-26zM430 377q0 -29 20.5 -49.5t49.5 -20.5t50.5 21t21.5 49q0 30 -21.5 51t-50.5 21t-49.5 -21t-20.5 -51zM175 377
q0 -29 21 -49.5t50 -20.5q30 0 50.5 20.5t20.5 49.5q0 30 -20.5 51t-50.5 21q-29 0 -50 -21t-21 -51z" />
    <glyph glyph-name="dieresis.cap" horiz-adv-x="421" 
d="M50 765v115h122v-115h-122zM249 765v115h122v-115h-122z" />
    <glyph glyph-name="tilde.cap" horiz-adv-x="408" 
d="M106 765h-66q17 110 101 110q33 0 77 -20q36 -19 47 -19q29 0 37 34h66q-17 -110 -101 -110q-33 0 -77 20q-36 19 -47 19q-29 0 -37 -34z" />
    <glyph glyph-name="macron.cap" horiz-adv-x="388" 
d="M50 765v80h288v-80h-288z" />
    <glyph glyph-name="acute.cap" horiz-adv-x="299" 
d="M40 765l81 125h138l-110 -125h-109z" />
    <glyph glyph-name="circumflex.cap" horiz-adv-x="310" 
d="M20 800l67 86h135l68 -86l-68 -53l-67 86l-69 -86z" />
    <glyph glyph-name="caron.cap" horiz-adv-x="310" 
d="M87 765l-67 86l66 53l69 -86l67 86l68 -53l-68 -86h-135z" />
    <glyph glyph-name="ring.cap" horiz-adv-x="289" 
d="M144 677q-46 0 -75 31t-29 77q0 45 30 76.5t74 31.5q46 0 75.5 -31t29.5 -77q0 -47 -29.5 -77.5t-75.5 -30.5zM144 735q16 0 29 13.5t13 37.5t-12.5 36.5t-29.5 12.5q-16 0 -28 -12.5t-12 -36.5t12 -37.5t28 -13.5z" />
    <glyph glyph-name="breve.cap" horiz-adv-x="329" 
d="M30 885h64q3 -20 21 -36t50 -16t48 15.5t19 36.5h67q0 -56 -38 -93t-96 -37q-61 0 -98 37t-37 93z" />
    <glyph glyph-name="hungarumlaut.cap" horiz-adv-x="477" 
d="M75 765l75 115h118l-104 -115h-89zM234 765l75 115h118l-104 -115h-89z" />
    <glyph glyph-name="dotaccent.cap" horiz-adv-x="270" 
d="M70 765v123h130v-123h-130z" />
    <glyph glyph-name="grave.cap" horiz-adv-x="299" 
d="M150 765l-110 125h138l81 -125h-109z" />
    <glyph glyph-name="a.ss01" horiz-adv-x="589" 
d="M398 216v99q0 48 -30 79t-83 31q-57 0 -88.5 -40t-31.5 -120t32 -120t88 -40q53 0 83 31.5t30 79.5zM409 0v51h-2q-15 -27 -51 -46.5t-91 -19.5q-95 0 -162.5 75t-67.5 205q0 127 65 203.5t165 76.5q43 0 80.5 -18.5t54.5 -47.5h3v51h116v-530h-110z" />
    <glyph glyph-name="agrave.ss01" horiz-adv-x="589" 
d="M398 216v99q0 48 -30 79t-83 31q-57 0 -88.5 -40t-31.5 -120t32 -120t88 -40q53 0 83 31.5t30 79.5zM409 0v51h-2q-15 -27 -51 -46.5t-91 -19.5q-95 0 -162.5 75t-67.5 205q0 127 65 203.5t165 76.5q43 0 80.5 -18.5t54.5 -47.5h3v51h116v-530h-110zM218 595l-110 125
h138l81 -125h-109z" />
    <glyph glyph-name="aacute.ss01" horiz-adv-x="589" 
d="M398 216v99q0 48 -30 79t-83 31q-57 0 -88.5 -40t-31.5 -120t32 -120t88 -40q53 0 83 31.5t30 79.5zM409 0v51h-2q-15 -27 -51 -46.5t-91 -19.5q-95 0 -162.5 75t-67.5 205q0 127 65 203.5t165 76.5q43 0 80.5 -18.5t54.5 -47.5h3v51h116v-530h-110zM197 595l81 125h138
l-110 -125h-109z" />
    <glyph glyph-name="acircumflex.ss01" horiz-adv-x="589" 
d="M398 216v99q0 48 -30 79t-83 31q-57 0 -88.5 -40t-31.5 -120t32 -120t88 -40q53 0 83 31.5t30 79.5zM409 0v51h-2q-15 -27 -51 -46.5t-91 -19.5q-95 0 -162.5 75t-67.5 205q0 127 65 203.5t165 76.5q43 0 80.5 -18.5t54.5 -47.5h3v51h116v-530h-110zM157 634l67 86h135
l68 -86l-68 -53l-67 86l-69 -86z" />
    <glyph glyph-name="atilde.ss01" horiz-adv-x="589" 
d="M398 216v99q0 48 -30 79t-83 31q-57 0 -88.5 -40t-31.5 -120t32 -120t88 -40q53 0 83 31.5t30 79.5zM409 0v51h-2q-15 -27 -51 -46.5t-91 -19.5q-95 0 -162.5 75t-67.5 205q0 127 65 203.5t165 76.5q43 0 80.5 -18.5t54.5 -47.5h3v51h116v-530h-110zM194 595h-66
q17 110 101 110q33 0 77 -20q36 -19 47 -19q29 0 37 34h66q-17 -110 -101 -110q-33 0 -77 20q-36 19 -47 19q-29 0 -37 -34z" />
    <glyph glyph-name="adieresis.ss01" horiz-adv-x="589" 
d="M398 216v99q0 48 -30 79t-83 31q-57 0 -88.5 -40t-31.5 -120t32 -120t88 -40q53 0 83 31.5t30 79.5zM409 0v51h-2q-15 -27 -51 -46.5t-91 -19.5q-95 0 -162.5 75t-67.5 205q0 127 65 203.5t165 76.5q43 0 80.5 -18.5t54.5 -47.5h3v51h116v-530h-110zM132 595v115h122
v-115h-122zM331 595v115h122v-115h-122z" />
    <glyph glyph-name="amacron.ss01" horiz-adv-x="589" 
d="M398 216v99q0 48 -30 79t-83 31q-57 0 -88.5 -40t-31.5 -120t32 -120t88 -40q53 0 83 31.5t30 79.5zM409 0v51h-2q-15 -27 -51 -46.5t-91 -19.5q-95 0 -162.5 75t-67.5 205q0 127 65 203.5t165 76.5q43 0 80.5 -18.5t54.5 -47.5h3v51h116v-530h-110zM148 620v80h288v-80
h-288z" />
    <glyph glyph-name="abreve.ss01" horiz-adv-x="589" 
d="M398 216v99q0 48 -30 79t-83 31q-57 0 -88.5 -40t-31.5 -120t32 -120t88 -40q53 0 83 31.5t30 79.5zM409 0v51h-2q-15 -27 -51 -46.5t-91 -19.5q-95 0 -162.5 75t-67.5 205q0 127 65 203.5t165 76.5q43 0 80.5 -18.5t54.5 -47.5h3v51h116v-530h-110zM158 715h64
q3 -20 21 -36t50 -16t48 15.5t19 36.5h67q0 -56 -38 -93t-96 -37q-61 0 -98 37t-37 93z" />
    <glyph glyph-name="aring.ss01" horiz-adv-x="589" 
d="M409 0v51h-2q-15 -27 -51 -46.5t-91 -19.5q-95 0 -162.5 75t-67.5 205q0 107 47.5 179t124.5 93q-48 30 -48 93q0 45 30 76.5t74 31.5q46 0 75.5 -31t29.5 -77q0 -64 -49 -93q56 -18 81 -58h3v51h116v-530h-110zM398 216v99q0 48 -30 79t-83 31q-57 0 -88.5 -40
t-31.5 -120t32 -120t88 -40q53 0 83 31.5t30 79.5zM263 580q17 0 29.5 13.5t12.5 37.5t-12.5 36.5t-29.5 12.5q-16 0 -28 -12.5t-12 -36.5t12 -37.5t28 -13.5z" />
    <glyph glyph-name="aringacute.ss01" horiz-adv-x="589" 
d="M409 0v51h-2q-15 -27 -51 -46.5t-91 -19.5q-95 0 -162.5 75t-67.5 205q0 108 48.5 180.5t126.5 92.5q-46 30 -46 92q0 35 19.5 63t50.5 39l70 108h138l-109 -124q40 -30 40 -86q0 -64 -51 -94q54 -18 78 -57h3v51h116v-530h-110zM398 216v99q0 48 -30 79t-83 31
q-57 0 -88.5 -40t-31.5 -120t32 -120t88 -40q53 0 83 31.5t30 79.5zM268 580q16 0 29 13.5t13 37.5t-12.5 36.5t-29.5 12.5q-16 0 -28 -12.5t-12 -36.5t12 -37.5t28 -13.5z" />
    <glyph glyph-name="aogonek.ss01" horiz-adv-x="589" 
d="M409 0v51h-2q-15 -27 -51 -46.5t-91 -19.5q-95 0 -162.5 75t-67.5 205q0 127 65 203.5t165 76.5q43 0 80.5 -18.5t54.5 -47.5h3v51h116v-530q-80 -68 -80 -120q0 -28 33 -28q36 0 74 40l38 -42q-64 -68 -143 -68q-92 0 -92 74q0 40 29 79t70 65h-39zM398 216v99
q0 48 -30 79t-83 31q-57 0 -88.5 -40t-31.5 -120t32 -120t88 -40q53 0 83 31.5t30 79.5z" />
    <glyph glyph-name="caron.alt" horiz-adv-x="295" 
d="M80 565l32 165h103l-60 -165h-75z" />
    <glyph glyph-name="parenleft.cap" horiz-adv-x="374" 
d="M334 -93l-65 -54q-17 16 -44 54t-65 104t-64 161t-26 192q0 77 18.5 151.5t42.5 124.5t56.5 97t49.5 65.5t32 33.5l65 -54q-81 -99 -120 -189.5t-39 -228.5q0 -133 44.5 -251.5t114.5 -205.5z" />
    <glyph glyph-name="parenright.cap" horiz-adv-x="374" 
d="M105 -147l-65 54q70 87 114.5 205.5t44.5 251.5q0 138 -39 228.5t-120 189.5l65 54q15 -15 32 -33.5t49.5 -65.5t56.5 -97t42.5 -124.5t18.5 -151.5q0 -97 -26 -192t-64 -161t-65 -104t-44 -54z" />
    <glyph glyph-name="bracketleft.cap" horiz-adv-x="357" 
d="M70 -129v959h257v-85h-167v-789h167v-85h-257z" />
    <glyph glyph-name="bracketright.cap" horiz-adv-x="357" 
d="M287 830v-959h-257v85h167v789h-167v85h257z" />
    <glyph glyph-name="braceleft.cap" horiz-adv-x="387" 
d="M121 25v240q0 32 -12 45t-41 13h-28v89h28q29 0 41 14.5t12 46.5v193q0 93 40.5 128.5t124.5 35.5h51v-90h-65q-33 0 -47 -21t-14 -70v-179q0 -28 -9 -49.5t-22.5 -32t-22.5 -15t-16 -5.5q6 -2 14.5 -6.5t22.5 -15t23.5 -31.5t9.5 -48v-225q0 -50 14.5 -70.5t51.5 -20.5
h60v-90h-51q-84 0 -124.5 35.5t-40.5 128.5z" />
    <glyph glyph-name="braceright.cap" horiz-adv-x="387" 
d="M256 265v-240q0 -93 -40.5 -128.5t-124.5 -35.5h-51v90h60q37 0 51.5 20.5t14.5 70.5v225q0 27 9 48t23 31.5t22.5 15t14.5 6.5q-6 1 -15 5.5t-22.5 15t-22.5 32t-9 49.5v179q0 49 -14 70t-47 21h-65v90h51q84 0 124.5 -35.5t40.5 -128.5v-193q0 -32 12 -46.5t41 -14.5
h28v-89h-28q-29 0 -41 -13t-12 -45z" />
    <glyph glyph-name="zero.numr" horiz-adv-x="375" 
d="M187 268q-74 0 -118 54t-44 171q0 105 44 158.5t118 53.5t118.5 -53.5t44.5 -158.5q0 -117 -44.5 -171t-118.5 -54zM187 354q37 0 53.5 29t16.5 110q0 69 -17 97t-53 28t-53 -28.5t-17 -96.5q0 -81 17 -110t53 -29z" />
    <glyph glyph-name="one.numr" horiz-adv-x="260" 
d="M102 273v325l-92 -57v98l98 61h82v-427h-88z" />
    <glyph glyph-name="two.numr" horiz-adv-x="346" 
d="M26 273v67q0 55 29 87q26 30 94 62q59 29 72 43q16 17 16 42q0 51 -61 51q-60 0 -71 -79l-85 11q5 70 46.5 109t112.5 39q60 0 101.5 -36t41.5 -101q0 -48 -29.5 -78.5t-80.5 -54.5q-73 -36 -82 -51q-6 -9 -6 -19h202v-92h-300z" />
    <glyph glyph-name="three.numr" horiz-adv-x="339" 
d="M5 413l86 20q12 -85 80 -85q70 0 70 56q0 55 -73 55h-28v69h27q52 0 52 46q0 51 -54 51q-48 0 -57 -59l-83 16q6 58 44.5 90.5t99.5 32.5q58 0 95.5 -31.5t37.5 -84.5q0 -34 -16 -55t-33 -29v-2q24 -7 47.5 -33t23.5 -74q0 -55 -39.5 -91.5t-113.5 -36.5q-69 0 -113 37
t-53 108z" />
    <glyph glyph-name="four.numr" horiz-adv-x="378" 
d="M15 351v82l162 267h125v-267h46v-82h-46v-78h-90v78h-197zM99 433h114v186h-2z" />
    <glyph glyph-name="five.numr" horiz-adv-x="371" 
d="M25 377l81 40q21 -67 80 -67q32 0 52.5 18t20.5 52t-20.5 52.5t-50.5 18.5q-54 0 -84 -41l-66 34l37 216h231v-82h-165l-16 -88l2 -1q7 10 29.5 20.5t54.5 10.5q56 0 95.5 -40.5t39.5 -101.5q0 -71 -46 -110.5t-114 -39.5q-117 0 -161 109z" />
    <glyph glyph-name="six.numr" horiz-adv-x="376" 
d="M202 353q33 0 49.5 19t16.5 50q0 30 -17.5 48t-51.5 18q-33 0 -51.5 -20.5t-18.5 -47.5q0 -32 19.5 -49.5t53.5 -17.5zM116 513h2q34 42 102 42q51 0 91 -37t40 -104t-43 -106.5t-106 -39.5q-79 0 -128 55.5t-49 158.5q0 92 47.5 157.5t129.5 65.5q59 0 93 -30.5
t44 -77.5l-81 -21q-12 50 -62 50q-36 0 -57 -32.5t-23 -80.5z" />
    <glyph glyph-name="seven.numr" horiz-adv-x="301" 
d="M13 273l191 344v2h-209v81h296v-95l-176 -332h-102z" />
    <glyph glyph-name="eight.numr" horiz-adv-x="338" 
d="M115 584q0 -19 13 -31.5t40 -12.5t40 12.5t13 31.5q0 20 -13 34t-40 14t-40 -14t-13 -34zM88 506v2q-55 23 -55 84q0 48 38.5 80.5t96.5 32.5q59 0 98.5 -32.5t39.5 -80.5q0 -58 -56 -84v-2q34 -13 53.5 -42.5t19.5 -66.5q0 -60 -43.5 -94.5t-111.5 -34.5
q-67 0 -110 34.5t-43 94.5q0 38 19 67.5t54 41.5zM100 409q0 -26 17 -42.5t51 -16.5t51.5 16.5t17.5 42.5q0 27 -18.5 45t-50.5 18q-30 0 -49 -18t-19 -45z" />
    <glyph glyph-name="nine.numr" horiz-adv-x="370" 
d="M34 371l79 30q8 -27 24.5 -40t49.5 -13q34 0 53.5 26t15.5 82h-2q-5 -13 -29 -27.5t-66 -14.5q-52 0 -95.5 39.5t-43.5 104.5q0 67 43.5 107t108.5 40q69 0 118.5 -54.5t49.5 -167.5q0 -106 -40.5 -160.5t-116.5 -54.5q-122 0 -149 103zM175 492q30 0 48.5 17.5
t18.5 47.5q0 31 -18 49.5t-52 18.5q-30 0 -49 -19.5t-19 -47.5q0 -29 19.5 -47.5t51.5 -18.5z" />
    <glyph glyph-name="zero.dnom" horiz-adv-x="375" 
d="M187 -5q-74 0 -118 54t-44 171q0 105 44 158.5t118 53.5t118.5 -53.5t44.5 -158.5q0 -117 -44.5 -171t-118.5 -54zM187 81q37 0 53.5 29t16.5 110q0 69 -17 97t-53 28t-53 -28.5t-17 -96.5q0 -81 17 -110t53 -29z" />
    <glyph glyph-name="one.dnom" horiz-adv-x="260" 
d="M102 0v325l-92 -57v98l98 61h82v-427h-88z" />
    <glyph glyph-name="two.dnom" horiz-adv-x="346" 
d="M26 0v67q0 55 29 87q26 30 94 62q59 29 72 43q16 17 16 42q0 51 -61 51q-60 0 -71 -79l-85 11q5 70 46.5 109t112.5 39q60 0 101.5 -36t41.5 -101q0 -48 -29.5 -78.5t-80.5 -54.5q-73 -36 -82 -51q-6 -9 -6 -19h202v-92h-300z" />
    <glyph glyph-name="three.dnom" horiz-adv-x="339" 
d="M5 140l86 20q12 -85 80 -85q70 0 70 56q0 55 -73 55h-28v69h27q52 0 52 46q0 51 -54 51q-48 0 -57 -59l-83 16q6 58 44.5 90.5t99.5 32.5q58 0 95.5 -31.5t37.5 -84.5q0 -34 -16 -55t-33 -29v-2q24 -7 47.5 -33t23.5 -74q0 -55 -39.5 -91.5t-113.5 -36.5q-69 0 -113 37
t-53 108z" />
    <glyph glyph-name="four.dnom" horiz-adv-x="378" 
d="M15 78v82l162 267h125v-267h46v-82h-46v-78h-90v78h-197zM99 160h114v186h-2z" />
    <glyph glyph-name="five.dnom" horiz-adv-x="371" 
d="M25 104l81 40q21 -67 80 -67q32 0 52.5 18t20.5 52t-20.5 52.5t-50.5 18.5q-54 0 -84 -41l-66 34l37 216h231v-82h-165l-16 -88l2 -1q7 10 29.5 20.5t54.5 10.5q56 0 95.5 -40.5t39.5 -101.5q0 -71 -46 -110.5t-114 -39.5q-117 0 -161 109z" />
    <glyph glyph-name="six.dnom" horiz-adv-x="376" 
d="M202 80q33 0 49.5 19t16.5 50q0 30 -17.5 48t-51.5 18q-33 0 -51.5 -20.5t-18.5 -47.5q0 -32 19.5 -49.5t53.5 -17.5zM116 240h2q34 42 102 42q51 0 91 -37t40 -104t-43 -106.5t-106 -39.5q-79 0 -128 55.5t-49 158.5q0 92 47.5 157.5t129.5 65.5q59 0 93 -30.5t44 -77.5
l-81 -21q-12 50 -62 50q-36 0 -57 -32.5t-23 -80.5z" />
    <glyph glyph-name="seven.dnom" horiz-adv-x="301" 
d="M13 0l191 344v2h-209v81h296v-95l-176 -332h-102z" />
    <glyph glyph-name="eight.dnom" horiz-adv-x="338" 
d="M115 311q0 -19 13 -31.5t40 -12.5t40 12.5t13 31.5q0 20 -13 34t-40 14t-40 -14t-13 -34zM88 233v2q-55 23 -55 84q0 48 38.5 80.5t96.5 32.5q59 0 98.5 -32.5t39.5 -80.5q0 -58 -56 -84v-2q34 -13 53.5 -42.5t19.5 -66.5q0 -60 -43.5 -94.5t-111.5 -34.5
q-67 0 -110 34.5t-43 94.5q0 38 19 67.5t54 41.5zM100 136q0 -26 17 -42.5t51 -16.5t51.5 16.5t17.5 42.5q0 27 -18.5 45t-50.5 18q-30 0 -49 -18t-19 -45z" />
    <glyph glyph-name="nine.dnom" horiz-adv-x="370" 
d="M34 98l79 30q8 -27 24.5 -40t49.5 -13q34 0 53.5 26t15.5 82h-2q-5 -13 -29 -27.5t-66 -14.5q-52 0 -95.5 39.5t-43.5 104.5q0 67 43.5 107t108.5 40q69 0 118.5 -54.5t49.5 -167.5q0 -106 -40.5 -160.5t-116.5 -54.5q-122 0 -149 103zM175 219q30 0 48.5 17.5t18.5 47.5
q0 31 -18 49.5t-52 18.5q-30 0 -49 -19.5t-19 -47.5q0 -29 19.5 -47.5t51.5 -18.5z" />
    <glyph glyph-name="published" horiz-adv-x="697" 
d="M348 45q-131 0 -219.5 89t-88.5 220t88.5 219.5t219.5 88.5t220 -88.5t89 -219.5t-89 -220t-220 -89zM336 377h34q58 0 58 45t-58 45h-34v-90zM378 306h-42v-140h-80v372h122q61 0 96.5 -31t35.5 -85t-35.5 -85t-96.5 -31zM348 112q99 0 167.5 70.5t68.5 171.5
q0 99 -68.5 169t-167.5 70t-167 -69.5t-68 -169.5q0 -101 68 -171.5t167 -70.5z" />
    <glyph glyph-name="plusinferior" horiz-adv-x="416" 
d="M167 -156v143h-127v79h127v128h82v-128h127v-79h-127v-143h-82z" />
    <glyph glyph-name="minusinferior" horiz-adv-x="386" 
d="M346 -13h-306v79h306v-79z" />
    <glyph glyph-name="zero.tnum" 
d="M325 -15q-123 0 -196 92t-73 284q0 174 73.5 264t195.5 90t195.5 -90t73.5 -264q0 -192 -73 -284t-196 -92zM325 110q69 0 101.5 56t32.5 195q0 121 -33.5 175t-100.5 54t-100.5 -54t-33.5 -175q0 -139 32.5 -195t101.5 -56z" />
    <glyph glyph-name="one.tnum" 
d="M120 120h165v430l-151 -95v145l161 100h119v-580h155v-120h-449v120z" />
    <glyph glyph-name="two.tnum" 
d="M82 0v101q0 96 46 150q38 45 158 105q7 3 20 10q40 19 57.5 29.5t39.5 27.5t30 36.5t8 45.5q0 39 -31 64.5t-83 25.5q-109 0 -123 -136l-128 17q7 115 74.5 177t183.5 62q102 0 168.5 -58.5t66.5 -160.5q0 -43 -15 -78.5t-43.5 -63t-57 -46t-68.5 -38.5
q-77 -39 -102.5 -54t-37.5 -32q-14 -21 -14 -52h343v-132h-492z" />
    <glyph glyph-name="three.tnum" 
d="M63 229l131 28q20 -152 141 -152q59 0 92 27t33 76q0 103 -131 103h-46v106h41q47 0 75.5 22t28.5 64q0 43 -26.5 67.5t-73.5 24.5q-91 0 -107 -106l-123 23q9 94 72.5 148.5t162.5 54.5q95 0 157.5 -52.5t62.5 -140.5q0 -63 -29 -97t-61 -44v-3q42 -9 82.5 -53.5
t40.5 -125.5q0 -92 -66 -153t-184 -61q-114 0 -186.5 61.5t-86.5 182.5z" />
    <glyph glyph-name="four.tnum" 
d="M48 134v126l266 440h205v-441h82v-125h-82v-134h-127v134h-344zM184 259h208v342h-2z" />
    <glyph glyph-name="five.tnum" 
d="M60 174l127 54q16 -55 52.5 -87.5t88.5 -32.5q57 0 94.5 33t37.5 96t-37 96t-92 33q-90 0 -140 -75l-105 53l61 356h374v-125h-272l-27 -158l1 -1q5 8 19 18.5t48 22t75 11.5q94 0 159 -66t65 -169q0 -116 -75 -182t-186 -66q-104 0 -171 52t-97 137z" />
    <glyph glyph-name="six.tnum" 
d="M214 237q0 -61 35.5 -95t97.5 -34q58 0 90 36t32 92q0 55 -33.5 90t-93.5 35q-59 0 -93.5 -37t-34.5 -87zM192 385l1 -1q18 29 62 55t109 26q92 0 161 -62t69 -172q0 -113 -71.5 -179.5t-175.5 -66.5q-129 0 -210.5 91.5t-81.5 266.5q0 156 78.5 264t211.5 108
q97 0 153 -51.5t72 -129.5l-122 -32q-25 93 -112 93q-63 0 -102 -57.5t-42 -152.5z" />
    <glyph glyph-name="seven.tnum" 
d="M115 0l333 573v2h-341v125h475v-140l-307 -560h-160z" />
    <glyph glyph-name="eight.tnum" 
d="M63 202q0 59 33 108.5t93 70.5v2q-44 18 -68.5 56.5t-24.5 88.5q0 80 63 133.5t166 53.5t166 -53.5t63 -133.5q0 -50 -24.5 -88.5t-68.5 -56.5v-2q61 -22 93.5 -71t32.5 -110q0 -102 -71.5 -158.5t-190.5 -56.5t-190.5 57t-71.5 160zM223 517q0 -35 28 -60t74 -25
t73.5 25t27.5 60q0 36 -26.5 61t-74.5 25q-49 0 -75.5 -25t-26.5 -61zM195 214q0 -47 33.5 -76.5t96.5 -29.5t96 29.5t33 76.5q0 50 -34 82t-95 32t-95.5 -32t-34.5 -82z" />
    <glyph glyph-name="nine.tnum" 
d="M86 158l119 44q26 -97 128 -97q61 0 96.5 50.5t31.5 154.5h-2q-7 -23 -49.5 -50t-115.5 -27q-90 0 -161.5 65t-71.5 173q0 111 72 177.5t177 66.5q55 0 103 -20.5t88.5 -63t63.5 -116t23 -169.5q0 -180 -68 -270.5t-192 -90.5q-57 0 -102 15.5t-72.5 42.5t-43.5 55
t-24 60zM315 349q57 0 90.5 29t33.5 84q0 59 -34 96t-94 37q-54 0 -88 -35t-34 -89t34 -88t92 -34z" />
    <glyph glyph-name="Euro.tnum" 
d="M480 278l140 -31q-16 -123 -81.5 -192.5t-175.5 -69.5q-94 0 -164 59t-96 178h-74v90h61q-1 16 -1 49v18h-60v90h71q25 117 99 181.5t163 64.5q102 0 171 -67t80 -182l-134 -21q-19 145 -116 145q-39 0 -72 -31.5t-50 -89.5h123v-90h-136v-18q0 -19 2 -49h134v-90h-119
q34 -112 118 -112q56 0 82.5 44t34.5 124z" />
    <glyph glyph-name="dollar.tnum" 
d="M41 234l142 31q12 -69 38 -105.5t78 -45.5v196q-125 37 -177 87t-52 119q0 78 61.5 135t167.5 63v61h55v-62q90 -7 152.5 -53.5t83.5 -132.5l-126 -37q-32 87 -110 97v-166q145 -44 199.5 -94.5t54.5 -126.5q0 -95 -68 -153t-186 -62v-83h-55v85q-108 10 -175.5 72.5
t-82.5 174.5zM354 294v-184q58 0 90 21.5t32 63.5q0 36 -25 56.5t-97 42.5zM203 518q0 -28 21 -45t75 -34v150q-50 -2 -73 -22t-23 -49z" />
    <glyph glyph-name="sterling.tnum" 
d="M74 0v126h31q20 0 33.5 11t13.5 35v130h-78v90h78v102q0 114 56 167.5t151 53.5q189 0 216 -201l-124 -25q-10 55 -28.5 80.5t-57.5 25.5q-78 0 -78 -94v-109h172v-90h-172v-176h286v-126h-499z" />
    <glyph glyph-name="yen.tnum" 
d="M56 117v105h200v77h-200v105h138l-166 296h148l146 -277h2l149 277h149l-169 -296h138v-105h-200v-77h200v-105h-200v-117h-135v117h-200z" />
    <glyph glyph-name="cent.tnum" 
d="M440 214l123 -32q-17 -91 -73.5 -141.5t-141.5 -54.5v-96h-35v96q-100 7 -163 80.5t-63 198.5q0 124 64 197.5t162 81.5v87h35v-86q84 -4 140 -55.5t70 -135.5l-121 -23q-17 89 -89 96v-324q75 9 92 111zM215 265q0 -146 98 -162v323q-46 -8 -72 -48.5t-26 -112.5z" />
    <glyph glyph-name="florin.tnum" 
d="M111 -173l93 533h-98l18 105h98l23 120q31 160 159 160q74 0 139 -58l-60 -103q-33 33 -63 33q-39 0 -48 -46l-20 -106h140l-18 -105h-140l-93 -533h-130z" />
    <glyph glyph-name="percent.tnum" 
d="M460 -12q34 0 52.5 31.5t18.5 85.5q0 106 -71 106q-70 0 -70 -106q0 -54 18 -85.5t52 -31.5zM460 -102q-71 0 -118 51.5t-47 157.5q0 94 49 145t116 51t116.5 -51.5t49.5 -144.5q0 -95 -48.5 -152t-117.5 -57zM200 497q34 0 52.5 31.5t18.5 85.5q0 106 -71 106
q-70 0 -70 -106q0 -54 18 -85.5t52 -31.5zM200 407q-71 0 -118 51.5t-47 157.5q0 94 49 145t116 51t116.5 -51.5t49.5 -144.5q0 -95 -48.5 -152t-117.5 -57zM20 204l565 381l45 -71l-563 -381z" />
    <glyph glyph-name="perthousand.tnum" horiz-adv-x="1300" 
d="M600 -12q34 0 52.5 31.5t18.5 85.5q0 106 -71 106q-70 0 -70 -106q0 -54 18 -85.5t52 -31.5zM600 -102q-71 0 -118 51.5t-47 157.5q0 94 49 145t116 51t116.5 -51.5t49.5 -144.5q0 -95 -48.5 -152t-117.5 -57zM300 497q34 0 52.5 31.5t18.5 85.5q0 106 -71 106
q-70 0 -70 -106q0 -54 18 -85.5t52 -31.5zM300 407q-71 0 -118 51.5t-47 157.5q0 94 49 145t116 51t116.5 -51.5t49.5 -144.5q0 -95 -48.5 -152t-117.5 -57zM140 204l565 381l45 -71l-563 -381zM999 -12q34 0 52.5 31.5t18.5 85.5q0 106 -71 106q-70 0 -70 -106
q0 -54 18 -85.5t52 -31.5zM999 -102q-71 0 -118 51.5t-47 157.5q0 94 49 145t116 51t116.5 -51.5t49.5 -144.5q0 -95 -48.5 -152t-117.5 -57z" />
    <glyph glyph-name="plus.tnum" 
d="M272 90v223h-199v100h199v202h105v-202h199v-100h-199v-223h-105z" />
    <glyph glyph-name="minus.tnum" 
d="M63 314v100h524v-100h-524z" />
    <glyph glyph-name="plusminus.tnum" 
d="M73 418v100h199v152h105v-152h199v-100h-199v-173h-105v173h-199zM93 81v100h464v-100h-464z" />
    <glyph glyph-name="multiply.tnum" 
d="M95 180l158 158l-148 148l72 72l148 -148l147 147l72 -72l-147 -147l157 -157l-72 -72l-157 157l-158 -158z" />
    <glyph glyph-name="divide.tnum" 
d="M231 567q0 40 27 67t66 27q40 0 67 -27t27 -67q0 -39 -27 -66t-67 -27q-39 0 -66 27t-27 66zM231 134q0 40 27 67t66 27q40 0 67 -27t27 -67q0 -39 -27 -66t-67 -27q-39 0 -66 27t-27 66zM133 304v100h384v-100h-384z" />
    <glyph glyph-name="equal.tnum" 
d="M93 227v100h463v-100h-463zM93 410v100h463v-100h-463z" />
    <glyph glyph-name="notequal.tnum" 
d="M93 410v100h274l64 114l61 -36l-44 -78h108v-100h-165l-46 -83h211v-100h-268l-70 -125l-61 36l50 89h-114v100h170l47 83h-217z" />
    <glyph glyph-name="approxequal.tnum" 
d="M208 260q-46 0 -69 -89l-81 22q7 42 24 77.5t51 62t80 26.5q42 0 84.5 -21.5t79.5 -43.5t64 -22q47 0 70 89l81 -22q-7 -42 -24 -77.5t-51 -62t-80 -26.5q-42 0 -85 21.5t-80 43.5t-64 22zM208 478q-46 0 -69 -89l-81 22q7 42 24 77.5t51 62t80 26.5q42 0 84.5 -21.5
t79.5 -43.5t64 -22q47 0 70 89l81 -22q-7 -42 -24 -77.5t-51 -62t-80 -26.5q-42 0 -85 21.5t-80 43.5t-64 22z" />
    <glyph glyph-name="less.tnum" 
d="M102 317l1 70l390 233l55 -88l-300 -180l300 -180l-56 -90z" />
    <glyph glyph-name="lessequal.tnum" 
d="M102 0v100h433v-100h-433zM102 387l1 70l390 233l55 -88l-300 -180l300 -180l-56 -90z" />
    <glyph glyph-name="greater.tnum" 
d="M547 387l1 -70l-390 -235l-56 90l300 180l-300 180l55 88z" />
    <glyph glyph-name="greaterequal.tnum" 
d="M548 100v-100h-433v100h433zM547 457l1 -70l-390 -235l-56 90l300 180l-300 180l55 88z" />
    </font>
</defs>
</svg>
